<?xml version="1.0" standalone="no"?> <!DOCTYPE svg PUBLIC "-//W3C//DTD SVG 1.0//EN" "http://www.w3.org/TR/2001/REC-SVG-20010904/DTD/svg10.dtd" > <svg xmlns="http://www.w3.org/2000/svg" width="100%" height="100%">
<defs >
<font id="blackjar" horiz-adv-x="374" ><font-face
    font-family="BlackJack"
    units-per-em="1000"
    panose-1="2 0 5 4 3 0 0 2 0 4"
    ascent="995"
    descent="-521"
    alphabetic="0" />
<missing-glyph horiz-adv-x="1000" />
<glyph unicode=" " glyph-name="space" horiz-adv-x="250" />
<glyph unicode="!" glyph-name="exclam" horiz-adv-x="314" d="M235 777Q220 777 210 771T193 756T183 734T176 708Q170 679 168 641T163 573Q158 516 155 461T148 348Q146 322 145 297T141 245Q141 241 141 238T140 231Q140 224 142 213T155 201Q172 201 177
212T185 238Q193 277 201 316T217 394Q231 461 245 527T275 660Q278 675 281 690T284 721Q284 748 274 762T235 777ZM141 0Q165 0 171 15T178 51Q178 68 165 79T135 91Q115 91 108 74T100 40Q100 22 112 11T141 0Z" />
<glyph unicode="&quot;" glyph-name="quotedbl" horiz-adv-x="307" d="M242 452Q253 452 256 461T261 479Q262 494 264 523T270 581T275 632T277 655Q277 669 267 679T243 690Q229 690 220 680T210 655Q210 654 212 632T216 581T221 524T225 480Q226 472 228 462T242
452ZM132 452Q143 452 146 461T151 479Q152 491 154 519T160 577T165 630T167 655Q167 669 157 679T133 690Q119 690 110 680T100 655Q100 654 101 643T103 614T105 576T108 536T111 502T114 480Q116 472 118 462T132 452Z" />
<glyph unicode="$" glyph-name="dollar" horiz-adv-x="632" d="M364 54L367 129Q369 158 370 185T372 242Q403 216 422 191T442 139Q442 110 420 89T364 54ZM317 643V410Q282 441 259 472T235 537Q235 571 259 598T317 643ZM602 655Q602 674 591 685T562 703T527
711T494 713Q471 713 444 712T388 706Q389 722 389 737Q389 752 389 768Q389 782 381 791T359 801Q336 801 327 784T317 747V692Q283 683 251 669T195 635T156 588T141 525Q141 488 157 455T198 393T254 337T317 286V38Q272 26 229 22T160 18Q134 18 111 24T62
31Q51 31 41 29T30 13V7Q32 -2 41 -7T61 -15T85 -18T105 -20Q132 -23 158 -23Q190 -23 231 -20T317 -7V-72Q317 -81 323 -87T338 -94Q348 -94 352 -88T359 -73Q361 -59 361 -44T361 -15L362 5Q393 14 420 28T469 61T502 104T514 160Q514 189 502 215T471 267T427
315T376 360Q378 417 380 472T384 585Q385 607 385 628T387 671Q392 673 396 673T404 675Q421 678 438 679T472 680Q477 680 485 680T501 678T515 672T521 660Q521 649 511 638T488 615T466 591T455 567Q455 556 462 549T481 542Q492 542 504 546T529 558T553 573T572
588Q586 600 594 618T602 655Z" />
<glyph unicode="%" glyph-name="percent" horiz-adv-x="808" d="M218 -41Q226 -41 229 -38T237 -29Q245 -17 250 -4T262 23L326 152Q377 255 426 357T527 562Q541 591 554 618T582 675Q588 687 594 700T606 727Q610 737 610 744Q610 758 600 765T575 773Q560 773
549 762T532 737L199 -11Q197 -17 197 -21Q197 -29 203 -35T218 -41ZM161 369Q202 369 236 391T296 448T334 524T348 602Q348 626 343 651T327 698T296 732T248 746Q205 746 171 723T112 664T74 586T60 506Q60 482 65 458T82 414T113 382T161 369ZM251 699Q266
699 277 690T296 667T306 638T310 609Q310 582 299 547T269 479T223 425T165 402Q149 402 140 412T126 437T120 468T118 496Q118 521 127 555T154 622T196 676T251 699ZM561 -1Q602 -1 636 21T696 78T734 154T748 232Q748 256 743 281T727 328T696 362T648 376Q605
376 571 353T512 294T474 216T460 136Q460 112 465 88T482 44T513 12T561 -1ZM651 329Q666 329 677 320T696 297T706 268T710 239Q710 212 699 177T669 109T623 55T565 32Q549 32 540 42T526 67T520 98T518 126Q518 151 527 185T554 252T596 306T651 329Z" />
<glyph unicode="&amp;" glyph-name="ampersand" horiz-adv-x="493" d="M450 117Q458 125 464 135T471 154Q471 162 464 170T448 178Q441 178 434 174T421 163T409 149T399 137Q372 191 345 245T291 353Q317 369 344 389T394 433T431 487T445 552Q445 579 434 600T405
635T363 657T316 665Q282 665 254 652T206 615T175 563T164 500Q164 468 174 438T198 379Q172 360 145 335T95 280T59 217T45 148Q45 114 58 87T92 41T143 11T204 0Q247 0 292 17T370 63L401 2Q406 -7 413 -9T429 -11Q440 -11 450 -7T460 9Q460 12 455 23T443 48T430
74T420 91Q428 97 435 103T450 117ZM326 626Q371 626 371 580Q371 551 361 526T333 480T293 440T248 407Q238 431 232 455T226 506Q226 528 233 549T253 588T284 615T326 626ZM239 328Q268 269 294 216T349 103Q316 79 280 60T202 40Q159 40 136 60T113 125Q113
155 124 183T153 238T193 287T239 328Z" />
<glyph unicode="&apos;" glyph-name="quotesingle" horiz-adv-x="197" d="M132 452Q143 452 146 461T151 479Q152 491 154 519T160 577T165 630T167 655Q167 669 157 679T133 690Q119 690 110 680T100 655Q100 654 101 643T103 614T105 576T108 536T111 502T114
480Q116 472 118 462T132 452Z" />
<glyph unicode="(" glyph-name="parenleft" horiz-adv-x="366" d="M113 328Q113 440 159 540T281 720Q292 731 304 741T327 763Q331 767 333 770T336 780Q336 789 332 796T318 804Q312 804 304 798Q252 760 203 710T115 601T54 476T30 341Q30 299 39 250T70 149T129
49T224 -43Q232 -49 238 -49Q247 -49 251 -42T256 -25Q256 -19 254 -16T247 -8Q236 2 227 12T207 33Q182 63 165 98T136 172T119 249T113 328Z" />
<glyph unicode=")" glyph-name="parenright" horiz-adv-x="366" d="M253 427Q253 315 207 215T85 35Q74 24 62 14T39 -8Q35 -12 33 -15T30 -25Q30 -34 34 -41T48 -49Q54 -49 62 -43Q114 -5 163 45T251 154T312 279T336 414Q336 456 327 505T296 606T237 706T142
798Q134 804 128 804Q119 804 115 797T110 780Q110 774 112 771T119 763Q130 753 139 743T159 722Q184 692 201 657T230 583T247 506T253 427Z" />
<glyph unicode="*" glyph-name="asterisk" horiz-adv-x="492" d="M416 408Q416 416 409 423L332 500H441Q450 500 456 506T462 521Q462 530 456 536T441 542H332L409 619Q416 626 416 634Q416 642 409 649T394 656Q386 656 379 649L302 572V681Q302 690 296 696T281
702Q272 702 266 696T260 681V572L183 649Q176 656 168 656Q160 656 153 649T146 634Q146 626 153 619L230 542H121Q112 542 106 536T100 521Q100 512 106 506T121 500H230L153 423Q146 416 146 408Q146 400 153 393T168 386Q176 386 183 393L260 470V361Q260 352
266 346T281 340Q290 340 296 346T302 361V470L379 393Q386 386 394 386Q402 386 409 393T416 408Z" />
<glyph unicode="+" glyph-name="plus" horiz-adv-x="429" d="M233 140H369V174H233V314H196V174H60V140H196V-2H233V140Z" />
<glyph unicode="," glyph-name="comma" horiz-adv-x="282" d="M100 -103Q100 -112 109 -112Q123 -112 139 -95T169 -55T193 -9T205 28Q206 33 206 41T207 54Q207 86 173 86Q156 86 144 73T132 43Q132 33 134 23T137 1Q137 -22 131 -39T119 -69T106 -90T100 -103Z" />
<glyph unicode="-" glyph-name="hyphen" horiz-adv-x="481" d="M100 206Q100 197 101 193T112 185T140 182T170 181Q195 181 226 182T289 185T352 191T407 201Q412 203 416 204T421 212Q421 224 413 226T395 229Q362 229 329 228T262 226Q219 226 175 229Q164
230 154 231T133 232Q122 232 111 226T100 206Z" />
<glyph unicode="." glyph-name="period" horiz-adv-x="253" d="M141 0Q165 0 171 15T178 51Q178 68 165 79T135 91Q115 91 108 74T100 40Q100 22 112 11T141 0Z" />
<glyph unicode="/" glyph-name="slash" horiz-adv-x="442" d="M51 -41Q59 -41 62 -38T70 -29Q78 -17 83 -4T95 23L159 152Q210 255 259 357T360 562Q374 591 387 618T414 675Q420 687 427 700T439 727Q442 735 442 744Q442 758 432 765T408 773Q393 773 382 762T365
737L32 -11Q30 -17 30 -21Q30 -29 36 -35T51 -41Z" />
<glyph unicode="0" glyph-name="zero" horiz-adv-x="515" d="M35 186Q35 150 43 113T69 45T116 -5T189 -24Q253 -24 306 11T398 99T458 216T480 337Q480 373 473 412T448 483T401 536T327 557Q261 557 207 521T115 430T56 310T35 186ZM114 170Q114 211 129 267T173
374T242 460T331 496Q357 496 376 481T407 444T426 395T432 348Q432 319 424 283T401 210T365 138T317 76T260 32T195 15Q169 15 153 32T129 73T117 124T114 170Z" />
<glyph unicode="1" glyph-name="one" horiz-adv-x="346" d="M79 -17Q79 -25 81 -31T93 -37Q98 -37 100 -36Q112 -33 125 -32T150 -26T170 -13T181 11Q185 31 187 51T194 92Q207 162 221 230T255 368Q264 402 275 437T303 503Q308 511 312 518T316 535Q316 543
311 548T299 556T284 560T270 561Q252 561 239 555T214 534Q187 496 154 464T82 404Q72 397 62 391T42 377Q30 367 30 353Q30 345 33 340T46 334Q58 334 77 344T117 369T156 397T185 420Q180 358 166 299T135 179Q131 164 122 136T103 78T86 22T79 -17Z" />
<glyph unicode="2" glyph-name="two" horiz-adv-x="498" d="M144 66Q167 76 195 76Q218 76 241 72T286 62T331 53T376 48Q390 48 404 50T431 59Q439 64 445 74T458 84Q466 84 471 79T477 65Q477 48 466 34T437 9T402 -7T368 -13Q326 -13 287 -2T205 9Q179 9 154
5T104 -5Q92 -7 80 -10T54 -14Q44 -14 36 -10T28 6Q28 15 51 37T109 93T184 167T259 254T317 349T340 446Q340 464 333 481T314 512T286 533T250 541Q228 541 206 533T164 511T130 477T111 436Q109 425 106 413T88 401Q75 401 71 408T67 427Q67 463 86 492T134
543T199 577T266 589Q299 589 329 578T381 547T417 499T431 436Q431 407 416 373T376 304T320 234T257 168T196 110T144 66Z" />
<glyph unicode="3" glyph-name="three" horiz-adv-x="468" d="M58 -217Q97 -217 141 -206T228 -175T311 -127T381 -64T429 11T447 95Q447 145 428 181T376 242T302 281T216 300Q237 311 259 326T299 361T329 404T341 454Q341 478 329 493T299 518T259 530T218
534Q199 534 177 530T134 517T94 497T62 470Q55 462 51 455T47 436Q47 424 54 416T74 408Q84 408 88 412T98 425Q115 452 138 473T197 495Q219 495 231 480T244 444Q244 418 230 395T193 352T146 316T101 289Q89 282 82 278T70 260Q69 258 69 254Q69 243 78 240T95
236Q110 236 124 238T154 240Q189 240 225 230T291 200T340 150T359 80Q359 22 331 -24T257 -104T158 -155T51 -173Q38 -173 26 -172T2 -166Q-11 -161 -22 -156T-48 -151Q-57 -151 -63 -154T-70 -169Q-70 -185 -54 -194T-17 -209T25 -215T58 -217Z" />
<glyph unicode="4" glyph-name="four" horiz-adv-x="546" d="M371 116Q384 116 410 117T464 124T511 139T531 167Q531 178 523 183T504 188Q475 188 446 184T387 178Q391 192 400 225T418 295T435 364T443 406Q443 431 417 431Q398 431 390 419T378 391Q365 335
349 280T321 171Q304 170 288 170T254 169Q247 169 228 169T187 169T150 172T134 181Q134 190 149 218T189 285T241 367T297 449T345 517T375 556Q382 564 391 573T400 593Q400 606 391 614T369 622Q355 622 341 610T318 588Q307 574 282 541T227 465T164 377T103
288T56 214T33 169Q30 160 30 150Q30 132 41 123T68 110T101 105T130 104Q175 104 220 105T310 109Q303 62 293 17T271 -75Q270 -78 270 -85Q270 -96 276 -103T295 -111Q310 -111 318 -96Q321 -91 322 -85T325 -73Q335 -25 347 21T371 116Z" />
<glyph unicode="5" glyph-name="five" horiz-adv-x="483" d="M91 333Q93 343 98 361T111 398T125 435T138 459Q168 459 198 462T258 465Q276 465 297 465T339 464Q361 464 381 465T420 471Q435 474 444 477T460 484T469 497T474 519V521Q474 529 470 531T458 533Q432
533 407 529T355 524Q326 524 296 525T237 526Q230 526 211 526Q192 526 172 525T135 521T114 512T103 489T87 450T70 402T54 355T43 314T38 288Q38 273 48 270T70 267Q84 267 98 267T126 268Q165 268 204 260T275 232T327 180T347 102Q347 76 340 51T320 3Q300
-33 271 -59T206 -104T132 -130T52 -139Q38 -139 26 -135T3 -126T-17 -117T-36 -113Q-46 -113 -56 -118T-66 -135Q-66 -152 -55 -161T-27 -174T6 -180T36 -181H47Q128 -181 207 -153Q247 -139 290 -114T369 -54T428 23T451 113Q451 158 434 191T388 248T322 288T245
313T165 327T91 333Z" />
<glyph unicode="6" glyph-name="six" horiz-adv-x="517" d="M50 174Q50 308 104 417T255 617Q265 626 281 641T317 669T354 693T386 703Q394 703 400 700T407 687Q407 678 399 674T384 666Q361 656 343 642T308 611Q273 574 242 525T188 421T152 309T138 201Q138
176 144 145T163 87T198 41T251 22Q327 22 373 68T419 190Q419 254 381 287T281 320Q265 320 252 317T223 308Q217 306 212 304T199 301Q196 301 193 302T190 308Q190 318 202 327T230 345T262 358T287 366Q301 369 315 371T343 373Q375 373 403 361T452 327T485
278T497 217Q497 174 472 130T408 51T323 -6T235 -29Q195 -29 161 -12T103 34T64 99T50 174Z" />
<glyph unicode="7" glyph-name="seven" horiz-adv-x="460" d="M100 -239Q123 -239 136 -222T156 -184Q172 -138 188 -93T222 -2Q266 107 317 210T428 414Q439 434 450 458T461 505Q461 517 455 523T440 534T421 539T402 540Q397 540 393 540T384 539Q325 534 267
533T150 531Q130 531 112 531T73 532Q57 532 47 524T36 498Q36 481 47 477T73 472Q142 472 209 481T345 490Q352 490 357 489T363 479Q363 473 361 465Q357 449 349 430T330 392T311 353T293 319Q279 292 257 250T210 157T160 53T115 -52T81 -145T68 -215Q68 -228
78 -233T100 -239Z" />
<glyph unicode="8" glyph-name="eight" horiz-adv-x="509" d="M486 501Q500 501 509 513T519 538Q519 570 499 591T450 624T388 642T331 648Q301 648 261 643T183 623T119 584T93 520Q93 496 105 470T134 417T172 367T207 326Q180 306 152 283T100 231T61 172T45
103Q45 37 87 3T192 -32Q230 -32 266 -20T332 15T379 70T397 143Q397 167 388 192T366 241T337 287T307 328Q334 347 360 366T413 405Q425 414 437 422T460 441Q465 446 470 451T476 465Q476 472 471 475T459 478Q449 478 437 471Q423 464 411 457T386 441L275
372Q265 384 249 404T217 448T190 493T178 531Q178 555 194 571T234 598T282 612T327 617Q351 617 372 615T411 606T440 583T460 540Q462 530 467 516T486 501ZM248 282Q260 269 273 252T296 215T314 175T321 135Q321 111 313 88T290 46T254 16T206 5Q186 5 170
13T141 34T123 66T116 103Q116 132 129 157T163 204T206 245T248 282Z" />
<glyph unicode="9" glyph-name="nine" horiz-adv-x="512" d="M477 327Q477 193 423 84T272 -116Q262 -125 246 -140T210 -168T173 -192T141 -202Q133 -202 127 -199T120 -186Q120 -177 128 -173T143 -165Q166 -155 184 -141T219 -110Q254 -73 285 -24T339 80T375
192T389 300Q389 325 383 356T364 414T329 460T276 479Q200 479 154 433T108 311Q108 247 146 214T246 181Q262 181 275 184T304 193Q310 195 315 197T328 200Q331 200 334 199T337 193Q337 183 325 174T297 157T265 144T240 136Q226 133 212 131T184 128Q152 128
124 140T75 174T42 223T30 284Q30 327 55 371T119 450T204 507T292 530Q332 530 366 513T424 467T463 402T477 327Z" />
<glyph unicode=":" glyph-name="colon" horiz-adv-x="293" d="M141 0Q165 0 171 15T178 51Q178 68 165 79T135 91Q115 91 108 74T100 40Q100 22 112 11T141 0ZM181 260Q205 260 211 275T218 311Q218 328 205 339T175 351Q155 351 148 334T140 300Q140 282 152
271T181 260Z" />
<glyph unicode=";" glyph-name="semicolon" horiz-adv-x="317" d="M205 260Q229 260 235 275T242 311Q242 328 229 339T199 351Q179 351 172 334T164 300Q164 282 176 271T205 260ZM100 -103Q100 -112 109 -112Q123 -112 139 -95T169 -55T193 -9T205 28Q206 33
206 41T207 54Q207 86 173 86Q156 86 144 73T132 43Q132 33 134 23T137 1Q137 -22 131 -39T119 -69T106 -90T100 -103Z" />
<glyph unicode="&lt;" glyph-name="less" horiz-adv-x="469" d="M60 152L409 9V47L118 164L409 282V320L60 177V152Z" />
<glyph unicode="=" glyph-name="equal" horiz-adv-x="475" d="M60 192H415V225H60V192ZM60 87H415V121H60V87Z" />
<glyph unicode="&gt;" glyph-name="greater" horiz-adv-x="469" d="M60 10L409 153V178L60 322V283L352 165L60 47V10Z" />
<glyph unicode="?" glyph-name="question" horiz-adv-x="502" d="M198 51Q198 68 185 79T155 91Q135 91 128 74T120 40Q120 22 132 11T161 0Q185 0 191 15T198 51ZM171 166Q179 166 183 169T188 178T190 189Q190 195 191 200Q195 235 217 267T270 330T337 395T402
464T452 542T472 633Q472 670 459 696T424 739T373 764T310 772Q281 772 252 761T201 731T164 685T150 627Q150 617 153 600T163 567T180 540T203 528Q211 528 217 533T224 546Q224 550 220 557T210 574T201 598T196 628Q196 647 204 663T226 692T257 712T293 720Q311
720 326 713T352 693T370 664T377 631Q377 583 361 544T319 472T264 408T210 346T168 281T151 206Q151 202 151 195T154 182T160 171T171 166Z" />
<glyph unicode="A" glyph-name="A" horiz-adv-x="717" d="M393 305Q364 301 335 298T277 290Q294 326 308 362T337 436Q339 441 343 454T353 481T364 506T371 517Q373 517 374 515T375 511Q380 494 380 474Q380 454 381 436Q386 369 393 305ZM575 -16Q603 -16
631 0T685 41T732 93T765 143Q768 149 770 155T773 168Q773 174 767 178T756 182Q748 182 743 176T733 165Q720 147 704 126T668 87T627 57T580 45Q565 45 553 59T530 95T513 145T500 198T491 246T487 279Q507 282 531 284T573 293Q582 296 590 302T598 319Q598
327 592 330T579 333Q555 333 531 329T483 321Q478 365 477 408T476 495Q476 550 480 605T485 715Q485 726 481 740T462 754Q453 754 438 750T408 739T383 723T372 702Q372 672 366 646T349 592Q336 560 313 499T260 366T195 219T121 82T44 -19T-35 -58Q-49 -58
-61 -54T-88 -49Q-96 -49 -103 -53T-110 -66Q-110 -76 -102 -82T-82 -91T-58 -95T-39 -96Q21 -96 67 -60T148 29T209 140T257 244Q293 248 328 254T400 266Q405 231 415 183T446 90T497 15T575 -16Z" />
<glyph unicode="B" glyph-name="B" horiz-adv-x="529" d="M246 371Q263 375 287 385T337 409T388 440T433 477T466 517T479 557Q479 579 463 594T421 619T364 636T301 645T244 649T202 650Q207 675 212 705T228 759Q230 763 230 766Q230 772 224 773T213 774Q195
774 176 766Q140 751 129 716Q119 682 111 647Q85 645 59 642T7 634Q-4 632 -18 629T-33 610Q-33 597 -18 597Q-10 597 -3 598T13 601Q35 604 57 605T102 609Q79 503 62 398T33 184Q29 151 26 118T20 51Q18 32 17 13T15 -25Q15 -36 27 -38T48 -41Q75 -41 87 -35T109
-2Q136 -2 174 4T253 23T334 54T406 96T458 149T478 212Q478 247 452 274T389 320T313 352T246 371ZM146 348Q165 345 192 340T249 326T310 306T364 279T403 243T418 199Q418 177 401 159T355 125T293 97T226 76T163 62T117 55Q116 65 116 74Q116 84 116 94Q116
158 126 221T146 348ZM420 545Q420 515 388 490T311 446T223 413T155 394Q164 448 173 502T193 611Q204 611 224 610T270 607T322 601T370 589T406 571T420 545Z" />
<glyph unicode="C" glyph-name="C" horiz-adv-x="605" d="M185 291Q185 320 191 360T211 445T243 532T288 609T344 665T411 686Q448 686 467 661T487 600Q487 579 484 557T474 514Q472 508 469 499T461 481T455 463T452 448Q452 437 460 434T477 430Q491 430 501
437Q512 445 519 466T531 513T538 563T540 601Q540 631 530 657T502 701T459 731T403 742Q350 742 305 722T223 666T158 585T111 489T83 388T73 291Q73 229 90 171T142 67T228 -5T348 -33Q395 -33 440 -19T526 20T601 79T658 153Q662 159 666 168T671 185Q671 192
667 197T655 202Q646 202 640 194T628 179Q620 167 613 155T597 132Q556 81 499 53T375 24Q316 24 279 47T221 109T193 194T185 291Z" />
<glyph unicode="D" glyph-name="D" horiz-adv-x="612" d="M135 -2Q166 -2 204 9T271 31Q323 52 378 83T478 157T553 253T582 369Q582 449 556 508T484 606T374 664T234 682Q238 699 241 717T253 751Q255 757 255 759Q255 766 250 770T239 774Q221 774 202 766T173
747T155 716Q152 707 149 698T143 679Q135 679 117 678T81 674T48 665T34 648Q34 635 50 635Q58 635 64 636T79 639Q93 641 107 642T136 646Q113 544 96 442T65 237Q56 171 49 105T41 -29Q41 -40 54 -42T75 -45Q93 -45 102 -45T117 -40T126 -28T135 -2ZM139 59Q139
113 146 165T161 271Q190 462 227 648Q287 647 341 628T436 574T501 489T525 375Q525 322 502 278T441 199T359 138T269 94Q237 81 205 72T139 59Z" />
<glyph unicode="E" glyph-name="E" horiz-adv-x="515" d="M399 746Q450 746 479 718T509 639Q509 628 507 617T489 605Q478 605 474 619T462 650T440 681T396 695Q367 695 341 677T292 630T251 565T217 491T192 421T176 364Q192 369 225 372T295 378T367 382T421
383Q423 383 430 383Q437 383 444 383T456 381T462 378Q462 364 452 354T429 341Q423 342 404 339T359 330T303 317T246 304T197 292T165 284Q162 266 162 249Q162 213 168 172T191 96T237 38T311 15Q340 15 366 23T417 46T463 80T501 122Q511 134 518 147T535
172Q539 177 542 180T553 183Q561 183 565 178T570 165Q570 155 563 142T549 121Q525 87 494 57T425 3T346 -33T261 -47Q204 -47 166 -21T104 45T71 135T61 233Q61 240 61 246T62 260Q53 260 40 260Q28 260 17 263T-1 273T-9 294Q-9 308 -1 316T20 330T46 337T70
342Q78 379 93 423T130 512T180 599T241 674T314 726T399 746Z" />
<glyph unicode="F" glyph-name="F" horiz-adv-x="576" d="M493 631Q509 634 529 637T569 644T609 654T642 667T659 683T664 706Q664 713 663 721T651 730Q645 730 635 728T615 721T594 714T576 708Q532 697 487 691T397 679T306 670T215 659Q192 656 161 650T102
633T53 602T33 552Q33 535 38 516T51 479T72 446T98 420Q105 415 109 414T121 414H123Q131 418 131 426Q131 431 124 441T108 466T92 499T85 537Q85 555 98 566T131 583T169 593T202 598Q250 606 298 609T395 620Q395 615 395 611T396 602Q396 533 387 466T364
330Q344 326 323 324T282 319Q274 318 263 318Q253 318 245 316Q236 313 232 305T227 288Q227 271 244 271Q272 271 300 276T356 287Q353 265 347 234T330 168T305 100T271 39T229 -5T177 -22Q156 -22 143 -13T120 6T103 26T85 35Q75 35 69 24Q69 12 74 3T87 -16Q106
-39 128 -50T180 -61Q224 -61 259 -44T323 3T371 69T407 148T433 229T449 305Q455 307 471 311T505 321T536 334T549 348Q549 356 544 359T532 362Q513 362 495 357T458 348Q466 391 472 433T484 520Q487 548 490 575T493 631Z" />
<glyph unicode="G" glyph-name="G" horiz-adv-x="575" d="M78 140Q78 195 99 260T154 386T234 498T328 575Q348 586 369 592T413 600Q421 601 428 601Q436 601 444 601Q462 601 473 598T493 590T506 582T517 578Q528 578 530 590T533 609Q533 629 519 642T485
664T442 677T405 681Q349 681 297 657T198 592T115 498T50 387T7 271T-8 163Q-8 138 -4 110T12 59T44 20T95 4Q142 4 188 35T274 110T347 204T400 291Q399 262 395 213T381 108T357 -5T320 -108T268 -183T196 -212Q171 -212 153 -204T122 -185T99 -165T81 -156Q74
-156 70 -162T66 -174Q66 -185 74 -195T91 -213Q110 -231 140 -241T197 -251Q251 -251 292 -220T365 -138T418 -24T456 104T479 226T493 324Q498 371 502 417T507 510Q507 523 502 533T481 544Q463 544 454 539T439 526T431 506T424 480Q412 435 383 378T317 264T237
160T155 86Q146 80 136 75T114 69Q102 69 95 77T84 96T79 119T78 140Z" />
<glyph unicode="H" glyph-name="H" horiz-adv-x="710" d="M195 212Q171 199 143 175T91 121T50 59T34 -2Q34 -10 40 -16T55 -22Q65 -22 73 -17T89 -5Q100 6 117 35T151 99T180 165T195 212ZM751 312Q725 312 700 322T647 333Q628 333 610 332T572 328Q560 304
551 274T536 212T526 149T522 90Q522 75 525 62T533 39T541 21T545 11Q545 3 538 -2T523 -8Q512 -8 502 1T487 19Q475 39 472 66T468 116Q468 167 478 218T505 318Q448 307 393 290T283 248Q276 225 266 191T241 118T209 43T170 -25T122 -73T65 -92Q22 -92 1 -67T-21
0Q-21 34 -7 66T29 128T79 183T131 228Q148 241 167 252T203 276Q205 278 209 297T217 347T227 412T237 479T243 535T246 566Q246 581 244 602T235 644T216 678T183 693Q174 693 167 690T150 686Q144 686 137 691T129 704Q129 713 142 720T171 732T204 741T228
744Q261 744 282 728T315 688T331 635T336 580Q336 511 324 443T295 309Q351 327 407 342T521 364Q556 456 601 543T704 711Q709 719 718 731T738 756T760 778T782 787Q795 787 795 776Q795 766 790 757T778 738T762 721T749 705Q724 669 701 628T656 544T617 457T585
372Q610 374 634 374Q658 374 683 374Q698 374 713 374T743 369Q757 366 767 361T777 338Q777 327 770 320T751 312Z" />
<glyph unicode="I" glyph-name="I" horiz-adv-x="456" d="M421 588Q421 615 419 644T406 697T376 738T321 754Q287 754 251 734T184 684T127 620T88 556Q72 521 62 484T51 409Q51 399 52 384T57 354T69 329T91 318Q111 318 111 340Q111 348 108 355T102 370T95
388T92 414Q92 446 101 483T124 548Q133 565 151 589T192 635T239 672T284 688Q298 688 306 679T319 658T325 631T327 607Q327 576 321 519T302 395T270 257T224 130T165 36T91 -1Q74 -1 63 3T45 14T31 24T17 29Q12 29 6 25T0 15Q0 1 10 -9T34 -26T64 -36T91 -39Q152
-39 200 -6T285 82T348 205T390 343T413 477T421 588Z" />
<glyph unicode="J" glyph-name="J" horiz-adv-x="467" d="M363 270Q383 340 395 410T407 553Q407 577 406 611T395 677T368 731T314 754Q279 754 242 735T173 685T115 621T75 556Q59 521 49 484T38 409Q38 399 39 383T44 353T57 329T81 318Q101 318 101 340Q101
348 98 355T92 370T86 387T83 410Q83 426 85 444T93 481T104 517T118 549Q127 567 145 591T184 636T230 673T276 688Q294 688 303 676T317 645T322 609T323 578Q323 491 306 408T267 241Q226 210 180 159T93 48T27 -74T0 -190V-204Q0 -221 1 -241T9 -278T29 -306T65
-318Q85 -318 104 -308T137 -283Q178 -246 211 -185T269 -56T313 81T343 204Q352 208 362 213T382 226T398 243T405 264Q405 271 400 273T390 275Q383 275 377 273T364 270H363ZM251 173Q247 157 236 120T209 37T174 -60T136 -151T98 -219T65 -246Q59 -246 55 -241T50
-228T48 -212T47 -200Q47 -159 67 -106T118 1T184 100T251 173Z" />
<glyph unicode="K" glyph-name="K" horiz-adv-x="465" d="M147 714Q167 714 182 709T197 679Q197 669 193 653T184 620T173 585T164 557Q145 488 132 418T111 276L404 653Q416 668 433 668Q441 668 449 664T457 651Q457 641 444 618T409 563T362 498T313 434T270
379T243 345Q219 314 195 283T147 220Q196 183 253 156T369 110Q376 108 382 106T397 103Q401 102 409 102Q418 102 427 101T442 96T449 86Q449 63 435 49T397 35Q377 35 334 50T244 85T155 127T96 161Q93 149 90 128T84 84T81 40T79 6Q79 -7 80 -18T79 -39T71
-57T49 -72Q37 -77 26 -77Q10 -77 5 -66T0 -41Q0 124 19 284T81 604Q83 613 87 629T97 661T110 692T125 710Q130 713 136 713T147 714Z" />
<glyph unicode="L" glyph-name="L" horiz-adv-x="572" d="M68 -34Q74 -34 82 -30Q112 -16 143 -5T209 7Q238 7 266 3T323 -7T379 -17T437 -22Q467 -22 494 -9T544 25T586 71T618 121Q621 127 623 133T626 146Q626 152 620 156T609 160Q598 160 584 139T548 92T499
45T430 23Q400 23 372 31T315 48T259 65T200 73Q210 97 219 153T238 281T261 428T288 567T323 671T367 712Q394 712 404 692T418 647T427 602T445 581Q457 581 461 587T465 604Q465 627 460 655T441 707T409 747T360 764Q336 764 314 751T275 721Q240 685 219 626T184
499T163 359T147 227T126 123T91 65Q82 60 71 58T50 52T32 41T25 18Q25 11 29 2T39 -15T53 -28T68 -34Z" />
<glyph unicode="M" glyph-name="M" horiz-adv-x="833" d="M628 301Q628 283 628 256T632 197T641 133T659 76T688 34T732 18Q756 18 781 35T830 77T872 129T900 177Q903 183 905 189T908 202Q908 208 903 212T892 216Q884 216 879 211T869 199Q859 185 847 164T820
124T788 90T749 76Q734 76 725 91T711 126T705 167T703 199Q703 268 709 335T727 469Q731 492 734 514T737 559Q737 572 734 586T714 601Q702 601 690 596Q681 592 676 584T667 565T661 543T657 523Q651 496 638 471T614 419Q589 364 563 311T509 204Q490 168 471
133T430 62Q427 58 423 51T413 37T402 25T391 20Q383 20 380 38T375 80T373 126T374 154Q374 254 376 351T379 548Q379 557 379 577T376 618T369 656T355 678Q343 684 327 684Q320 684 307 680T282 670T261 655T252 637Q252 633 253 631Q260 611 262 591T264 549Q264
518 255 461T229 336T188 199T134 72T68 -21T-8 -57Q-19 -57 -29 -55T-51 -52Q-59 -52 -64 -58T-70 -72Q-70 -81 -66 -86T-54 -94T-39 -97T-24 -98Q18 -98 52 -78T115 -26T166 49T205 134T235 218T258 292Q259 294 260 298T263 302Q265 302 265 298Q265 294 265
293Q265 257 265 214T269 125T280 38T301 -37Q308 -54 321 -67T355 -81Q381 -81 410 -53T467 17T523 109T571 201T608 273T627 304Q628 303 628 301Z" />
<glyph unicode="N" glyph-name="N" horiz-adv-x="752" d="M14 -98Q58 -98 91 -78T148 -25T190 49T220 135T239 220T251 295Q252 301 253 317T257 352T262 383T270 397Q275 397 277 393T280 385Q290 356 303 315T333 229T372 140T420 60T479 2T550 -20Q579 -20
601 20T639 122T665 258T681 403T689 529T692 609Q692 619 690 631T673 643Q656 643 650 635T644 611Q644 606 644 601T645 591Q645 549 643 508T636 425Q633 387 630 346T621 263T607 181T587 104Q586 100 583 92T576 77T567 65T556 59Q537 59 516 85T475 153T435
245T400 343T373 429T356 486Q350 508 345 530T336 575L333 599Q331 613 325 626T301 640Q292 640 280 636T256 624T236 607T228 586Q228 574 232 563T236 538Q236 516 233 495Q230 463 225 410T210 296T185 173T146 60T90 -23T12 -55Q1 -55 -10 -54T-33 -52Q-42
-52 -49 -57T-56 -72Q-56 -81 -48 -86T-28 -94T-4 -97T14 -98Z" />
<glyph unicode="O" glyph-name="O" horiz-adv-x="613" d="M218 -40Q273 -40 320 -18T405 40T473 125T523 226T553 332T563 433Q563 453 560 482T551 544T533 609T507 666T470 708T422 724Q411 724 400 723T377 721Q360 721 345 726T313 731Q270 731 234 712T169
663Q131 625 103 574T56 467T28 353T18 242Q18 194 27 144T59 53T121 -14T218 -40ZM373 665Q414 665 440 638T482 571T504 488T510 414Q510 380 502 338T479 252T442 169T390 96T326 45T249 26Q207 26 180 43T138 87T116 149T110 219Q110 267 121 321T151 427T199
527T261 608Q284 631 312 648T373 665Z" />
<glyph unicode="P" glyph-name="P" horiz-adv-x="452" d="M452 454Q452 392 417 341T328 251T213 188T98 154Q94 143 91 125T86 86T82 47T80 16Q80 3 81 -8T80 -29T72 -47T50 -62Q38 -67 27 -67Q11 -67 6 -56T1 -31Q1 44 4 112T15 246T36 378T68 518Q71 528 75
543T85 575T98 604T115 622Q121 626 128 627T142 628Q160 628 172 621T184 593Q184 583 181 569T174 539T164 509T156 483Q136 411 123 338T102 189Q144 199 194 218T286 266T358 335T387 426Q387 472 364 511T304 579T223 627T137 649Q131 650 119 650T94 653T72
661T63 676Q63 682 67 692Q75 711 83 715T112 719Q165 719 224 700T334 646T418 563T452 454Z" />
<glyph unicode="Q" glyph-name="Q" horiz-adv-x="613" d="M177 430Q177 451 182 476Q188 506 206 539T250 601T308 647T373 665Q414 665 440 638T482 571T504 488T510 414Q510 366 502 320T476 230Q472 219 465 205T450 176T433 149T413 130Q383 165 343 196T265
262T203 337T177 430ZM368 87Q358 74 343 64T309 47T272 35T237 31Q201 31 177 49T136 95T113 156T106 219Q106 285 127 345Q133 311 150 283T190 230T241 185T295 146Q313 133 333 119T368 87ZM445 -41Q445 -48 445 -56T445 -72T451 -85T466 -90Q474 -90 478 -83T485
-66T489 -47T490 -31Q490 2 479 33T447 90Q466 116 483 141T514 195Q539 251 551 311T564 433Q564 493 552 554T505 667Q491 687 470 706T422 725Q411 725 400 724T377 722Q360 722 345 727T313 732Q291 732 269 725T228 705T191 677T159 645Q126 608 99 564T54
471T25 371T14 270Q14 223 23 169T54 69T115 -7T212 -38Q239 -38 265 -31T317 -11T364 18T405 54Q425 31 435 11T445 -41Z" />
<glyph unicode="R" glyph-name="R" horiz-adv-x="451" d="M451 482Q451 426 419 376T339 286T234 220T127 184Q180 145 240 119T364 73Q371 71 377 69T391 66Q395 65 404 65Q413 65 422 64T437 59T444 49Q444 26 430 12T392 -2Q372 -2 329 13T239 48T150 90T91
124Q88 114 86 100T82 71T80 42T79 16Q79 3 80 -8T79 -29T71 -47T49 -62Q37 -67 26 -67Q10 -67 5 -56T0 -31Q0 44 3 112T14 246T35 378T67 518Q70 528 74 544T84 575T97 604T115 623T141 628Q159 628 171 621T183 593Q183 583 179 567T169 534T157 499T148 471Q113
344 101 217Q143 227 193 246T285 294T357 363T386 454Q386 499 362 533T300 592T218 631T136 649Q130 650 118 650T93 653T71 661T62 676Q62 682 66 692Q74 711 82 715T111 719Q119 719 127 719T144 717Q192 711 246 696T345 652T421 582T451 482Z" />
<glyph unicode="S" glyph-name="S" horiz-adv-x="557" d="M425 567Q425 556 432 549T451 542Q461 542 474 546T499 558T523 573T542 588Q556 601 564 618T572 655Q572 674 561 685T532 703T497 711T464 713Q435 713 397 710T320 700T244 679T177 644T129 594T111
525Q111 480 133 442T189 370T261 307T334 249T389 194T412 139Q412 114 396 96T355 64T298 42T235 28T176 20T130 18Q105 18 81 24T32 31Q18 31 9 29T0 9Q0 -1 9 -6T31 -14T56 -18T75 -20Q102 -23 128 -23Q157 -23 194 -20T271 -10T349 11T417 44T465 93T484 160Q484
199 464 233T412 300T345 361T277 419T226 477T205 537Q205 565 222 588T266 630T321 659T374 675Q391 678 408 679T442 680Q447 680 455 680T471 678T485 672T491 660Q491 648 481 637T458 615T436 591T425 567Z" />
<glyph unicode="T" glyph-name="T" horiz-adv-x="567" d="M455 631Q469 636 489 639T531 647T571 656T601 667Q611 673 615 680T620 699Q620 707 618 718T605 730Q599 730 590 728T570 721T549 714T532 708Q489 697 444 690T354 679T264 670T175 659Q152 656 122
650T65 633T19 602T0 552Q0 534 6 515T22 478T46 445T75 420Q84 414 95 414H101Q108 418 108 425Q108 431 100 441T81 467T62 503T53 547Q53 560 67 569T100 584T138 593T166 598Q214 606 261 609T357 620Q360 600 360 580T361 539Q361 512 359 460T350 345T331
217T300 99T253 12T187 -22Q166 -22 152 -13T128 6T109 26T91 35Q82 35 76 24Q77 12 83 2T97 -16Q117 -39 139 -50T193 -61Q251 -61 292 -26T363 67T411 195T440 337T453 471T457 575Q457 589 457 603Q457 617 455 631Z" />
<glyph unicode="U" glyph-name="U" horiz-adv-x="595" d="M581 608Q581 601 576 582T564 540T551 496T541 464Q517 358 501 252T479 37V27Q479 16 479 6T480 -16Q480 -29 476 -41T454 -54Q442 -54 436 -35T428 8T425 56T424 87Q424 147 427 206T438 326Q425 301
407 268T365 199T314 130T258 69T196 26T132 9Q94 9 73 31T41 85T28 153T26 216Q26 297 34 380T66 542Q69 553 74 568T86 599T102 626T122 644Q128 647 134 647T148 648Q162 648 174 644T186 621Q186 616 185 612T182 602Q168 557 157 506T138 401T126 295T122
195Q122 183 122 165T127 129T140 100T167 87Q193 87 222 112T282 175T342 262T397 356T442 441T472 502Q479 516 489 535T502 570Q505 582 508 593T516 613T531 627T556 633Q581 633 581 608Z" />
<glyph unicode="V" glyph-name="V" horiz-adv-x="601" d="M0 600Q0 608 5 617T17 636T33 651T50 657Q61 657 72 646T92 627Q108 610 120 592T145 553Q202 458 239 355T300 143Q308 170 321 195T349 245Q375 293 401 339T455 433Q485 485 516 539T580 644Q583 649
587 655T597 668T608 679T620 684Q631 684 641 676T651 656Q651 651 648 647T641 638Q612 602 590 562T544 481Q501 407 460 333T379 183Q371 168 361 150T341 113T323 76T310 42Q306 29 305 18T299 -2T287 -15T260 -20Q248 -20 242 -14T233 1T230 20T227 38Q209
150 169 263T77 478Q65 501 52 525T22 569Q17 574 9 583T0 600Z" />
<glyph unicode="W" glyph-name="W" horiz-adv-x="854" d="M72 325Q72 406 62 487T22 643Q19 651 17 658T14 673Q14 690 26 694T52 699Q75 699 88 686T109 652Q114 640 117 627T124 601Q141 535 151 470T162 336Q162 315 161 294T157 252Q177 299 205 342T261 427Q281
457 301 487T341 547Q352 562 362 577T384 606Q394 617 405 627T433 638Q451 638 468 629T485 599Q485 585 482 573T477 546Q467 490 467 429Q467 359 478 285T513 145Q517 134 522 120T534 92T552 70T578 61Q596 61 609 69T633 91T651 120T666 150Q688 196 707
247T741 352T764 460T773 566Q773 618 762 673Q760 679 759 684T758 696Q758 706 765 710T781 715Q795 715 803 696T816 653T822 604T823 570Q823 507 812 432T777 283T721 143T644 29Q627 10 602 -4T551 -19Q525 -19 505 -5T468 29Q440 65 421 116T391 223T375
335T370 436Q370 453 370 469T374 501Q349 477 320 433T263 340T210 242T168 161Q153 132 138 103T112 44Q108 33 104 21T93 0T77 -16T52 -22Q37 -22 25 -17T13 7Q13 14 15 19T21 31Q53 97 62 174T72 325Z" />
<glyph unicode="X" glyph-name="X" horiz-adv-x="630" d="M393 374Q431 429 471 482T560 581Q574 595 590 605T620 630Q627 637 630 642T633 658Q633 666 630 670T618 675Q600 675 578 662T532 627T485 579T440 526T401 477T374 439Q367 475 356 517T325 597T275
659T198 684Q145 684 105 661T30 600Q19 589 8 576T-3 546Q-3 538 2 531T16 524Q25 524 36 535T64 561T106 586T169 598Q195 598 212 581T242 539T261 488T273 441Q279 414 284 387T295 332Q287 320 269 293T227 231T176 159T125 92T80 42T49 22Q40 22 29 21T9
17T-7 6T-14 -13Q-14 -30 -1 -41T28 -52Q48 -52 73 -34T126 14T182 80T235 151T280 216T313 264Q317 246 325 219T344 162T370 100T401 42T436 -4T473 -28Q478 -30 482 -30Q487 -30 492 -30Q503 -30 517 -28T545 -21T567 -7T577 17Q577 25 573 30T560 35Q554 35
549 32T537 29Q520 29 503 50T471 105T443 179T419 258T402 327T393 374Z" />
<glyph unicode="Y" glyph-name="Y" horiz-adv-x="588" d="M432 367Q430 331 425 285T411 190T390 89T363 -9T328 -96T287 -166Q270 -188 246 -201T194 -215Q170 -215 152 -207T121 -188T97 -170T79 -161Q63 -161 63 -176Q63 -186 72 -198T90 -218Q110 -236 137
-247T192 -258Q238 -258 277 -234T348 -167T406 -70T452 47T488 173T515 295T533 404T545 487Q548 510 550 532T555 578Q557 590 558 602T560 627Q560 641 556 651T535 661Q531 661 527 661Q523 661 519 659Q505 654 498 649T487 636T482 620T478 597Q477 590 474
581T466 561T458 542T450 525Q441 504 423 463T382 374T330 276T273 184T214 117T159 91Q140 91 130 106T115 143T109 187T108 223Q108 323 119 427T156 629Q157 634 158 637T159 646Q159 662 149 668T125 675Q117 675 110 675T95 670Q85 665 77 653T62 625T51
595T43 569Q22 491 17 407T12 243Q12 214 15 175T29 99T64 38T128 13Q162 13 195 31T257 80T314 149T363 227T403 303T432 367Z" />
<glyph unicode="Z" glyph-name="Z" horiz-adv-x="548" d="M451 -15Q466 -15 477 -10Q486 -6 497 7T517 37T533 70T540 96Q540 106 531 110T514 115Q500 115 488 103Q471 85 453 73T408 58Q383 55 359 55T309 53L132 47Q174 98 215 148T297 249Q339 303 378 357T456
469Q471 492 485 514T515 558Q524 570 536 587T548 620Q548 630 542 634T527 638Q436 638 346 638T165 639Q155 639 146 640T126 641Q115 641 107 637Q98 633 87 619T67 587T51 552T44 524Q44 513 53 509T71 505Q79 505 84 508T96 517Q113 534 132 546T176 562Q221
570 267 570Q314 570 359 570Q379 570 400 570T441 564Q443 564 445 563T447 560Q447 553 428 523T378 451T312 361T243 270T184 193T148 146Q141 137 133 126T115 102T96 79T79 62Q68 53 58 43T48 17Q48 2 61 -11T89 -24Q91 -24 92 -24T95 -23Q160 -10 227 -10T361
-9Q375 -9 389 -9T417 -12Q434 -15 451 -15Z" />
<glyph unicode="^" glyph-name="asciicircum" horiz-adv-x="527" d="M417 593H467L291 781H237L60 593H111L264 744L417 593Z" />
<glyph unicode="_" glyph-name="underscore" horiz-adv-x="456" d="M-18 -102H474V-67H-18V-102Z" />
<glyph unicode="`" glyph-name="grave" horiz-adv-x="276" d="M202 432Q208 432 212 436T216 447Q216 452 214 457T209 467Q195 493 180 518T151 569Q144 581 137 595T122 620Q110 635 92 635Q78 635 69 626T60 603Q60 593 67 582Q76 568 87 555T109 529Q126 508
143 488T179 447Q184 442 189 437T202 432Z" />
<glyph unicode="a" glyph-name="a" horiz-adv-x="421" d="M476 162Q476 181 460 181Q449 181 443 173T432 156Q423 142 405 119T366 75T323 37T283 21Q271 21 265 33T255 62T252 95T251 119Q251 145 254 174T266 230Q270 241 277 259T284 288Q284 298 277 301T261
304Q247 304 240 295T227 274Q222 264 213 244T190 199T163 150T133 104T104 70T79 56Q70 56 68 65T66 80Q66 137 89 186T151 276Q173 299 197 316T249 350Q253 352 256 354T259 362Q259 373 248 383T226 393Q182 393 142 363T70 289T19 194T0 105Q0 91 2 73T11
39T30 12T60 1Q80 1 100 16T140 52T174 95T200 133Q199 115 201 89T211 38T234 -4T274 -22Q300 -22 326 -7T376 30T420 77T454 121Q459 129 467 141T476 162Z" />
<glyph unicode="b" glyph-name="b" horiz-adv-x="411" d="M309 320Q316 321 330 323T357 329T381 339T391 355Q391 364 384 370T367 376H364Q334 374 305 370T245 364Q230 363 215 363Q201 363 186 362Q173 361 161 355T148 333Q148 325 155 315T171 305Q216 305
244 286T272 217Q272 197 266 172T248 123T224 78T195 42Q187 34 176 27T152 19Q133 19 123 38T108 83T102 134T101 171Q101 219 109 267T125 363Q140 459 169 552T233 736Q237 746 242 758T251 784T259 811T262 835Q262 846 257 852T241 859Q232 859 223 856T206
849Q194 843 186 838T171 827T161 811T151 790Q137 754 126 717T104 643Q71 528 46 410T20 172Q20 147 23 113T38 49T70 -2T126 -23Q158 -23 188 -6T240 34Q282 75 306 131T331 245Q331 288 309 320Z" />
<glyph unicode="c" glyph-name="c" horiz-adv-x="369" d="M150 -22Q194 -22 235 -8T311 32T375 90T425 161Q428 166 431 172T434 184Q434 200 418 200Q408 200 401 191T388 174Q372 147 351 122T304 77T248 45T185 33Q163 33 148 42T123 66T109 99T105 137Q105
159 113 196T136 269T173 331T223 357Q240 357 243 345T247 318Q247 296 238 279T229 250Q229 240 240 240Q255 240 265 249T280 271T287 298T289 325Q289 365 268 383T208 401Q163 401 128 376T69 314T33 232T21 148Q21 118 28 88T51 34T91 -6T150 -22Z" />
<glyph unicode="d" glyph-name="d" horiz-adv-x="506" d="M255 135Q258 115 264 89T283 40T312 0T356 -17Q388 -17 416 -1T470 38T515 90T552 142Q558 151 564 162T571 184Q571 191 569 198T557 205Q547 205 539 193T526 173Q516 156 499 132T461 87T417 50T372
35Q357 35 348 55T335 101T330 153T329 190Q353 237 382 302T437 436T480 574T497 694Q497 707 495 725T487 761T470 790T441 802Q426 802 412 792T386 772Q365 753 347 720T314 648T287 564T267 477T254 395T250 328Q230 351 199 351Q176 351 151 339T108 312Q64
274 39 218T13 103Q13 90 16 74T27 44T45 19T73 9Q95 9 121 23T172 56T219 98T255 135ZM323 283Q323 305 327 341T338 422T356 513T377 602T402 676T428 724Q431 727 435 731T444 735Q448 735 450 732T453 723T454 713Q454 709 454 707Q454 661 441 603T409 486T366
371T323 273V283ZM247 284Q247 262 247 241Q247 220 249 198Q242 185 221 161T173 113T121 71T79 53Q71 53 70 60T69 73Q69 104 84 141T124 209T181 262T247 284Z" />
<glyph unicode="e" glyph-name="e" horiz-adv-x="321" d="M120 -13Q161 -13 199 1T270 38T330 93T377 158Q382 166 384 172T386 188Q386 193 382 196T372 199Q361 199 354 190T342 173Q327 148 307 123T263 79T211 47T151 34Q116 34 101 53T86 107Q86 126 91 149Q114
157 141 179T191 229T230 288T246 344Q246 370 232 387T190 404Q150 404 117 373T59 298T22 205T9 123Q9 96 15 72T34 29T69 -1T120 -13ZM185 357Q195 357 198 350T202 334Q202 314 191 293T164 251T129 214T94 187Q96 200 105 228T127 285T155 335T185 357Z" />
<glyph unicode="f" glyph-name="f" horiz-adv-x="349" d="M201 229Q214 229 231 229T263 231T288 243T299 271Q299 279 294 281T282 283Q274 283 267 282T251 278Q239 276 227 275T202 274Q193 274 180 274T152 276T125 279T104 284Q121 389 153 489T227 687Q240
716 254 744T282 802Q286 810 288 818T291 837Q291 849 286 858T266 867Q257 867 246 864T224 856T204 845T188 832Q180 823 175 812T165 790Q90 595 53 398T15 -10Q15 -24 15 -48T18 -100T26 -156T40 -208T64 -246T100 -261Q148 -261 179 -231T230 -158T256 -66T264
20Q264 44 261 73T251 131T232 186T201 229ZM89 209Q118 194 137 170T169 117T186 56T192 -6V-9Q192 -29 191 -48T185 -88Q183 -101 177 -124T160 -169T136 -207T104 -223Q90 -223 82 -204T69 -158T63 -108T62 -72Q62 -1 70 69T89 209Z" />
<glyph unicode="g" glyph-name="g" horiz-adv-x="472" d="M311 360Q325 360 337 356T360 346T378 337T391 332Q395 332 398 334T402 342Q402 356 389 366T358 383T322 393T293 397Q239 397 192 377T107 318Q88 299 71 275T41 224T21 169T13 113Q13 95 16 78T28
48T51 27T86 19Q116 19 147 39T207 87T258 147T296 203Q298 183 298 163T299 122Q299 98 295 56T281 -36T258 -136T223 -228T178 -296T120 -322Q106 -322 100 -316T89 -301T80 -286T66 -279Q56 -279 50 -286T44 -303Q44 -308 46 -312T50 -322Q62 -343 81 -353T124
-363Q186 -363 229 -327T301 -234T347 -104T372 40T383 176T386 284Q386 301 377 312T349 323Q328 323 313 306T290 271Q282 251 259 217T208 151T149 95T95 71Q77 71 71 82T64 110Q64 131 72 155T94 202T122 245T152 281Q183 313 223 336T311 360Z" />
<glyph unicode="h" glyph-name="h" horiz-adv-x="544" d="M321 351Q329 351 330 342T331 327V319Q326 265 321 211T315 103Q315 89 315 66T321 20T336 -18T368 -34Q403 -34 438 -15T505 34T561 98T601 161Q603 165 605 168T607 177Q607 185 604 191T592 197Q583
197 577 188T566 172Q556 156 537 131T496 83T451 43T406 26Q396 26 391 30T383 41T380 56T379 71Q379 134 388 196T398 322Q398 336 396 351T387 380T369 403T341 412Q318 412 293 396T243 352T195 292T151 226T115 163T90 113Q92 123 95 147T103 199T112 248T120
277Q132 300 145 323T170 370Q220 469 253 575T287 793Q287 805 285 821T277 852T261 877T233 887Q219 887 206 881T183 864T164 841T149 817Q125 770 108 706T79 572T59 434T44 312Q39 264 34 217T22 122Q19 96 15 71T11 19Q11 11 12 1T17 -19T27 -34T45 -41Q56
-41 65 -35T80 -20T92 -1T102 18Q108 31 123 60T159 127T204 203T250 276T291 330T321 351ZM238 836Q243 836 245 830T248 816T250 800Q250 792 250 789Q250 743 237 686T205 571T161 459T114 364Q115 381 120 422T134 516T154 625T179 729T207 806T238 836Z" />
<glyph unicode="i" glyph-name="i" horiz-adv-x="263" d="M98 119Q98 165 107 208Q110 219 115 233T125 262T133 290T137 314Q137 336 114 336Q82 336 67 318T42 272Q34 246 28 212T21 149Q21 127 24 98T37 42T64 -3T112 -22Q139 -22 167 -5T221 38T270 90T306
138Q309 142 313 148T322 162T330 177T333 189Q333 197 332 204T320 211Q310 211 304 202T292 186Q282 170 264 143T223 91T177 47T133 28Q120 28 113 39T103 65T99 95T98 119ZM138 489Q118 489 105 472T91 436Q91 421 100 410T125 398Q145 398 159 414T173 451Q173
466 164 477T138 489Z" />
<glyph unicode="j" glyph-name="j" horiz-adv-x="230" d="M75 62L57 50Q18 24 -24 -11T-103 -88T-162 -178T-186 -277Q-186 -297 -181 -316T-165 -351T-138 -375T-99 -385Q-67 -385 -38 -369T12 -330Q60 -281 88 -204T130 -39T147 134T151 287Q151 295 151 306Q151
318 149 328T141 347T124 355Q115 355 106 349T88 334T75 315T67 297L61 267Q50 221 29 188T-19 116Q-23 111 -25 106T-28 94Q-28 81 -15 81Q-4 81 10 95T37 127T60 164T74 193Q75 163 75 133T75 72V62ZM70 19Q67 -1 61 -35T44 -109T19 -189T-14 -263T-55 -317T-102
-338Q-113 -338 -121 -333T-134 -319T-141 -300T-143 -280Q-143 -239 -121 -196T-66 -113T4 -39T70 19ZM63 459Q63 441 74 425T105 409Q125 409 136 425T147 459Q147 477 136 492T105 508Q85 508 74 493T63 459Z" />
<glyph unicode="k" glyph-name="k" horiz-adv-x="395" d="M107 143Q122 138 136 131T164 116Q198 99 231 81T299 45Q307 41 314 38T330 35Q337 35 344 37T351 49Q351 63 341 74T320 94Q291 114 261 131T199 166Q180 177 162 187T123 205Q171 251 219 296T320 383Q328
390 337 399T347 420Q347 428 341 435T326 443Q316 443 307 434T290 419Q244 375 198 333T108 245Q118 333 133 418T169 590Q178 628 187 666T211 743Q215 754 218 765T221 787Q221 814 196 814Q161 814 142 791T114 738Q94 672 82 604T58 468Q44 377 36 286T28
103Q28 83 28 59Q28 35 29 11T31 -36T37 -79Q39 -90 44 -98T63 -107Q72 -107 77 -102T85 -90T88 -75T89 -60Q89 -37 91 -15T95 30Q97 59 99 87T107 143Z" />
<glyph unicode="l" glyph-name="l" horiz-adv-x="299" d="M137 -39Q168 -39 199 -20T258 28T308 88T346 144Q351 152 356 161T361 180Q361 187 358 192T347 198Q339 198 335 194T326 184Q319 174 313 164T300 143Q290 129 274 108T238 68T197 35T158 21Q137 21
125 40T106 85T97 137T95 179Q95 188 95 201T99 223Q101 230 106 238T116 252Q128 272 140 290T164 329Q187 370 209 422T249 529T278 639T289 741Q289 755 286 771T277 800T259 822T229 831Q207 831 186 815T146 776T113 727T91 684Q49 587 32 485T15 277Q15 258
16 227T22 161T34 90T56 26T89 -21T137 -39ZM232 783Q238 783 241 779T245 768T247 755Q247 749 247 746Q247 698 232 640T195 524T145 411T93 315Q92 323 92 329Q92 336 92 344Q92 416 109 494T148 642Q152 654 159 678T177 725T202 765T232 783Z" />
<glyph unicode="m" glyph-name="m" horiz-adv-x="793" d="M304 5Q314 5 320 10T331 23Q339 35 353 61T387 121T427 189T469 254T508 301T538 320Q544 320 547 315T552 304T554 290T555 279Q555 233 551 188T546 98Q546 80 547 57T556 13T576 -22T615 -36Q641 -36
671 -19T731 22T785 74T825 121Q828 125 831 130T835 141Q835 148 833 155T821 162Q811 162 803 153T790 136Q780 123 762 103T723 63T681 31T642 17Q632 17 627 23T619 37T616 54T615 71Q615 129 622 186T629 302Q629 316 626 330T615 357T595 377T567 385Q544
385 523 370T483 334T448 290T420 250Q400 221 380 193T341 134Q339 131 335 124T327 116Q325 116 324 119T323 123Q319 138 319 154Q319 171 319 186Q319 215 320 244T321 302Q321 312 320 326T314 353T301 375T279 384Q259 384 235 364T189 315T147 258T117 213Q122
242 129 271T147 327Q151 337 157 351T169 379T179 408T183 432Q183 443 178 449T162 456Q141 456 118 446T84 416Q78 404 69 374T51 305T33 221T18 137T7 64T2 17Q2 8 7 2T22 -5Q36 -5 44 4T58 25Q63 37 77 63T110 122T150 190T192 254T230 301T258 320Q266 320
267 312T268 299Q268 289 268 263Q268 238 268 205Q268 172 270 137T276 73T287 24T304 5Z" />
<glyph unicode="n" glyph-name="n" horiz-adv-x="451" d="M22 -36Q36 -36 46 -26T63 -4Q80 34 98 70T138 142Q156 171 178 203T225 259Q229 263 236 269T248 275Q254 275 255 267T257 255Q257 226 255 198T253 141Q253 122 254 99T263 56T285 23T326 9Q354 9 383
27T439 71T486 126T518 179Q520 183 522 189T525 199Q525 206 521 212T508 219Q499 219 493 210T483 194Q475 178 460 155T426 111T387 74T346 58Q334 58 328 64T318 79T315 98T314 118Q314 153 316 188T318 258Q318 269 317 285T312 317T298 344T274 355Q255 355
230 333T179 282T133 223T100 177Q104 206 110 235T127 292Q136 316 144 344T153 399Q153 415 147 424T123 433Q104 433 87 418T65 385Q60 362 56 338T47 291Q32 219 17 141T1 -11Q1 -21 6 -28T22 -36Z" />
<glyph unicode="o" glyph-name="o" horiz-adv-x="368" d="M25 114Q25 92 30 68T46 25T75 -6T121 -19Q142 -19 162 -12T199 7Q228 26 248 53T281 111T300 175T306 242Q306 265 302 289T287 333T258 366T212 379Q167 379 133 352T74 284T38 198T25 114ZM212 313Q228
313 238 304T254 281T262 251T264 223Q264 200 260 176T248 128T226 85T193 49Q183 41 172 36T147 30Q132 30 122 38T107 59T99 85T97 112Q97 135 104 169T126 235T162 290T212 313Z" />
<glyph unicode="p" glyph-name="p" horiz-adv-x="469" d="M107 65Q108 73 109 92T113 133T119 172T125 195Q133 210 152 236T193 286T239 329T280 348Q299 348 304 331T310 299Q310 274 299 233T267 152T220 83T163 54Q142 54 133 61T114 68Q110 68 107 65ZM261
-17Q305 -17 342 -5T411 30T469 83T518 150Q523 158 525 163T528 179Q528 197 511 197Q502 197 497 188T488 172Q472 143 449 116T398 67T337 33T269 20Q254 20 239 23Q253 25 264 32T286 50Q306 69 322 97T349 157T367 221T374 280Q374 300 370 320T357 355T332
380T292 390Q268 390 243 375T194 338T150 293T117 251Q119 268 121 285T124 320Q124 329 120 339T109 359T93 375T73 381Q60 381 54 372T44 351T41 326T39 303Q35 268 32 233T25 163Q24 153 23 136T19 110Q1 56 -19 -7T-55 -137T-82 -267T-93 -388Q-93 -400 -91
-418T-83 -452T-66 -479T-38 -491Q-25 -491 -15 -485T5 -468T20 -447T31 -425Q48 -385 59 -325T79 -201T94 -74T104 35Q115 19 134 9T175 -7T220 -15T261 -17ZM32 14Q27 -72 19 -157T-4 -328Q-5 -333 -8 -350T-15 -387T-26 -422T-38 -438Q-43 -438 -45 -432T-48
-419T-50 -403Q-50 -396 -50 -393Q-50 -354 -43 -299T-24 -187T2 -76T32 14Z" />
<glyph unicode="q" glyph-name="q" horiz-adv-x="455" d="M228 -65Q216 -117 205 -168T185 -273Q178 -311 173 -348T168 -424Q168 -427 168 -434Q168 -441 169 -447T172 -459T179 -465Q184 -465 188 -458T195 -447Q206 -425 214 -388T226 -310T233 -230T235 -165Q235
-140 234 -115T228 -65ZM112 -396Q112 -295 132 -197T180 -1Q194 46 209 91T238 185Q230 168 214 140T177 83T136 31T97 1Q89 -1 82 -3T66 -5Q48 -5 37 4T19 26T10 56T7 87Q7 165 41 234T132 357Q155 378 184 397T245 416Q258 416 266 411T275 391Q275 382 270
375T258 363T242 353T227 343Q203 326 176 295T124 228T85 155T69 87Q69 83 69 77T71 64T76 54T86 50Q96 50 109 64T138 102T168 152T197 206T222 253T238 283Q246 296 257 309T285 323Q297 323 311 315T326 293Q326 267 316 239T300 185Q290 147 283 108T266 31Q283
26 297 26Q326 26 352 39T400 72T441 118T471 166Q475 174 481 185T498 196Q508 196 511 190T514 175Q514 164 508 153T497 131Q481 104 459 77T410 28T351 -7T286 -21Q281 -21 277 -21Q273 -21 268 -20Q276 -52 277 -86T278 -154Q278 -186 276 -227T269 -311T255
-393T230 -461Q226 -469 219 -479T204 -499T187 -514T166 -521Q149 -521 139 -506T122 -471T114 -430T112 -396Z" />
<glyph unicode="r" glyph-name="r" horiz-adv-x="390" d="M168 213Q168 185 166 158T163 103Q163 85 164 61T173 16T194 -21T233 -37Q257 -37 286 -18T343 29T394 85T430 133Q433 138 435 143T438 154Q438 162 436 168T424 175Q415 175 409 167T397 151Q388 137
369 114T328 67T284 27T244 10Q230 10 228 23T225 47Q225 83 231 118T245 188Q250 210 250 227Q250 260 236 279T203 312T163 337T131 367Q134 391 134 415Q134 423 133 436T128 461T118 483T101 493Q86 493 75 480T57 449T46 412T42 381Q42 358 48 337T68 297Q62
246 37 202T-18 116Q-22 111 -24 106T-27 94Q-27 81 -14 81Q-6 81 1 86T13 96Q30 113 44 135T70 181T91 229T109 275Q131 268 149 253T168 213Z" />
<glyph unicode="s" glyph-name="s" horiz-adv-x="389" d="M160 328Q172 299 188 270T219 212T244 151T254 88Q254 68 249 48T231 11Q249 10 273 26T321 65T365 111T394 149Q399 156 406 165T423 175Q432 175 435 169T438 155Q438 150 435 145T429 134Q401 90 370
55T303 -4T222 -40T123 -53Q94 -53 61 -47T5 -20Q0 -15 -3 -10T-6 2Q-6 17 10 17Q16 17 19 15T28 10Q45 -1 62 -5T99 -9Q139 -9 159 15T180 78Q180 101 174 127T157 179T135 229T110 272Q103 252 93 228T69 179T42 133T12 96Q7 91 1 86T-14 80Q-28 80 -28 94Q-28
102 -25 108T-16 120Q52 205 86 311Q77 337 77 364Q77 379 82 399T96 437T119 468T151 481Q160 481 166 476T176 462T181 444T183 427Q183 402 176 377T160 328Z" />
<glyph unicode="t" glyph-name="t" horiz-adv-x="309" d="M230 474Q236 475 248 478T273 484T297 491T312 497Q318 501 321 504T325 516Q325 529 311 529Q294 529 277 526T243 521Q254 559 259 599T265 678Q265 689 264 704T259 734T245 758T220 768Q185 768 157
736T106 660T69 570T46 497Q30 496 13 490T-5 464Q-5 440 19 440Q30 440 40 443Q30 395 27 346T23 247Q23 228 25 200T32 139T46 75T68 18T101 -24T147 -40Q177 -40 208 -21T267 27T318 86T355 142Q361 152 366 162T371 183Q371 189 367 193T357 198Q349 198 342
190T331 175Q320 157 302 131T261 80T214 39T166 21Q146 21 134 45T115 101T106 164T103 211Q103 215 103 222Q103 229 105 233Q107 238 111 243T120 254Q127 264 134 273T147 294Q172 335 195 381T230 474ZM218 718Q222 718 224 714T227 705T228 695Q228 690 228
688Q228 648 220 601T200 516Q180 511 159 510T118 505Q120 520 129 555T153 626T184 690T218 718ZM112 451Q129 456 147 457T183 463Q178 445 168 422T146 374T120 327T95 291Q98 331 100 371T112 451Z" />
<glyph unicode="u" glyph-name="u" horiz-adv-x="500" d="M19 130Q19 111 20 87T28 41T49 4T91 -11Q119 -11 147 6T202 49T249 102T286 151Q284 141 284 132Q284 123 284 113Q284 97 285 73T294 26T314 -12T350 -28Q379 -28 411 -6T473 47T527 111T563 169Q565
174 567 179T570 190Q570 198 568 203T556 209Q547 209 539 198T525 179Q517 166 498 139T455 85T409 37T371 16Q361 16 355 24T346 44T342 68T341 87Q341 110 344 139T352 197T365 254T381 304Q384 313 387 322T391 342Q391 353 385 356T369 359Q356 359 348 353T333
337T323 316T315 295Q309 280 295 255T263 201T224 141T182 87T140 47T102 31Q88 31 86 46T83 71Q83 97 87 128T98 190T113 252T130 307Q132 315 134 323T137 340Q137 362 114 362Q91 362 73 349T46 313Q32 270 26 223T19 130Z" />
<glyph unicode="v" glyph-name="v" horiz-adv-x="399" d="M0 321Q0 315 5 310T14 300Q32 279 50 243T84 165T111 84T127 17Q130 1 133 -9T157 -20Q175 -20 179 -10T187 14Q189 24 201 48T232 105T271 174T312 243T348 301T372 337Q374 340 376 343T379 351Q379
361 370 367T352 374Q343 374 337 367T326 353Q284 293 250 229T180 102Q174 130 163 163T138 229T106 292T69 343Q63 350 56 355T39 360Q26 360 13 347T0 321Z" />
<glyph unicode="w" glyph-name="w" horiz-adv-x="578" d="M518 236Q518 246 517 265T512 305T500 340T478 355Q467 355 461 346T455 327Q455 311 461 306T473 288Q475 284 476 276T479 258T480 239Q480 230 480 224Q480 209 476 175T464 105T442 43T408 16Q398
16 390 30T376 67T365 117T357 169T353 215T351 244Q351 260 347 275T322 290Q312 290 302 288T285 277Q277 266 268 251T251 222Q208 159 156 107Q152 103 145 96T129 82T113 70T98 65Q93 65 93 70T92 79Q92 107 98 138T114 202T136 264T161 318Q163 323 165 328T168
338Q168 351 158 355T136 360Q123 360 111 355T91 339Q79 321 66 288T41 218T22 146T14 90Q14 76 15 60T22 31T38 10T68 1Q92 1 122 23T181 76T236 138T277 188Q278 170 281 142T289 83T304 27T326 -12Q338 -24 353 -31T385 -39Q427 -39 453 -8T494 68T513 158T518
236Z" />
<glyph unicode="x" glyph-name="x" horiz-adv-x="426" d="M244 185Q270 225 296 264T346 345Q349 350 351 355T353 366Q353 372 349 377T338 382Q332 382 328 379T321 370Q298 335 276 299T229 228Q224 244 218 259T205 289Q200 300 195 312T182 334T164 350T139
356Q122 356 104 333T70 280T41 219T21 174Q14 162 14 151Q14 136 30 136Q40 136 54 161T82 216T109 271T128 296Q133 296 136 286T141 272Q149 242 158 213T175 154Q169 145 150 120T112 66T77 13T61 -19Q61 -28 69 -34T86 -40Q97 -40 103 -31L193 108Q200 92
209 73T231 38T260 11T298 0Q328 0 358 19T414 65T461 124T494 180Q496 184 498 189T501 200Q501 207 498 213T486 220Q476 220 469 211T458 193Q449 175 434 153T399 111T358 78T313 64Q302 64 291 79T271 115T254 156T244 185Z" />
<glyph unicode="y" glyph-name="y" horiz-adv-x="455" d="M117 -414Q141 -414 163 -405T204 -382T239 -350T268 -312Q305 -255 325 -189T356 -54T369 86T372 223Q372 231 372 248Q372 265 371 283T366 317T356 337Q346 344 336 344Q324 344 316 334T300 316Q264
270 230 224T154 135Q150 131 141 122T121 104T100 88T84 81Q76 81 75 89T74 102Q74 116 78 137T89 181T103 225T116 259Q121 271 129 288T137 319Q137 336 124 348T94 360Q80 360 71 352T56 332Q51 323 49 314T43 294Q29 251 19 205T8 114Q8 101 10 87T18 61T34
42T62 34Q87 34 121 58T190 116T252 184T293 240Q296 162 296 85Q296 71 296 56Q296 42 295 28Q256 3 211 -34T126 -114T60 -207T33 -306Q33 -326 37 -345T52 -380T78 -404T117 -414ZM290 -15Q287 -48 279 -88T260 -170T233 -248T197 -312Q190 -321 181 -331T162
-351T140 -366T116 -372Q104 -372 97 -366T85 -350T79 -329T77 -308Q77 -264 98 -222T152 -143T221 -73T290 -15Z" />
<glyph unicode="z" glyph-name="z" horiz-adv-x="377" d="M19 117Q30 117 43 137T70 183T94 234T107 269Q110 277 111 286T116 303Q133 311 155 316T195 322Q212 322 224 315T237 288Q237 266 226 242T199 196T163 153T129 119Q123 114 117 107T110 91Q110 80
118 72T134 57Q155 38 174 17T202 -32Q162 -52 122 -82T48 -151T-5 -233T-26 -326Q-26 -368 0 -391T68 -414Q121 -414 163 -385T235 -312T279 -216T295 -117Q295 -86 290 -56T274 3T244 55T198 97Q213 117 233 139T272 186T304 237T317 289Q317 329 294 349T233
369Q203 369 174 360T119 338Q118 362 105 381T66 400Q41 400 24 386T7 345Q7 331 13 322T30 308T53 301T76 300H80Q79 291 71 272T53 231T32 190T15 162Q10 156 7 149T3 134Q3 127 7 122T19 117ZM84 330Q80 329 73 329Q63 329 52 333T40 349Q40 371 61 371Q76
371 80 358T84 334V330ZM213 -85Q216 -102 216 -118Q216 -141 211 -168T197 -223T175 -275T147 -317Q131 -335 107 -353T56 -371Q33 -371 24 -355T15 -319Q15 -277 33 -242T79 -177T143 -124T213 -85Z" />
<glyph unicode="|" glyph-name="bar" horiz-adv-x="161" d="M60 -78H101V709H60V-78Z" />
<glyph unicode="~" glyph-name="asciitilde" horiz-adv-x="377" d="M243 587Q262 587 278 593T317 612V650Q285 631 271 625T243 619Q233 619 219 625Q199 633 177 647T133 661Q114 661 99 654T60 634V597Q92 616 106 622T133 629Q146 629 160 623T188 608T216
594T243 587Z" />
</font>
</defs>
</svg>
