<?xml version="1.0" standalone="no"?> <!DOCTYPE svg PUBLIC "-//W3C//DTD SVG 1.0//EN" "http://www.w3.org/TR/2001/REC-SVG-20010904/DTD/svg10.dtd" > <svg xmlns="http://www.w3.org/2000/svg" width="100%" height="100%">
<defs >
<font id="neutraface2displaythin" horiz-adv-x="828" ><font-face
    font-family="Neutraface 2 Display Thin"
    units-per-em="2048"
    panose-1="2 0 6 6 2 0 0 2 0 4"
    ascent="1597"
    descent="-450"
    alphabetic="0" />
<missing-glyph horiz-adv-x="1024" />
<glyph unicode=" " glyph-name="space" horiz-adv-x="403" />
<glyph unicode="!" glyph-name="exclam" horiz-adv-x="331" d="M158 285V1393H178V285H158ZM166 -4Q158 -4 151 2T143 18Q143 27 150 34T166 41Q175 41 181 35T188 18Q188 -4 166 -4Z" />
<glyph unicode="&quot;" glyph-name="quotedbl" horiz-adv-x="374" d="M246 1075V1393H266V1075H246ZM109 1075V1393H129V1075H109Z" />
<glyph unicode="#" glyph-name="numbersign" horiz-adv-x="782" d="M582 770H741V752H578L502 446H680V428H498L432 170H412L477 428H223L158 170H137L203 428H41V446H207L283 752H102V770H287L350 1022H371L307 770H561L625 1022H645L582 770ZM557 752H303L227
446H481L557 752Z" />
<glyph unicode="$" glyph-name="dollar" horiz-adv-x="778" d="M377 -16Q264 -13 176 38T37 170L53 180Q101 104 185 55T377 2V532L342 543Q284 561 243 580T165 629T109 702T90 801Q90 909 172 974T377 1040V1233H397V1040Q559 1032 670 899L655 887Q550 1014
397 1022V547L453 530Q591 487 658 424T725 250Q725 136 636 61T397 -16V-238H377V-16ZM377 1022Q265 1022 188 961T111 801Q111 701 169 651T346 563L377 553V1022ZM397 2Q539 3 622 73T705 250Q705 355 644 412T449 510L397 526V2Z" />
<glyph unicode="%" glyph-name="percent" horiz-adv-x="1034" d="M821 1024H846L213 0H188L821 1024ZM285 582Q188 582 120 647T51 811T119 974T285 1040Q380 1040 448 975T516 811T448 648T285 582ZM285 600Q371 600 433 661T496 811T434 961T285 1022Q197 1022
135 962T72 811T134 661T285 600ZM752 -16Q655 -16 587 49T518 213T586 376T752 442Q847 442 915 377T983 213T915 50T752 -16ZM752 2Q838 2 900 63T963 213T901 363T752 424Q664 424 602 364T539 213T601 63T752 2Z" />
<glyph unicode="&amp;" glyph-name="ampersand" horiz-adv-x="1228" d="M475 825L426 883Q317 1010 317 1147Q317 1260 390 1334T569 1409Q673 1409 739 1342T805 1165Q805 1121 790 1081T751 1010T688 946T613 891T524 836L502 821L942 301Q1032 489 1032 770H1053Q1053
484 956 285L1196 0H1169L946 266Q871 128 752 56T479 -16Q300 -16 189 83T78 354Q78 402 89 444T115 520T162 590T219 650T295 709T378 765T475 825ZM932 283L485 813Q424 775 390 754T308 700T235 642T179 583T134 516T109 442T98 354Q98 190 202 96T479 2Q630
2 746 74T932 283ZM492 836L516 850Q569 882 601 903T673 957T733 1017T769 1084T784 1165Q784 1266 725 1328T569 1391Q470 1391 404 1322T338 1147Q338 1017 442 893L492 836Z" />
<glyph unicode="&apos;" glyph-name="quotesingle" horiz-adv-x="237" d="M109 1075V1393H129V1075H109Z" />
<glyph unicode="(" glyph-name="parenleft" horiz-adv-x="477" d="M414 -279Q82 83 82 596Q82 1110 414 1470L428 1458Q102 1105 102 596T428 -266L414 -279Z" />
<glyph unicode=")" glyph-name="parenright" horiz-adv-x="477" d="M63 -279L49 -266Q375 87 375 596T49 1458L63 1470Q395 1110 395 596Q395 83 63 -279Z" />
<glyph unicode="*" glyph-name="asterisk" horiz-adv-x="550" d="M285 1176L469 1280L479 1264L293 1159L479 1055L469 1038L285 1143V926H264V1143L80 1038L70 1055L256 1159L70 1264L80 1280L264 1176V1393H285V1176Z" />
<glyph unicode="+" glyph-name="plus" horiz-adv-x="618" d="M299 508V758H319V508H549V489H319V240H299V489H70V508H299Z" />
<glyph unicode="," glyph-name="comma" horiz-adv-x="217" d="M82 -113L102 -4Q86 1 86 18Q86 27 93 34T109 41T124 35T131 18L125 -6L96 -113H82Z" />
<glyph unicode="-" glyph-name="hyphen" horiz-adv-x="356" d="M63 334V352H293V334H63Z" />
<glyph unicode="." glyph-name="period" horiz-adv-x="217" d="M109 -4Q100 -4 93 2T86 18Q86 27 93 34T109 41T124 35T131 18Q131 -4 109 -4Z" />
<glyph unicode="/" glyph-name="slash" horiz-adv-x="698" d="M-14 -262L621 1454H641L6 -262H-14Z" />
<glyph unicode="0" glyph-name="zero" horiz-adv-x="958" d="M479 2Q658 2 767 146T877 512Q877 735 768 878T479 1022Q301 1022 192 879T82 512Q82 290 191 146T479 2ZM667 -16T479 -16T176 133T61 512Q61 744 176 892T479 1040T782 892T897 512Q897 282 782 133Z" />
<glyph unicode="1" glyph-name="one" horiz-adv-x="391" d="M31 1024H238V0H217V1006H31V1024Z" />
<glyph unicode="2" glyph-name="two" horiz-adv-x="780" d="M86 819Q123 920 207 980T401 1040Q455 1040 504 1024T594 976T661 889T686 762Q686 705 661 645T591 528T503 423T408 325Q392 310 385 303L98 18H723V0H57V4L371 315Q376 320 410 354T456 400T498
445T543 496T580 545T616 599T641 651T660 707T666 762Q666 829 643 880T582 962T497 1007T401 1022Q296 1022 218 967T102 813L86 819Z" />
<glyph unicode="3" glyph-name="three" horiz-adv-x="835" d="M135 1024H715V1020L332 612Q382 627 442 627Q588 627 681 541T774 319Q774 164 671 74T410 -16Q289 -16 191 44T45 209L63 217Q106 118 200 60T410 2Q557 2 655 87T754 319Q754 445 668 526T442 608Q349
608 276 573L274 578L676 1006H135V1024Z" />
<glyph unicode="4" glyph-name="four" horiz-adv-x="862" d="M649 281H41V285L666 1044H670V299H809V281H670V0H649V281ZM649 299V995L78 299H649Z" />
<glyph unicode="5" glyph-name="five" horiz-adv-x="796" d="M61 176Q106 97 186 50T381 2Q526 2 620 91T715 322Q715 466 627 553T387 641Q305 641 244 618T119 545L115 547V1024H653V1006H135V578Q241 659 387 659Q544 659 639 567T735 322Q735 171 636 78T381
-16Q148 -16 45 168L61 176Z" />
<glyph unicode="6" glyph-name="six" horiz-adv-x="798" d="M133 506Q179 570 254 606T410 643Q546 643 642 546T739 311Q739 175 641 80T399 -16Q257 -16 160 78T63 311Q63 448 168 600L461 1024H483L182 588Q141 522 133 506ZM84 311Q84 179 174 91T399 2Q535
2 627 91T719 311T629 533T410 625Q328 625 255 587T135 483Q84 412 84 311Z" />
<glyph unicode="7" glyph-name="seven" horiz-adv-x="778" d="M49 1024H729V1020L201 0H180L698 1006H49V1024Z" />
<glyph unicode="8" glyph-name="eight" horiz-adv-x="815" d="M408 -16Q255 -16 156 68T57 281Q57 394 133 471T336 567Q242 588 185 651T127 801Q127 902 206 971T408 1040T609 971T688 801Q688 714 631 651T479 567Q607 549 682 472T758 281Q758 153 660 69T408
-16ZM264 2T408 2T644 81T737 281Q737 402 645 479T408 557T171 480T78 281Q78 162 171 82ZM408 575Q516 575 592 640T668 801Q668 893 595 957T408 1022Q296 1022 222 958T147 801Q147 706 224 641T408 575Z" />
<glyph unicode="9" glyph-name="nine" horiz-adv-x="798" d="M666 518Q620 454 545 418T389 381Q251 381 155 477T59 713Q59 849 157 944T399 1040Q541 1040 638 946T735 713Q735 577 631 424L338 0H315L616 436Q649 485 666 518ZM715 713Q715 845 624 933T399
1022Q264 1022 172 933T80 713T169 491T389 399Q471 399 544 437T664 541Q715 614 715 713Z" />
<glyph unicode=":" glyph-name="colon" horiz-adv-x="229" d="M115 338Q106 338 99 344T92 360Q92 369 99 376T115 383T130 377T137 360Q137 338 115 338ZM115 -4Q106 -4 99 2T92 18Q92 27 99 34T115 41T130 35T137 18Q137 -4 115 -4Z" />
<glyph unicode=";" glyph-name="semicolon" horiz-adv-x="229" d="M115 338Q106 338 99 344T92 360Q92 369 99 376T115 383T130 377T137 360Q137 338 115 338ZM88 -113L109 -4Q92 1 92 18Q92 27 99 34T115 41T130 35T137 18L131 -6L102 -113H88Z" />
<glyph unicode="&lt;" glyph-name="less" horiz-adv-x="563" d="M492 270L55 498V502L492 725V705L86 498L492 291V270Z" />
<glyph unicode="=" glyph-name="equal" horiz-adv-x="618" d="M70 639H549V621H70V639ZM70 434H549V416H70V434Z" />
<glyph unicode="&gt;" glyph-name="greater" horiz-adv-x="563" d="M72 725L508 498V494L72 270V291L477 498L72 705V725Z" />
<glyph unicode="?" glyph-name="question" horiz-adv-x="831" d="M39 1198Q82 1292 172 1349T385 1407Q545 1407 650 1306T756 1042Q756 889 649 785T377 680H373V285H352V698H377Q533 698 634 797T735 1042Q735 1195 637 1292T385 1389Q268 1389 184 1335T57
1190L39 1198ZM360 -4Q352 -4 345 2T338 18Q338 27 345 34T360 41Q370 41 376 35T383 18Q383 -4 360 -4Z" />
<glyph unicode="@" glyph-name="at" horiz-adv-x="1415" d="M963 420V614H983V172Q983 90 1019 41T1135 -8Q1333 -8 1333 340Q1333 465 1286 580T1156 779T957 914T707 965Q534 965 390 877T164 640T82 315Q82 139 164 -8T390 -240T707 -326Q866 -326 1014 -252L1022
-268Q886 -344 707 -344Q530 -344 382 -257T147 -18T61 315T147 649T382 893T707 983Q887 983 1036 896T1270 661T1354 340Q1354 157 1298 65T1135 -27Q1048 -27 1006 28T963 172V195Q934 97 859 41T688 -16Q561 -16 477 77T393 307T477 537T688 631Q783 631 858
573T963 420ZM414 435T414 307T491 91T688 2Q804 2 883 91T963 307T884 523T688 612Q568 612 491 524Z" />
<glyph unicode="A" glyph-name="A" horiz-adv-x="1216" d="M1159 0L975 459H242L59 0H37L608 1427H612L1180 0H1159ZM610 1378L250 477H969L610 1378Z" />
<glyph unicode="B" glyph-name="B" horiz-adv-x="1163" d="M748 723Q905 703 989 607T1073 362Q1073 198 967 99T662 0H164V1393H625Q804 1393 900 1295T997 1042Q997 918 933 834T748 723ZM184 731H659Q808 731 892 816T977 1042Q977 1188 887 1281T625 1374H184V731ZM184
713V18H662Q851 18 952 112T1053 362Q1053 522 950 617T659 713H184Z" />
<glyph unicode="C" glyph-name="C" horiz-adv-x="1392" d="M1337 252Q1148 -14 770 -14Q576 -14 414 77T157 331T61 696Q61 898 155 1061T409 1316T762 1407Q941 1407 1068 1346T1300 1155L1284 1143Q1185 1268 1060 1328T762 1389Q622 1389 497 1338T281 1196T136
976T82 696Q82 497 175 338T424 91T770 4Q1138 4 1321 264L1337 252Z" />
<glyph unicode="D" glyph-name="D" horiz-adv-x="1286" d="M504 1393Q841 1393 1033 1202T1225 696T1034 191T504 0H164V1393H504ZM184 18H504Q834 18 1019 202T1204 696T1019 1190T504 1374H184V18Z" />
<glyph unicode="E" glyph-name="E" horiz-adv-x="1026" d="M184 696V18H958V0H164V1393H930V1374H184V715H850V696H184Z" />
<glyph unicode="F" glyph-name="F" horiz-adv-x="993" d="M184 674V0H164V1393H924V1374H184V692H842V674H184Z" />
<glyph unicode="G" glyph-name="G" horiz-adv-x="1411" d="M836 610H1315V172Q1214 83 1085 34T776 -16Q581 -16 418 75T158 331T61 696T156 1061T411 1317T762 1409Q1088 1409 1282 1192L1268 1180Q1080 1391 762 1391Q578 1391 423 1302T175 1052T82 696Q82
549 137 420T285 199T507 55T776 2Q1091 2 1294 180V592H836V610Z" />
<glyph unicode="H" glyph-name="H" horiz-adv-x="1224" d="M1040 707V1393H1061V0H1040V688H184V0H164V1393H184V707H1040Z" />
<glyph unicode="I" glyph-name="I" horiz-adv-x="372" d="M176 0V1393H197V0H176Z" />
<glyph unicode="J" glyph-name="J" horiz-adv-x="849" d="M698 1393V338Q698 168 606 76T360 -16Q141 -16 43 172L59 182Q108 93 179 48T360 2Q504 2 591 89T678 338V1393H698Z" />
<glyph unicode="K" glyph-name="K" horiz-adv-x="1130" d="M1030 1393L467 754L1081 0H1057L453 739L184 434V0H164V1393H184V461L1006 1393H1030Z" />
<glyph unicode="L" glyph-name="L" horiz-adv-x="952" d="M903 0H164V1393H184V20H903V0Z" />
<glyph unicode="M" glyph-name="M" horiz-adv-x="1581" d="M1397 0V1370L791 489L184 1370V0H164V1427H168L791 524L1413 1427H1417V0H1397Z" />
<glyph unicode="N" glyph-name="N" horiz-adv-x="1349" d="M164 0V1427H168L1165 23V1393H1186V-35H1182L184 1370V0H164Z" />
<glyph unicode="O" glyph-name="O" horiz-adv-x="1544" d="M577 1407T772 1407T1129 1316T1387 1062T1483 696Q1483 495 1388 332T1130 77T772 -14T415 77T157 331T61 696Q61 898 156 1061T414 1316ZM630 4T772 4T1040 55T1260 197T1407 417T1462 696Q1462 846
1408 976T1260 1196T1041 1337T772 1389T504 1338T284 1196T137 976T82 696Q82 547 136 417T284 197T503 56Z" />
<glyph unicode="P" glyph-name="P" horiz-adv-x="1044" d="M543 618H184V0H164V1393H541Q750 1393 861 1287T973 1008Q973 834 862 726T543 618ZM184 1374V637H543Q742 637 847 740T952 1008Q952 1172 847 1273T541 1374H184Z" />
<glyph unicode="Q" glyph-name="Q" horiz-adv-x="1544" d="M782 -14V-270H762V-14Q569 -12 409 79T155 334T61 696Q61 898 156 1061T414 1316T772 1407T1129 1316T1387 1062T1483 696Q1483 497 1389 334T1135 80T782 -14ZM762 4V319H782V4Q922 6 1047 58T1263
200T1408 419T1462 696Q1462 846 1408 976T1260 1196T1041 1337T772 1389T504 1338T284 1196T137 976T82 696Q82 548 135 419T280 201T497 59T762 4Z" />
<glyph unicode="R" glyph-name="R" horiz-adv-x="1097" d="M551 627H184V0H164V1393H549Q759 1393 870 1289T981 1012Q981 858 894 756T637 631L1038 0H1016L616 629Q596 627 551 627ZM184 1374V645H551Q751 645 856 746T961 1012Q961 1175 855 1274T549 1374H184Z" />
<glyph unicode="S" glyph-name="S" horiz-adv-x="985" d="M51 256Q201 4 481 4Q662 4 765 94T868 334Q868 402 850 453T788 549T688 630T539 713L428 768Q321 822 263 866T172 974T139 1124Q139 1253 230 1331T457 1409Q527 1409 581 1395T675 1351T740 1293T793
1221L776 1210Q751 1251 727 1279T665 1335T575 1377T457 1391Q331 1391 246 1318T160 1124Q160 1061 176 1014T229 926T313 855T438 784L549 729Q644 681 702 643T806 559T870 459T889 334Q889 178 780 81T481 -16Q190 -16 35 246L51 256Z" />
<glyph unicode="T" glyph-name="T" horiz-adv-x="962" d="M471 1374H27V1393H936V1374H492V0H471V1374Z" />
<glyph unicode="U" glyph-name="U" horiz-adv-x="1204" d="M1053 1393V436Q1053 226 927 106T600 -14T276 106T152 436V1393H172V436Q172 231 289 118T600 4T912 117T1032 436V1393H1053Z" />
<glyph unicode="V" glyph-name="V" horiz-adv-x="1191" d="M1167 1393L596 -35H592L25 1393H45L594 16L1145 1393H1167Z" />
<glyph unicode="W" glyph-name="W" horiz-adv-x="1845" d="M1806 1393L1370 -35H1366L926 1364L481 -35H477L39 1393H59L479 29L924 1427H928L1368 31L1784 1393H1806Z" />
<glyph unicode="X" glyph-name="X" horiz-adv-x="1150" d="M563 750L137 1393H160L575 766L991 1393H1014L588 750L1085 0H1063L575 733L88 0H66L563 750Z" />
<glyph unicode="Y" glyph-name="Y" horiz-adv-x="1040" d="M512 549L25 1393H47L522 571L993 1393H1016L532 549V0H512V549Z" />
<glyph unicode="Z" glyph-name="Z" horiz-adv-x="1056" d="M991 0H59V4L940 1374H180V1393H973V1389L92 18H991V0Z" />
<glyph unicode="[" glyph-name="bracketleft" horiz-adv-x="460" d="M391 -264H154V1454H391V1436H174V-246H391V-264Z" />
<glyph unicode="\" glyph-name="backslash" horiz-adv-x="698" d="M713 -262H692L57 1454H78L713 -262Z" />
<glyph unicode="]" glyph-name="bracketright" horiz-adv-x="460" d="M70 1454H307V-264H70V-246H287V1436H70V1454Z" />
<glyph unicode="^" glyph-name="asciicircum" horiz-adv-x="675" d="M621 977H598L338 1391L78 977H55L336 1421H340L621 977Z" />
<glyph unicode="_" glyph-name="underscore" horiz-adv-x="491" d="M-4 -242V-223H496V-242H-4Z" />
<glyph unicode="`" glyph-name="grave" horiz-adv-x="1024" d="M403 1061L532 791H512L381 1061H403Z" />
<glyph unicode="a" glyph-name="a" horiz-adv-x="710" d="M575 360V416Q575 639 356 639Q212 639 131 522L117 532Q154 590 215 623T356 657Q468 657 532 599T596 416V0H575V133Q549 63 483 25T319 -14Q209 -14 140 37T70 176Q70 240 103 282T187 342T301 360H575ZM575
217V342H301Q210 342 150 302T90 176Q90 97 154 51T319 4Q432 4 503 63T575 217Z" />
<glyph unicode="b" glyph-name="b" horiz-adv-x="827" d="M139 209V0H119V1454H139V434Q170 534 252 595T442 657Q579 657 674 561T770 322T675 83T442 -14Q335 -14 253 47T139 209ZM750 322Q750 458 660 548T442 639Q315 639 227 549T139 322T227 95T442 4Q570
4 660 94T750 322Z" />
<glyph unicode="c" glyph-name="c" horiz-adv-x="694" d="M649 106Q605 48 535 17T381 -14Q244 -14 151 82T57 322Q57 465 150 561T381 657Q535 657 627 545L612 532Q530 639 381 639Q253 639 166 548T78 322T165 96T381 4Q459 4 525 34T635 119L649 106Z" />
<glyph unicode="d" glyph-name="d" horiz-adv-x="827" d="M688 209Q657 109 575 48T385 -14Q249 -14 153 82T57 322T153 561T385 657Q492 657 574 596T688 434V1454H709V0H688V209ZM78 322Q78 185 167 95T385 4Q512 4 600 94T688 322T600 549T385 639Q257 639
168 549T78 322Z" />
<glyph unicode="e" glyph-name="e" horiz-adv-x="763" d="M78 326V322Q78 183 168 94T399 4Q568 4 657 127L674 115Q577 -14 399 -14Q250 -14 154 81T57 322Q57 465 153 561T385 657Q526 657 613 568T707 326H78ZM80 344H686Q675 478 594 558T385 639Q263 639
175 555T80 344Z" />
<glyph unicode="f" glyph-name="f" horiz-adv-x="438" d="M147 623H55V641H147V1280Q147 1371 188 1415T293 1460Q374 1460 426 1386L410 1376Q367 1442 293 1442Q238 1442 203 1403T168 1280V641H383V623H168V0H147V623Z" />
<glyph unicode="g" glyph-name="g" horiz-adv-x="827" d="M709 -145Q709 -288 624 -367T395 -446Q169 -446 80 -256L98 -248Q188 -428 395 -428Q527 -428 607 -353T688 -145V209Q657 109 575 48T385 -14Q249 -14 153 82T57 322T153 561T385 657Q492 657 574 596T688
434V641H709V-145ZM78 322Q78 185 167 95T385 4Q512 4 600 94T688 322T600 549T385 639Q257 639 168 549T78 322Z" />
<glyph unicode="h" glyph-name="h" horiz-adv-x="753" d="M139 479Q165 567 234 612T379 657Q498 657 568 591T639 393V0H618V393Q618 517 554 578T379 639Q340 639 300 624T223 579T163 498T139 383V0H119V1454H139V479Z" />
<glyph unicode="i" glyph-name="i" horiz-adv-x="270" d="M142 870T135 870T122 876T115 891Q115 898 121 904T135 911Q143 911 149 905T156 891T149 877ZM125 0V641H145V0H125Z" />
<glyph unicode="j" glyph-name="j" horiz-adv-x="270" d="M142 870T135 870T122 876T115 891Q115 898 121 904T135 911Q143 911 149 905T156 891T149 877ZM145 641V-279Q145 -359 106 -401T-2 -444Q-56 -444 -92 -412L-80 -395Q-45 -426 -2 -426Q57 -426 91 -388T125
-279V641H145Z" />
<glyph unicode="k" glyph-name="k" horiz-adv-x="659" d="M596 0L307 356L139 178V0H119V1454H139V203L553 641H575L319 371L621 0H596Z" />
<glyph unicode="l" glyph-name="l" horiz-adv-x="270" d="M125 0V1454H145V0H125Z" />
<glyph unicode="m" glyph-name="m" horiz-adv-x="1150" d="M580 483Q598 566 666 611T815 657Q915 657 975 594T1036 403V0H1016V403Q1016 519 961 579T815 639T657 582T588 418V0H567V418Q567 529 512 584T367 639Q277 639 208 577T139 403V0H119V641H139V502Q167
578 230 617T367 657Q451 657 507 614T580 483Z" />
<glyph unicode="n" glyph-name="n" horiz-adv-x="753" d="M139 479Q165 567 234 612T379 657Q498 657 568 591T639 393V0H618V393Q618 517 554 578T379 639Q340 639 300 624T223 579T163 498T139 383V0H119V641H139V479Z" />
<glyph unicode="o" glyph-name="o" horiz-adv-x="786" d="M57 322Q57 465 154 561T393 657T631 561T729 322Q729 178 632 82T393 -14T155 82T57 322ZM709 322Q709 458 617 548T393 639T170 549T78 322Q78 185 169 95T393 4T617 94T709 322Z" />
<glyph unicode="p" glyph-name="p" horiz-adv-x="827" d="M139 209V-434H119V641H139V434Q170 534 252 595T442 657Q579 657 674 561T770 322T675 83T442 -14Q335 -14 253 47T139 209ZM750 322Q750 458 660 548T442 639Q315 639 227 549T139 322T227 95T442 4Q570
4 660 94T750 322Z" />
<glyph unicode="q" glyph-name="q" horiz-adv-x="827" d="M688 209Q657 109 575 48T385 -14Q249 -14 153 82T57 322T153 561T385 657Q492 657 574 596T688 434V641H709V-434H688V209ZM78 322Q78 185 167 95T385 4Q512 4 600 94T688 322T600 549T385 639Q257 639
168 549T78 322Z" />
<glyph unicode="r" glyph-name="r" horiz-adv-x="458" d="M135 498Q161 579 215 618T332 657Q391 657 436 627L426 610Q383 639 332 639Q298 639 265 625T202 581T154 500T135 381V0H115V641H135V498Z" />
<glyph unicode="s" glyph-name="s" horiz-adv-x="591" d="M449 543Q404 639 283 639Q210 639 169 601T127 508Q127 472 139 447T180 403T232 374T303 348Q405 314 438 292Q510 246 510 156Q510 79 452 33T303 -14Q135 -14 63 137L82 145Q148 4 303 4Q387 4 438
45T489 156Q489 176 486 192T475 223T461 247T440 267T418 283T390 297T362 308T330 319T299 330Q258 344 239 351T188 375T143 407T118 449T106 508Q106 570 154 613T283 657Q415 657 467 551L449 543Z" />
<glyph unicode="t" glyph-name="t" horiz-adv-x="448" d="M147 623H55V641H147V899H168V641H365V623H168V119Q168 66 199 35T285 4Q348 4 383 47L397 35Q358 -14 285 -14Q222 -14 185 22T147 119V623Z" />
<glyph unicode="u" glyph-name="u" horiz-adv-x="753" d="M614 162Q589 74 520 30T375 -14Q255 -14 185 51T115 248V641H135V248Q135 124 199 64T375 4Q414 4 454 19T531 63T591 144T614 258V641H635V0H614V162Z" />
<glyph unicode="v" glyph-name="v" horiz-adv-x="661" d="M629 641L334 -27H330L33 641H53L332 12L608 641H629Z" />
<glyph unicode="w" glyph-name="w" horiz-adv-x="993" d="M958 641L723 -25H719L500 612L276 -25H272L33 641H53L274 27L498 666H502L721 27L938 641H958Z" />
<glyph unicode="x" glyph-name="x" horiz-adv-x="610" d="M293 334L70 641H94L305 350L516 641H541L317 334L561 0H537L305 317L74 0H49L293 334Z" />
<glyph unicode="y" glyph-name="y" horiz-adv-x="659" d="M330 4L33 641H53L340 29L606 641H627L160 -434H139L330 4Z" />
<glyph unicode="z" glyph-name="z" horiz-adv-x="587" d="M543 0H37V4L487 623H96V641H524V637L74 18H543V0Z" />
<glyph unicode="{" glyph-name="braceleft" horiz-adv-x="573" d="M53 596H119Q256 596 256 748V1157Q256 1245 274 1305T325 1397T396 1441T485 1454H504V1436H485Q438 1436 404 1425T339 1384T292 1298T276 1157V748Q276 613 168 588Q276 565 276 428V35Q276
-49 292 -106T338 -192T403 -232T485 -244H504V-262H485Q435 -262 397 -250T325 -206T274 -114T256 35V428Q256 580 119 580H53V596Z" />
<glyph unicode="|" glyph-name="bar" horiz-adv-x="319" d="M150 -262V1454H170V-262H150Z" />
<glyph unicode="}" glyph-name="braceright" horiz-adv-x="573" d="M520 596V580H455Q317 580 317 428V35Q317 -53 299 -113T248 -205T177 -249T88 -262H70V-244H88Q135 -244 170 -233T235 -192T281 -106T297 35V428Q297 565 406 588Q355 600 326 636T297 748V1157Q297
1241 281 1298T235 1384T170 1424T88 1436H70V1454H88Q138 1454 176 1442T248 1398T299 1306T317 1157V748Q317 596 455 596H520Z" />
<glyph unicode="~" glyph-name="asciitilde" horiz-adv-x="606" d="M84 487Q95 532 125 559T199 586Q214 586 230 582T254 574T282 559T305 545Q369 508 408 508Q483 508 506 590L522 586Q511 542 481 516T408 489Q368 489 297 528Q293 530 279 538T259 550T242
558T220 565T199 567Q126 567 100 483L84 487Z" />
</font>
</defs>
</svg>
