<?xml version="1.0" standalone="no"?> <!DOCTYPE svg PUBLIC "-//W3C//DTD SVG 1.0//EN" "http://www.w3.org/TR/2001/REC-SVG-20010904/DTD/svg10.dtd" > <svg xmlns="http://www.w3.org/2000/svg" width="100%" height="100%">
<defs >
<font id="neutra2displaytitling" horiz-adv-x="1212" ><font-face
    font-family="Neutraface 2 Display Titling"
    units-per-em="2048"
    panose-1="2 0 6 0 4 0 0 2 0 4"
    ascent="1597"
    descent="-450"
    alphabetic="0" />
<missing-glyph horiz-adv-x="1024" />
<glyph unicode=" " glyph-name="space" horiz-adv-x="495" />
<glyph unicode="!" glyph-name="exclam" horiz-adv-x="618" d="M158 471L117 1393H502L461 471H158ZM392 -20T309 -20T165 36T104 180T165 324T309 381T453 324T514 180T453 37Z" />
<glyph unicode="&quot;" glyph-name="quotedbl" horiz-adv-x="872" d="M506 907L475 1393H823L788 907H506ZM84 907L49 1393H397L362 907H84Z" />
<glyph unicode="#" glyph-name="numbersign" horiz-adv-x="1157" d="M262 938H141V1208H324L365 1393H618L578 1208H737L778 1393H1032L991 1208H1112V938H930L893 768H1016V498H834L793 313H539L580 498H420L379 313H125L166 498H45V768H225L262 938ZM676 938H516L479
768H639L676 938Z" />
<glyph unicode="$" glyph-name="dollar" horiz-adv-x="1210" d="M535 -18Q358 -7 229 68T25 248L289 446Q388 308 535 287V559L440 590Q270 647 181 745T92 1004Q92 1080 117 1144T185 1254T285 1333T405 1384T535 1407V1583H684V1403Q930 1373 1055 1210L846
997Q809 1038 774 1063T684 1100V856L752 834Q975 756 1064 651T1153 383Q1153 210 1030 106T684 -16V-238H535V-18ZM535 1102Q436 1084 436 1010Q436 972 458 951T535 909V1102ZM684 508V289Q801 310 801 395Q801 435 775 459T684 508Z" />
<glyph unicode="%" glyph-name="percent" horiz-adv-x="1554" d="M538 754T395 754T151 850T49 1083Q49 1222 150 1316T395 1411T639 1317T739 1083Q739 945 639 850ZM395 979Q437 979 464 1007T492 1083Q492 1128 465 1157T395 1186Q352 1186 326 1157T299 1083Q299
1036 325 1008T395 979ZM207 0L1081 1393H1352L477 0H207ZM1161 -18Q1018 -18 917 77T815 311T916 544T1161 639T1405 545T1505 311T1405 77T1161 -18ZM1161 207Q1203 207 1230 235T1257 311Q1257 356 1230 384T1161 412Q1118 412 1092 384T1065 311Q1065 264 1091
236T1161 207Z" />
<glyph unicode="&amp;" glyph-name="ampersand" horiz-adv-x="1411" d="M807 745L975 535Q1018 620 1024 727H1335Q1326 475 1176 283L1399 0H967L915 63Q762 -20 573 -20Q336 -20 187 90T37 389Q37 536 112 627T346 795Q260 937 260 1069Q260 1223 374 1316T668
1409Q845 1409 952 1324T1059 1094Q1059 979 999 899T807 745ZM655 938Q754 1000 754 1077Q754 1161 678 1161Q638 1161 617 1143T596 1081Q596 1013 655 938ZM729 301L502 588Q457 554 438 516T418 426Q418 356 463 316T600 276Q662 276 729 301Z" />
<glyph unicode="&apos;" glyph-name="quotesingle" horiz-adv-x="446" d="M84 907L49 1393H397L362 907H84Z" />
<glyph unicode="(" glyph-name="parenleft" horiz-adv-x="718" d="M469 -127Q411 -80 361 -27T256 104T163 268T99 465T74 698Q74 818 99 930T162 1128T255 1291T360 1423T469 1524L684 1356Q605 1257 557 1170T479 963T449 698Q449 487 509 337T690 35L469 -127Z" />
<glyph unicode=")" glyph-name="parenright" horiz-adv-x="718" d="M250 -127L29 35Q150 187 210 337T270 698Q270 843 240 963T162 1170T35 1356L250 1524Q308 1476 358 1423T463 1292T556 1128T620 931T645 698Q645 577 620 465T557 268T464 105T359 -27T250 -127Z" />
<glyph unicode="*" glyph-name="asterisk" horiz-adv-x="770" d="M287 1229L256 1393H510L481 1225L602 1327L723 1102L569 1053L723 1004L602 778L481 881L510 713H256L287 877L168 778L47 1004L201 1053L47 1102L168 1327L287 1229Z" />
<glyph unicode="+" glyph-name="plus" horiz-adv-x="907" d="M610 524V260H297V524H55V821H297V1085H610V821H852V524H610Z" />
<glyph unicode="," glyph-name="comma" horiz-adv-x="557" d="M125 -231L195 8Q138 27 106 74T74 186Q74 271 133 326T274 381Q360 381 421 326T483 186Q483 137 464 90T403 -25L281 -231H125Z" />
<glyph unicode="-" glyph-name="hyphen" horiz-adv-x="647" d="M74 438V735H573V438H74Z" />
<glyph unicode="." glyph-name="period" horiz-adv-x="557" d="M279 -20Q195 -20 135 36T74 180T134 324T279 381Q361 381 422 324T483 180T422 37T279 -20Z" />
<glyph unicode="/" glyph-name="slash" horiz-adv-x="1005" d="M39 0L627 1393H967L379 0H39Z" />
<glyph unicode="0" glyph-name="zero" horiz-adv-x="1409" d="M840 -18T705 -18T453 29T248 164T108 389T57 698T108 1005T247 1229T453 1363T705 1409T956 1363T1161 1230T1301 1006T1352 698T1301 390T1162 164T957 29ZM581 301T705 301T900 407T971 696T900
984T705 1090T510 985T438 696T509 407Z" />
<glyph unicode="1" glyph-name="one" horiz-adv-x="751" d="M242 0V1079H43V1393H614V0H242Z" />
<glyph unicode="2" glyph-name="two" horiz-adv-x="1185" d="M25 0Q11 0 9 8T18 29L621 672Q691 750 726 809T762 936Q762 1005 717 1048T596 1092Q517 1092 459 1034T385 877L51 975Q99 1181 244 1295T606 1409Q754 1409 871 1356T1056 1202T1124 967Q1124 844
1067 738T897 512L702 305H1116V0H25Z" />
<glyph unicode="3" glyph-name="three" horiz-adv-x="1239" d="M606 -20Q398 -20 246 71T20 305L326 463Q405 295 582 295Q688 295 748 347T809 489Q809 583 746 633T565 684Q450 684 360 651Q346 646 338 652T338 672L629 1079H150V1393H1176Q1184 1393 1186
1389T1182 1376L834 909Q905 895 966 863T1077 779T1157 649T1186 473Q1186 252 1028 116T606 -20Z" />
<glyph unicode="4" glyph-name="four" horiz-adv-x="1361" d="M1135 242V0H778V242H70V524L752 1393H1135V537H1294V242H1135ZM778 537V958L446 537H778Z" />
<glyph unicode="5" glyph-name="five" horiz-adv-x="1206" d="M573 -20Q374 -20 232 61T20 279L319 444Q352 385 413 341T561 297Q658 297 713 340T768 467Q768 562 707 602T522 643Q339 643 180 541Q150 521 150 551V1393H1026V1079H455V905Q510 926 612 926Q876
926 1012 805T1149 469Q1149 249 993 115T573 -20Z" />
<glyph unicode="6" glyph-name="six" horiz-adv-x="1253" d="M635 971Q763 982 872 946T1053 842T1164 683T1204 496Q1204 276 1039 128T625 -20Q464 -20 333 47T127 230T53 487Q53 690 182 872L547 1393H932L635 971ZM623 283Q719 283 776 346T834 496Q834 585
777 648T623 711Q528 711 470 649T412 496Q412 409 470 346T623 283Z" />
<glyph unicode="7" glyph-name="seven" horiz-adv-x="1200" d="M162 0L662 1079H51V1393H1178Q1194 1393 1184 1370L555 0H162Z" />
<glyph unicode="8" glyph-name="eight" horiz-adv-x="1204" d="M604 -20Q473 -20 367 15T192 111T86 251T49 422Q49 546 111 638T285 782Q145 888 145 1051Q145 1205 271 1307T604 1409Q810 1409 935 1307T1061 1051Q1061 890 920 782Q1030 730 1092 638T1155
422Q1155 331 1119 252T1014 111T840 15T604 -20ZM604 266Q699 266 752 319T805 455Q805 535 752 587T604 639T454 587T399 455Q399 370 453 318T604 266ZM604 881Q667 881 703 920T739 1012Q739 1064 703 1102T604 1141Q540 1141 503 1103T465 1012Q465 959 502
920T604 881Z" />
<glyph unicode="9" glyph-name="nine" horiz-adv-x="1253" d="M594 414Q471 408 366 447T193 555T87 713T49 897Q49 1117 214 1265T629 1413Q790 1413 921 1346T1126 1163T1200 905Q1200 714 1055 520L666 0H281L594 414ZM631 1110Q535 1110 478 1047T420 897Q420
808 477 745T631 682Q726 682 784 744T842 897Q842 984 784 1047T631 1110Z" />
<glyph unicode=":" glyph-name="colon" horiz-adv-x="569" d="M285 547Q201 547 141 604T80 748T140 891T285 948Q367 948 428 891T489 748Q489 661 428 604T285 547ZM285 -20Q201 -20 141 36T80 180T140 324T285 381Q367 381 428 324T489 180T428 37T285 -20Z" />
<glyph unicode=";" glyph-name="semicolon" horiz-adv-x="569" d="M285 547Q201 547 141 604T80 748T140 891T285 948Q367 948 428 891T489 748Q489 661 428 604T285 547ZM131 -231L201 8Q144 27 112 74T80 186Q80 272 139 326T281 381Q366 381 427 326T489 186Q489
137 470 90T410 -25L287 -231H131Z" />
<glyph unicode="&lt;" glyph-name="less" horiz-adv-x="856" d="M801 197L55 627Q26 643 55 659L801 1090V764L551 643L801 522V197Z" />
<glyph unicode="=" glyph-name="equal" horiz-adv-x="927" d="M55 702V989H872V702H55ZM55 303V590H872V303H55Z" />
<glyph unicode="&gt;" glyph-name="greater" horiz-adv-x="856" d="M55 1090L801 659Q830 643 801 627L55 197V522L305 643L55 764V1090Z" />
<glyph unicode="?" glyph-name="question" horiz-adv-x="1062" d="M324 471V831H475Q559 831 601 868T643 973Q643 1034 604 1068T500 1102Q376 1102 311 981L23 1139Q80 1258 207 1333T516 1409Q742 1409 880 1298T1018 1010Q1018 836 933 735T668 598V471H324ZM494
-20Q410 -20 350 36T289 180T349 324T494 381Q576 381 637 324T698 180T637 37T494 -20Z" />
<glyph unicode="@" glyph-name="at" horiz-adv-x="1576" d="M827 -49Q664 -49 522 1T274 144T108 374T47 680Q47 889 150 1057T425 1317T799 1409Q1010 1409 1177 1324T1437 1084T1530 735Q1530 529 1436 417T1196 305Q1006 305 940 414Q895 355 837 330T694 305Q555
305 455 410T354 672Q354 829 454 934T694 1040Q829 1040 887 969V1022H1190V629Q1190 520 1251 520Q1291 520 1320 570T1350 731Q1350 979 1206 1111T793 1243Q542 1243 389 1087T236 680Q236 427 392 273T821 119Q993 119 1108 178L1190 31Q1053 -49 827 -49ZM778
557Q826 557 857 588T889 672Q889 723 857 755T778 788Q730 788 697 756T664 672Q664 619 696 588T778 557Z" />
<glyph unicode="A" glyph-name="A" horiz-adv-x="1394" d="M1001 0L928 168H442L373 0H8L686 1417Q690 1428 698 1428T711 1417L1386 0H1001ZM682 733L557 438H809L682 733Z" />
<glyph unicode="B" glyph-name="B" horiz-adv-x="1300" d="M121 0V1393H725Q936 1393 1058 1299T1180 1032Q1180 914 1128 840T987 733Q1097 701 1168 621T1239 403Q1239 212 1102 106T707 0H121ZM481 848H674Q815 848 815 973Q815 1035 783 1067T678 1100H481V848ZM481
293H705Q791 293 828 330T866 438T828 545T705 582H481V293Z" />
<glyph unicode="C" glyph-name="C" horiz-adv-x="1413" d="M1391 313Q1288 141 1140 62T778 -18Q633 -18 500 35T269 181T112 408T53 696Q53 900 151 1065T411 1319T758 1409Q1157 1409 1360 1110L1079 920Q971 1085 764 1085Q614 1085 524 975T434 696Q434 527
527 416T776 305Q902 305 978 355T1104 498L1391 313Z" />
<glyph unicode="D" glyph-name="D" horiz-adv-x="1409" d="M121 0V1393H659Q809 1393 938 1345T1162 1207T1310 987T1364 696Q1364 485 1272 326T1020 83T659 0H121ZM494 315H618Q787 315 885 418T983 696Q983 871 885 974T618 1077H494V315Z" />
<glyph unicode="E" glyph-name="E" horiz-adv-x="1185" d="M121 0V1393H1098V1079H494V850H997V553H494V313H1126V0H121Z" />
<glyph unicode="F" glyph-name="F" horiz-adv-x="1130" d="M121 0V1393H1067V1079H494V797H999V483H494V0H121Z" />
<glyph unicode="G" glyph-name="G" horiz-adv-x="1474" d="M1077 350V489H801V776H1409V174Q1298 83 1158 33T803 -18Q599 -18 428 72T155 326T53 696Q53 850 112 984T273 1210T509 1356T795 1409Q976 1409 1119 1345T1354 1161L1094 936Q978 1085 786 1085Q621
1085 528 976T434 696Q434 523 532 409T807 295Q961 295 1077 350Z" />
<glyph unicode="H" glyph-name="H" horiz-adv-x="1470" d="M977 858V1393H1350V0H977V545H494V0H121V1393H494V858H977Z" />
<glyph unicode="I" glyph-name="I" horiz-adv-x="630" d="M129 0V1393H502V0H129Z" />
<glyph unicode="J" glyph-name="J" horiz-adv-x="995" d="M885 1393V391Q885 195 773 88T459 -20Q135 -20 12 211L293 391Q320 346 346 323T416 299Q512 299 512 418V1393H885Z" />
<glyph unicode="K" glyph-name="K" horiz-adv-x="1396" d="M494 815L924 1393H1327L864 788L1382 0H942L610 506L494 362V0H121V1393H494V815Z" />
<glyph unicode="L" glyph-name="L" horiz-adv-x="1136" d="M121 0V1393H494V313H1085V0H121Z" />
<glyph unicode="M" glyph-name="M" horiz-adv-x="1693" d="M84 0L166 1407Q169 1428 184 1409L852 659L1509 1409Q1525 1427 1528 1407L1610 0H1243L1210 594L862 190Q853 181 844 190L481 596L449 0H84Z" />
<glyph unicode="N" glyph-name="N" horiz-adv-x="1495" d="M1346 -25L471 694V0H121V1411Q121 1439 150 1415L1024 694V1393H1374V-20Q1374 -48 1346 -25Z" />
<glyph unicode="O" glyph-name="O" horiz-adv-x="1601" d="M801 -18Q651 -18 515 35T276 180T114 407T53 696T113 984T276 1210T514 1356T801 1409Q950 1409 1086 1356T1325 1211T1487 984T1548 696T1488 408T1325 181T1087 35T801 -18ZM801 305Q971 305 1069
415T1167 696T1069 975T801 1085Q630 1085 532 976T434 696T532 416T801 305Z" />
<glyph unicode="P" glyph-name="P" horiz-adv-x="1286" d="M494 399V0H121V1393H684Q814 1393 919 1355T1092 1250T1198 1092T1235 893Q1235 673 1089 536T684 399H494ZM494 711H666Q760 711 810 758T860 893T810 1028T666 1077H494V711Z" />
<glyph unicode="Q" glyph-name="Q" horiz-adv-x="1601" d="M954 -4V-254H647V-4Q523 20 415 82T226 233T99 443T53 696Q53 850 113 984T276 1210T514 1356T801 1409Q950 1409 1086 1356T1325 1211T1487 984T1548 696Q1548 563 1502 443T1376 234T1187 82T954 -4ZM647
324V571H954V324Q1057 365 1112 462T1167 696Q1167 866 1069 975T801 1085Q630 1085 532 976T434 696Q434 560 489 463T647 324Z" />
<glyph unicode="R" glyph-name="R" horiz-adv-x="1325" d="M494 436V0H121V1393H684Q943 1393 1089 1256T1235 899Q1235 760 1170 655T981 494L1270 0H866L621 436H494ZM494 721H666Q761 721 810 766T860 899T811 1031T666 1077H494V721Z" />
<glyph unicode="S" glyph-name="S" horiz-adv-x="1163" d="M586 -20Q474 -20 377 3T210 67T92 148T8 238L279 440Q336 369 404 329T569 289Q745 289 745 399Q745 442 713 467T608 518L444 573Q98 689 98 993Q98 1125 166 1221T340 1363T573 1409Q892 1409 1049
1225L836 1001Q738 1102 594 1102Q529 1102 494 1076T459 1006Q459 967 481 944T557 903L741 842Q944 775 1029 674T1114 420Q1114 218 983 99T586 -20Z" />
<glyph unicode="T" glyph-name="T" horiz-adv-x="1204" d="M416 0V1079H47V1393H1157V1079H788V0H416Z" />
<glyph unicode="U" glyph-name="U" horiz-adv-x="1421" d="M816 -20T711 -20T515 2T348 69T219 180T136 337T106 539V1393H479V543Q479 422 536 359T711 295Q827 295 884 359T942 543V1393H1315V539Q1315 429 1286 338T1203 180T1074 69T908 2Z" />
<glyph unicode="V" glyph-name="V" horiz-adv-x="1353" d="M1346 1393L688 -14Q684 -24 676 -24T664 -14L8 1393H406L690 743L967 1393H1346Z" />
<glyph unicode="W" glyph-name="W" horiz-adv-x="1916" d="M961 731L616 -16Q612 -27 604 -27T592 -16L8 1393H399L659 739L958 1419Q965 1434 973 1424Q974 1422 975 1419L1288 739L1536 1393H1909L1333 -16Q1330 -24 1326 -27T1318 -27T1309 -16L961 731Z" />
<glyph unicode="X" glyph-name="X" horiz-adv-x="1406" d="M500 748L94 1393H510L717 1040L926 1393H1313L909 764L1389 0H973L692 471L406 0H18L500 748Z" />
<glyph unicode="Y" glyph-name="Y" horiz-adv-x="1325" d="M479 539L-12 1393H397L672 883L946 1393H1337L852 549V0H479V539Z" />
<glyph unicode="Z" glyph-name="Z" horiz-adv-x="1255" d="M29 0Q9 0 23 20L639 1079H127V1393H1210Q1220 1393 1222 1389T1217 1372L600 313H1165V0H29Z" />
<glyph unicode="[" glyph-name="bracketleft" horiz-adv-x="733" d="M121 0V1393H664V1098H473V295H664V0H121Z" />
<glyph unicode="\" glyph-name="backslash" horiz-adv-x="1005" d="M967 0H627L39 1393H379L967 0Z" />
<glyph unicode="]" glyph-name="bracketright" horiz-adv-x="733" d="M612 1393V0H70V295H260V1098H70V1393H612Z" />
<glyph unicode="^" glyph-name="asciicircum" horiz-adv-x="1040" d="M512 895L340 621H25L510 1395Q514 1404 521 1404T532 1395L1016 621H686L512 895Z" />
<glyph unicode="_" glyph-name="underscore" horiz-adv-x="716" d="M-4 -377V-76H721V-377H-4Z" />
<glyph unicode="`" glyph-name="grave" horiz-adv-x="1024" d="M416 1479L221 1851H606L688 1479H416Z" />
<glyph unicode="a" glyph-name="a" horiz-adv-x="1394" d="M1001 0L928 168H442L373 0H8L686 1417Q690 1428 698 1428T711 1417L1386 0H1001ZM682 733L557 438H809L682 733Z" />
<glyph unicode="b" glyph-name="b" horiz-adv-x="1300" d="M121 0V1393H725Q936 1393 1058 1299T1180 1032Q1180 914 1128 840T987 733Q1097 701 1168 621T1239 403Q1239 212 1102 106T707 0H121ZM481 848H674Q815 848 815 973Q815 1035 783 1067T678 1100H481V848ZM481
293H705Q791 293 828 330T866 438T828 545T705 582H481V293Z" />
<glyph unicode="c" glyph-name="c" horiz-adv-x="1413" d="M1391 313Q1288 141 1140 62T778 -18Q633 -18 500 35T269 181T112 408T53 696Q53 900 151 1065T411 1319T758 1409Q1157 1409 1360 1110L1079 920Q971 1085 764 1085Q614 1085 524 975T434 696Q434 527
527 416T776 305Q902 305 978 355T1104 498L1391 313Z" />
<glyph unicode="d" glyph-name="d" horiz-adv-x="1409" d="M121 0V1393H659Q809 1393 938 1345T1162 1207T1310 987T1364 696Q1364 485 1272 326T1020 83T659 0H121ZM494 315H618Q787 315 885 418T983 696Q983 871 885 974T618 1077H494V315Z" />
<glyph unicode="e" glyph-name="e" horiz-adv-x="1185" d="M121 0V1393H1098V1079H494V850H997V553H494V313H1126V0H121Z" />
<glyph unicode="f" glyph-name="f" horiz-adv-x="1130" d="M121 0V1393H1067V1079H494V797H999V483H494V0H121Z" />
<glyph unicode="g" glyph-name="g" horiz-adv-x="1474" d="M1077 350V489H801V776H1409V174Q1298 83 1158 33T803 -18Q599 -18 428 72T155 326T53 696Q53 850 112 984T273 1210T509 1356T795 1409Q976 1409 1119 1345T1354 1161L1094 936Q978 1085 786 1085Q621
1085 528 976T434 696Q434 523 532 409T807 295Q961 295 1077 350Z" />
<glyph unicode="h" glyph-name="h" horiz-adv-x="1470" d="M977 858V1393H1350V0H977V545H494V0H121V1393H494V858H977Z" />
<glyph unicode="i" glyph-name="i" horiz-adv-x="630" d="M129 0V1393H502V0H129Z" />
<glyph unicode="j" glyph-name="j" horiz-adv-x="995" d="M885 1393V391Q885 195 773 88T459 -20Q135 -20 12 211L293 391Q320 346 346 323T416 299Q512 299 512 418V1393H885Z" />
<glyph unicode="k" glyph-name="k" horiz-adv-x="1396" d="M494 815L924 1393H1327L864 788L1382 0H942L610 506L494 362V0H121V1393H494V815Z" />
<glyph unicode="l" glyph-name="l" horiz-adv-x="1136" d="M121 0V1393H494V313H1085V0H121Z" />
<glyph unicode="m" glyph-name="m" horiz-adv-x="1693" d="M84 0L166 1407Q169 1428 184 1409L852 659L1509 1409Q1525 1427 1528 1407L1610 0H1243L1210 594L862 190Q853 181 844 190L481 596L449 0H84Z" />
<glyph unicode="n" glyph-name="n" horiz-adv-x="1495" d="M1346 -25L471 694V0H121V1411Q121 1439 150 1415L1024 694V1393H1374V-20Q1374 -48 1346 -25Z" />
<glyph unicode="o" glyph-name="o" horiz-adv-x="1601" d="M801 -18Q651 -18 515 35T276 180T114 407T53 696T113 984T276 1210T514 1356T801 1409Q950 1409 1086 1356T1325 1211T1487 984T1548 696T1488 408T1325 181T1087 35T801 -18ZM801 305Q971 305 1069
415T1167 696T1069 975T801 1085Q630 1085 532 976T434 696T532 416T801 305Z" />
<glyph unicode="p" glyph-name="p" horiz-adv-x="1286" d="M494 399V0H121V1393H684Q814 1393 919 1355T1092 1250T1198 1092T1235 893Q1235 673 1089 536T684 399H494ZM494 711H666Q760 711 810 758T860 893T810 1028T666 1077H494V711Z" />
<glyph unicode="q" glyph-name="q" horiz-adv-x="1601" d="M954 -4V-254H647V-4Q523 20 415 82T226 233T99 443T53 696Q53 850 113 984T276 1210T514 1356T801 1409Q950 1409 1086 1356T1325 1211T1487 984T1548 696Q1548 563 1502 443T1376 234T1187 82T954 -4ZM647
324V571H954V324Q1057 365 1112 462T1167 696Q1167 866 1069 975T801 1085Q630 1085 532 976T434 696Q434 560 489 463T647 324Z" />
<glyph unicode="r" glyph-name="r" horiz-adv-x="1325" d="M494 436V0H121V1393H684Q943 1393 1089 1256T1235 899Q1235 760 1170 655T981 494L1270 0H866L621 436H494ZM494 721H666Q761 721 810 766T860 899T811 1031T666 1077H494V721Z" />
<glyph unicode="s" glyph-name="s" horiz-adv-x="1163" d="M586 -20Q474 -20 377 3T210 67T92 148T8 238L279 440Q336 369 404 329T569 289Q745 289 745 399Q745 442 713 467T608 518L444 573Q98 689 98 993Q98 1125 166 1221T340 1363T573 1409Q892 1409 1049
1225L836 1001Q738 1102 594 1102Q529 1102 494 1076T459 1006Q459 967 481 944T557 903L741 842Q944 775 1029 674T1114 420Q1114 218 983 99T586 -20Z" />
<glyph unicode="t" glyph-name="t" horiz-adv-x="1204" d="M416 0V1079H47V1393H1157V1079H788V0H416Z" />
<glyph unicode="u" glyph-name="u" horiz-adv-x="1421" d="M816 -20T711 -20T515 2T348 69T219 180T136 337T106 539V1393H479V543Q479 422 536 359T711 295Q827 295 884 359T942 543V1393H1315V539Q1315 429 1286 338T1203 180T1074 69T908 2Z" />
<glyph unicode="v" glyph-name="v" horiz-adv-x="1353" d="M1346 1393L688 -14Q684 -24 676 -24T664 -14L8 1393H406L690 743L967 1393H1346Z" />
<glyph unicode="w" glyph-name="w" horiz-adv-x="1916" d="M961 731L616 -16Q612 -27 604 -27T592 -16L8 1393H399L659 739L958 1419Q965 1434 973 1424Q974 1422 975 1419L1288 739L1536 1393H1909L1333 -16Q1330 -24 1326 -27T1318 -27T1309 -16L961 731Z" />
<glyph unicode="x" glyph-name="x" horiz-adv-x="1384" d="M500 748L94 1393H510L717 1040L926 1393H1313L909 764L1389 0H973L692 471L406 0H18L500 748Z" />
<glyph unicode="y" glyph-name="y" horiz-adv-x="1325" d="M479 539L-12 1393H397L672 883L946 1393H1337L852 549V0H479V539Z" />
<glyph unicode="z" glyph-name="z" horiz-adv-x="1255" d="M29 0Q9 0 23 20L639 1079H127V1393H1210Q1220 1393 1222 1389T1217 1372L600 313H1165V0H29Z" />
<glyph unicode="{" glyph-name="braceleft" horiz-adv-x="847" d="M530 0Q473 0 423 15T329 61T261 146T236 274V440Q236 549 137 549H55V844H137Q236 844 236 952V1118Q236 1191 261 1246T329 1332T422 1378T530 1393H778V1098H649Q618 1098 603 1084T588 1032V870Q588
723 449 696Q588 671 588 522V360Q588 323 603 309T649 295H778V0H530Z" />
<glyph unicode="|" glyph-name="bar" horiz-adv-x="520" d="M102 -143V1536H418V-143H102Z" />
<glyph unicode="}" glyph-name="braceright" horiz-adv-x="847" d="M317 0H70V295H199Q230 295 245 309T260 360V522Q260 671 399 696Q260 723 260 870V1032Q260 1069 245 1083T199 1098H70V1393H317Q375 1393 425 1378T519 1332T587 1246T612 1118V952Q612 844
711 844H793V549H711Q612 549 612 440V274Q612 201 587 147T519 61T426 15T317 0Z" />
<glyph unicode="~" glyph-name="asciitilde" horiz-adv-x="991" d="M643 381Q585 381 532 401T441 442T381 463Q329 463 309 389L45 424Q68 587 154 684T348 782Q406 782 459 762T550 721T610 700Q663 700 682 774L946 739Q923 576 837 479T643 381Z" />
</font>
</defs>
</svg>
