<?xml version="1.0" standalone="no"?> <!DOCTYPE svg PUBLIC "-//W3C//DTD SVG 1.0//EN" "http://www.w3.org/TR/2001/REC-SVG-20010904/DTD/svg10.dtd" > <svg xmlns="http://www.w3.org/2000/svg" width="100%" height="100%">
<defs >
<font id="neutraface2displayinline" horiz-adv-x="1212" ><font-face
    font-family="Neutraface 2 Display Inline"
    units-per-em="2048"
    panose-1="2 0 6 0 4 0 0 2 0 4"
    ascent="1597"
    descent="-451"
    alphabetic="0" />
<missing-glyph horiz-adv-x="1024" />
<glyph unicode=" " glyph-name="space" horiz-adv-x="495" />
<glyph unicode="!" glyph-name="exclam" horiz-adv-x="618" d="M461 451H328V1393H502L461 451ZM158 451L117 1393H291V451H158ZM309 -14Q233 -14 178 37T123 168Q123 247 178 298T309 350Q384 350 440 299T496 168T440 38T309 -14ZM283 179T283 168T291 149T309
141Q320 141 328 149T336 168T328 187T309 195Q299 195 291 187Z" />
<glyph unicode="&quot;" glyph-name="quotedbl" horiz-adv-x="897" d="M375 907H250V1393H414L375 907ZM88 907L49 1393H213V907H88ZM809 907H684V1393H848L809 907ZM522 907L483 1393H647V907H522Z" />
<glyph unicode="#" glyph-name="numbersign" horiz-adv-x="1048" d="M111 973V1153H309L365 1393H565L510 1153H657L713 1393H913L858 1153H983V973H817L780 815H938V635H739L686 395H485L539 635H391L338 395H137L190 635H66V815H231L268 973H111ZM469 973L432
815H580L616 973H469Z" />
<glyph unicode="$" glyph-name="dollar" horiz-adv-x="1210" d="M535 -18Q358 -7 229 68T25 248L143 338Q213 241 327 177T594 113Q786 113 890 185T995 389Q995 497 928 570T705 696L504 764Q391 803 337 858T283 1008Q283 1121 373 1181T596 1241Q809 1241 938
1090L846 997Q809 1038 774 1063T684 1100V856L752 834Q975 756 1064 651T1153 383Q1153 210 1030 106T684 -16V-238H535V-18ZM594 150Q452 150 346 209T172 358L289 446Q388 308 535 287V559L440 590Q270 647 181 745T92 1004Q92 1080 117 1144T185 1254T285 1333T405
1384T535 1407V1583H684V1403Q930 1373 1055 1210L965 1118Q828 1278 596 1278Q501 1278 424 1250T296 1159T246 1008Q246 900 308 835T496 727L696 659Q843 610 900 548T958 389Q958 276 863 213T594 150ZM684 508V289Q801 310 801 395Q801 435 775 459T684 508ZM535
1102Q436 1084 436 1010Q436 972 458 951T535 909V1102Z" />
<glyph unicode="%" glyph-name="percent" horiz-adv-x="1650" d="M313 848T410 848T573 912T639 1071Q639 1167 573 1230T410 1294Q312 1294 245 1231T178 1071Q178 976 245 912ZM410 885Q328 885 272 938T215 1071Q215 1152 271 1204T410 1257Q492 1257 547 1205T602
1071Q602 992 547 939T410 885ZM410 729Q260 729 155 828T49 1071Q49 1216 154 1313T410 1411Q560 1411 664 1314T768 1071Q768 927 664 828T410 729ZM410 1001Q437 1001 455 1020T473 1071Q473 1101 455 1120T410 1139Q381 1139 363 1121T344 1071Q344 1039 362
1020T410 1001ZM557 0H406L1284 1393H1436L557 0ZM217 0L1096 1393H1245L367 0H217ZM1146 100T1243 100T1406 164T1473 324Q1473 420 1407 483T1243 547Q1145 547 1079 484T1012 324Q1012 229 1079 165ZM1325 137T1243 137T1105 190T1049 324T1105 457T1243 510T1380
457T1436 324T1381 191ZM1393 -18T1243 -18T988 81T883 324T988 566T1243 664T1497 567T1602 324Q1602 180 1498 81ZM1243 254Q1271 254 1289 273T1307 324Q1307 354 1289 372T1243 391Q1214 391 1196 373T1178 324Q1178 292 1196 273T1243 254Z" />
<glyph unicode="&amp;" glyph-name="ampersand" horiz-adv-x="1411" d="M807 745L969 541Q1009 628 1014 727H1161Q1154 595 1102 486T967 303L606 762Q771 833 841 900T911 1073Q911 1171 846 1232T674 1294Q562 1294 489 1232T416 1067Q416 945 522 809L551
772Q460 734 400 700T295 623T230 528T209 408Q209 270 312 191T588 111Q789 111 958 252L1159 0H967L915 63Q762 -20 573 -20Q336 -20 187 90T37 389Q37 536 112 627T346 795Q260 937 260 1069Q260 1223 374 1316T668 1409Q845 1409 952 1324T1059 1094Q1059 979
999 899T807 745ZM588 147Q432 147 339 217T246 408Q246 526 321 600T571 745L936 281Q772 147 588 147ZM453 1067Q453 1152 515 1204T674 1257Q766 1257 820 1206T874 1073Q874 982 808 920T586 788L551 834Q453 966 453 1067ZM989 274Q1078 353 1134 470T1198
727H1346Q1335 466 1182 274L1399 0H1206L989 274ZM729 301L502 588Q457 554 438 516T418 426Q418 356 463 316T600 276Q662 276 729 301ZM653 944Q731 993 731 1057Q731 1126 672 1126Q604 1126 604 1061Q604 1007 653 944Z" />
<glyph unicode="&apos;" glyph-name="quotesingle" horiz-adv-x="462" d="M375 907H250V1393H414L375 907ZM88 907L49 1393H213V907H88Z" />
<glyph unicode="(" glyph-name="parenleft" horiz-adv-x="718" d="M469 -127Q411 -80 361 -27T256 104T163 268T99 465T74 698Q74 818 99 930T162 1128T255 1291T360 1423T469 1524L561 1450Q493 1381 442 1312T343 1150T270 943T244 698T270 453T344 245T443
82T563 -57L469 -127ZM281 571T281 698T306 937T378 1139T475 1296T590 1430L684 1356Q605 1257 557 1170T479 963T449 698Q449 487 509 337T690 35L592 -37Q526 30 476 98T379 256T307 458Z" />
<glyph unicode=")" glyph-name="parenright" horiz-adv-x="718" d="M250 -127L156 -57Q209 -2 251 51T337 176T410 323T457 496T475 698Q475 828 450 943T376 1150T277 1311T158 1450L250 1524Q308 1476 358 1423T463 1292T556 1128T620 931T645 698Q645 577 620
465T557 268T464 105T359 -27T250 -127ZM438 825T438 698T413 459T341 256T244 98T127 -37L29 35Q150 187 210 337T270 698Q270 843 240 963T162 1170T35 1356L129 1430Q194 1364 244 1297T340 1139T412 937Z" />
<glyph unicode="*" glyph-name="asterisk" horiz-adv-x="825" d="M805 1004L733 883L453 1040L735 1200L807 1081L641 1040L805 1004ZM530 1233L647 1354L717 1233L438 1069L440 1393H580L530 1233ZM264 1393H403L406 1069L127 1233L199 1354L309 1235L264 1393ZM205
1040L39 1081L109 1200L391 1040L111 883L41 1004L205 1040ZM580 692H440L438 1014L715 852L645 731L530 848L580 692ZM201 731L129 850L406 1012L403 692H264L311 846L201 731Z" />
<glyph unicode="+" glyph-name="plus" horiz-adv-x="866" d="M811 825V690H451V1065H594V825H811ZM594 520V281H451V653H811V520H594ZM272 825V1065H414V690H55V825H272ZM272 520H55V653H414V281H272V520Z" />
<glyph unicode="," glyph-name="comma" horiz-adv-x="520" d="M104 -211L172 10Q129 27 102 72T74 174Q74 252 127 301T256 350Q335 350 390 301T446 174T375 -18L256 -211H104ZM231 180T231 168T240 148T260 139T280 147T289 168T280 188T260 197T240 189Z" />
<glyph unicode="-" glyph-name="hyphen" horiz-adv-x="647" d="M573 735V604H74V735H573ZM74 438V567H573V438H74Z" />
<glyph unicode="." glyph-name="period" horiz-adv-x="520" d="M260 -14Q184 -14 129 37T74 168Q74 247 129 298T260 350Q335 350 390 299T446 168T391 38T260 -14ZM231 180T231 168T240 148T260 139T280 147T289 168T280 188T260 197T240 189Z" />
<glyph unicode="/" glyph-name="slash" horiz-adv-x="1005" d="M379 0H227L815 1393H967L379 0ZM39 0L627 1393H776L188 0H39Z" />
<glyph unicode="0" glyph-name="zero" horiz-adv-x="1409" d="M705 125Q915 125 1047 277T1180 698Q1180 966 1048 1116T705 1266T362 1116T229 698Q229 563 265 454T365 273T516 164T705 125ZM705 162Q512 162 389 304T266 698Q266 948 388 1088T705 1229T1021
1089T1143 698Q1143 446 1021 304T705 162ZM840 -18T705 -18T453 29T248 164T108 389T57 698T108 1005T247 1229T453 1363T705 1409T956 1363T1161 1230T1301 1006T1352 698T1301 390T1162 164T957 29ZM581 305T705 305T900 409T971 696Q971 879 900 982T705 1085Q580
1085 509 982T438 696Q438 514 509 410Z" />
<glyph unicode="1" glyph-name="one" horiz-adv-x="751" d="M446 1255H43V1393H614V0H446V1255ZM242 0V1079H43V1219H410V0H242Z" />
<glyph unicode="2" glyph-name="two" horiz-adv-x="1185" d="M25 0Q11 0 9 8T18 29L621 672Q691 750 726 809T762 936Q762 1005 717 1048T596 1092Q517 1092 459 1034T385 877L236 920Q268 1069 364 1151T602 1233Q745 1233 835 1156T926 952Q926 861 880 780T745
604L305 135H1116V0H25ZM602 1270Q448 1270 342 1181T199 930L51 975Q99 1181 244 1295T606 1409Q754 1409 871 1356T1056 1202T1124 967Q1124 844 1067 738T897 512L702 305H1116V172H389L774 580Q867 677 915 763T963 952Q963 1094 862 1182T602 1270Z" />
<glyph unicode="3" glyph-name="three" horiz-adv-x="1239" d="M606 -20Q398 -20 246 71T20 305L158 375Q216 262 328 191T594 119Q788 119 902 218T1016 481Q1016 558 991 619T925 717T832 779T728 812T627 819L944 1255H150V1393H1176Q1184 1393 1186 1389T1182
1376L838 909Q988 880 1087 771T1186 473Q1186 252 1028 116T606 -20ZM594 156Q450 156 346 222T188 391L326 463Q405 295 582 295Q688 295 748 347T809 489Q809 581 747 628T565 676Q441 676 358 649Q343 644 336 650T338 672L623 1079H150V1219H874L563 786Q646
793 718 780T850 734T944 636T979 481Q979 334 875 245T594 156Z" />
<glyph unicode="4" glyph-name="four" horiz-adv-x="1337" d="M913 1325V408H170L913 1325ZM121 406V371H913V0H754V242H12V483L737 1393H918L121 406ZM1270 537V408H950V1393H1110V537H1270ZM1110 242V0H950V371H1270V242H1110ZM754 537V922L449 537H754Z" />
<glyph unicode="5" glyph-name="five" horiz-adv-x="1214" d="M578 -20Q378 -20 234 61T20 279L154 352Q212 246 317 184T571 121Q760 121 874 217T989 479Q989 643 879 736T567 829Q431 829 322 788V1219H1026V1079H455V932Q507 952 612 952Q874 952 1017 822T1161
479Q1161 252 1002 116T578 -20ZM571 158Q433 158 336 215T186 371L319 444Q351 386 414 342T565 297Q662 297 721 343T780 477Q780 670 522 670Q340 670 180 567Q150 548 150 578V1393H1026V1255H285V733Q404 795 567 795Q750 795 851 710T952 479Q952 331 848
245T571 158Z" />
<glyph unicode="6" glyph-name="six" horiz-adv-x="1253" d="M944 1393L649 973Q776 983 883 947T1058 842T1165 684T1204 496Q1204 276 1039 128T625 -20Q464 -20 333 47T127 230T53 487Q53 613 91 711T240 969L537 1393H721L371 893Q215 668 215 492Q215 334
331 224T625 113Q805 113 921 224T1038 496Q1038 570 1012 636T935 755T805 837T629 868Q525 868 442 830T307 731Q322 759 399 872L762 1393H944ZM625 150Q463 150 358 249T252 492Q252 533 262 576T300 665T367 748T476 807T629 831Q803 831 902 734T1001 496Q1001
350 896 250T625 150ZM623 283Q719 283 776 344T834 492Q834 580 778 640T623 700Q527 700 470 641T412 492Q412 405 470 344T623 283Z" />
<glyph unicode="7" glyph-name="seven" horiz-adv-x="1200" d="M956 1255H51V1393H1178Q1194 1393 1184 1370L555 0H379L956 1255ZM162 0L662 1079H51V1219H899L338 0H162Z" />
<glyph unicode="8" glyph-name="eight" horiz-adv-x="1204" d="M604 893Q666 893 701 930T737 1018T702 1104T604 1141Q540 1141 504 1104T467 1018Q467 968 503 931T604 893ZM604 266Q699 266 751 317T803 449Q803 526 751 576T604 627T455 577T401 449Q401 367
454 317T604 266ZM604 -20Q473 -20 367 15T192 111T86 251T49 422Q49 546 111 638T285 782Q145 888 145 1051Q145 1205 271 1307T604 1409Q810 1409 935 1307T1061 1051Q1061 890 920 782Q1030 730 1092 638T1155 422Q1155 331 1119 252T1014 111T840 15T604 -20ZM604
104Q789 104 894 202T999 449Q999 578 918 661T700 766Q795 793 857 859T920 1022Q920 1136 834 1215T604 1294Q460 1294 374 1215T287 1022Q287 926 348 859T504 766Q367 744 287 661T207 449Q207 300 312 202T604 104ZM772 141T604 141T340 228T244 449Q244 584
344 664T604 745T863 665T963 449Q963 317 868 229ZM604 782Q494 782 409 849T324 1022Q324 1121 400 1189T604 1257Q729 1257 806 1189T883 1022Q883 916 798 849T604 782Z" />
<glyph unicode="9" glyph-name="nine" horiz-adv-x="1253" d="M276 0L584 414Q461 410 359 448T189 555T86 711T49 897Q49 1117 214 1265T629 1413Q790 1413 921 1346T1126 1163T1200 905Q1200 783 1158 686T997 424L684 0H500L868 500Q1038 732 1038 901Q1038
1059 922 1169T629 1280Q449 1280 332 1169T215 897Q215 741 323 635T625 528Q825 528 932 653Q918 626 840 520L459 0H276ZM629 1243Q790 1243 895 1143T1001 901Q1001 860 991 818T954 729T886 647T778 588T625 565Q450 565 351 661T252 897Q252 1042 358 1142T629
1243ZM631 1110Q535 1110 478 1049T420 901Q420 812 476 752T631 692Q727 692 784 751T842 901Q842 988 784 1049T631 1110Z" />
<glyph unicode=":" glyph-name="colon" horiz-adv-x="532" d="M266 -14Q190 -14 135 37T80 168Q80 247 135 298T266 350Q341 350 397 299T453 168T397 38T266 -14ZM266 553Q190 553 135 604T80 735Q80 815 135 866T266 918Q341 918 397 866T453 735T397 605T266
553ZM238 747T238 735T246 715T266 707Q278 707 286 715T295 735T287 755T266 764Q255 764 247 756ZM238 180T238 168T246 148T266 139T286 147T295 168T286 188T266 197T247 189Z" />
<glyph unicode=";" glyph-name="semicolon" horiz-adv-x="532" d="M266 553Q190 553 135 604T80 735Q80 815 135 866T266 918Q341 918 397 866T453 735T397 605T266 553ZM111 -211L178 10Q135 27 108 72T80 174Q80 252 133 301T262 350Q342 350 397 301T453 174Q453
98 381 -18L262 -211H111ZM238 180T238 168T246 148T266 139T286 147T295 168T286 188T266 197T247 189ZM238 747T238 735T246 715T266 707Q278 707 286 715T295 735T287 755T266 764Q255 764 247 756Z" />
<glyph unicode="&lt;" glyph-name="less" horiz-adv-x="856" d="M801 197L55 627Q26 643 55 659L801 1090V938L272 643L801 350V197ZM801 543V391L348 643L801 897V743L592 643L801 543Z" />
<glyph unicode="=" glyph-name="equal" horiz-adv-x="866" d="M811 1012V874H55V1012H811ZM811 602V465H55V602H811ZM55 702V838H811V702H55ZM55 293V428H811V293H55Z" />
<glyph unicode="&gt;" glyph-name="greater" horiz-adv-x="856" d="M801 627L55 197V350L584 643L55 938V1090L801 659Q830 643 801 627ZM55 391V543L264 643L55 743V897L508 643L55 391Z" />
<glyph unicode="?" glyph-name="question" horiz-adv-x="1062" d="M508 1274Q380 1274 289 1218T152 1067L23 1139Q80 1258 207 1333T516 1409Q742 1409 880 1298T1018 1010Q1018 832 931 718T668 569V451H514V682H522Q686 682 768 768T850 991Q850 1117 756 1195T508
1274ZM324 451V831H461Q643 831 643 973Q643 1034 604 1068T500 1102Q376 1102 311 981L180 1051Q224 1137 307 1187T508 1237Q646 1237 729 1170T813 991Q813 869 741 794T522 719H477V451H324ZM492 -14Q415 -14 360 37T305 168Q305 247 360 298T492 350Q567 350
622 299T678 168T623 38T492 -14ZM465 179T465 168T473 149T492 141Q502 141 510 149T518 168T510 187T492 195Q481 195 473 187Z" />
<glyph unicode="@" glyph-name="at" horiz-adv-x="1576" d="M813 -49Q650 -49 510 1T267 144T106 375T47 680Q47 889 150 1057T425 1317T799 1409Q1010 1409 1177 1324T1437 1084T1530 735Q1530 529 1459 424T1270 319Q1167 319 1106 377T1044 567V1030H1210V559Q1210
513 1224 491T1270 469Q1366 469 1366 733Q1366 989 1218 1124T793 1260Q534 1260 377 1099T219 680Q219 418 373 259T807 100Q997 100 1118 162L1190 31Q1053 -49 813 -49ZM778 592Q813 592 836 614T860 674Q860 710 836 735T778 760Q743 760 719 736T694 674T718
615T778 592ZM774 461Q673 461 608 516T543 674Q543 775 609 833T774 891Q876 891 942 833T1008 674Q1008 571 941 516T774 461ZM762 295Q649 295 557 336T408 465T350 672Q350 848 467 951T756 1055Q916 1055 1008 961V803Q974 862 913 894T774 926Q659 926 584
860T508 674Q508 553 582 490T774 426Q932 426 1008 545Q1011 471 1040 412Q1006 362 934 329T762 295Z" />
<glyph unicode="A" glyph-name="A" horiz-adv-x="1394" d="M690 1133L170 0H8L676 1413Q684 1429 699 1429T721 1413L1386 0H1214L690 1133ZM358 322L690 1044L1024 322H358ZM995 0L924 162H446L379 0H211L340 285H1042L1174 0H995ZM682 721L565 444H801L682 721Z" />
<glyph unicode="B" glyph-name="B" horiz-adv-x="1306" d="M283 1266V129H707Q888 129 979 206T1071 428Q1071 550 999 624T801 717Q909 745 962 817T1016 987Q1016 1124 935 1195T702 1266H283ZM707 166H319V696H705Q856 696 945 628T1034 428Q1034 301 952 234T707
166ZM676 733H319V1229H702Q836 1229 907 1168T979 987Q979 876 905 805T676 733ZM121 0V1393H725Q936 1393 1058 1299T1180 1032Q1180 822 1028 733Q1239 644 1239 403Q1239 212 1102 106T707 0H121ZM481 848H674Q815 848 815 973Q815 1035 783 1067T678 1100H481V848ZM481
293H705Q791 293 828 330T866 438T828 545T705 582H481V293Z" />
<glyph unicode="C" glyph-name="C" horiz-adv-x="1413" d="M1391 313Q1288 141 1140 62T778 -18Q633 -18 500 35T269 181T112 408T53 696Q53 900 151 1065T411 1319T758 1409Q1157 1409 1360 1110L1235 1024Q1075 1266 762 1266Q536 1266 381 1104T225 696Q225
534 297 403T496 199T778 125Q952 125 1067 192T1262 395L1391 313ZM762 1229Q1054 1229 1204 1006L1079 920Q971 1085 764 1085Q614 1085 524 975T434 696Q434 527 527 416T776 305Q902 305 978 355T1104 498L1231 416Q1159 288 1050 225T778 162Q633 162 515
230T330 421T262 696Q262 926 406 1077T762 1229Z" />
<glyph unicode="D" glyph-name="D" horiz-adv-x="1409" d="M289 1253V139H639Q885 139 1038 290T1192 696T1039 1102T639 1253H289ZM326 176V1217H639Q869 1217 1012 1076T1155 696Q1155 459 1012 318T639 176H326ZM121 0V1393H659Q809 1393 938 1345T1162 1207T1310
987T1364 696Q1364 485 1272 326T1020 83T659 0H121ZM494 315H618Q787 315 885 418T983 696Q983 871 885 974T618 1077H494V315Z" />
<glyph unicode="E" glyph-name="E" horiz-adv-x="1185" d="M121 0V1393H1098V1253H289V137H1126V0H121ZM1126 313V174H326V682H997V553H494V313H1126ZM997 850V719H326V1217H1098V1079H494V850H997Z" />
<glyph unicode="F" glyph-name="F" horiz-adv-x="1130" d="M121 0V1393H1067V1253H289V0H121ZM999 797V657H326V1217H1067V1079H494V797H999ZM494 0H326V621H999V483H494V0Z" />
<glyph unicode="G" glyph-name="G" horiz-adv-x="1474" d="M1262 651H801V780H1409V174Q1298 83 1158 33T803 -18Q599 -18 428 72T155 326T53 696Q53 850 112 984T273 1210T509 1356T795 1409Q976 1409 1119 1345T1354 1161L1237 1061Q1160 1158 1047 1212T791
1266Q631 1266 502 1193T299 990T225 696Q225 448 389 285T805 121Q962 121 1068 156T1262 254V651ZM1077 350V485H801V614H1225V270Q1063 158 805 158Q568 158 415 310T262 696Q262 928 412 1078T791 1229Q925 1229 1032 1178T1210 1036L1094 936Q978 1085 786
1085Q621 1085 528 976T434 696Q434 523 532 409T807 295Q961 295 1077 350Z" />
<glyph unicode="H" glyph-name="H" horiz-adv-x="1470" d="M494 0H326V682H1145V0H977V545H494V0ZM977 858V1393H1145V719H326V1393H494V858H977ZM121 0V1393H289V0H121ZM1350 0H1182V1393H1350V0Z" />
<glyph unicode="I" glyph-name="I" horiz-adv-x="630" d="M502 0H334V1393H502V0ZM129 0V1393H297V0H129Z" />
<glyph unicode="J" glyph-name="J" horiz-adv-x="995" d="M885 1393V391Q885 195 773 88T459 -20Q135 -20 12 211L141 293Q232 121 438 121Q571 121 644 194T717 406V1393H885ZM172 313L299 395Q333 337 352 321Q379 299 416 299Q512 299 512 418V1393H680V406Q680
286 617 222T438 158Q251 158 172 313Z" />
<glyph unicode="K" glyph-name="K" horiz-adv-x="1396" d="M1147 1393H1327L864 788L1382 0H1184L664 776L1147 1393ZM494 831L911 1393H1104L326 399V1393H494V831ZM121 0V1393H289V0H121ZM942 0L614 500L494 348V0H326V344L641 748L1143 0H942Z" />
<glyph unicode="L" glyph-name="L" horiz-adv-x="1136" d="M121 0V1393H289V137H1085V0H121ZM1085 313V174H326V1393H494V313H1085Z" />
<glyph unicode="M" glyph-name="M" horiz-adv-x="1693" d="M84 0L166 1407Q169 1428 184 1409L852 659L1509 1409Q1525 1427 1528 1407L1610 0H1446L1386 1051L854 440L307 1049L246 0H84ZM854 383L1354 956L1409 0H1249L1217 586L862 176Q853 167 844 176L475
588L442 0H283L340 958L854 383Z" />
<glyph unicode="N" glyph-name="N" horiz-adv-x="1495" d="M276 1106V0H121V1411Q121 1439 150 1415L1028 688V1393H1184V362L276 1106ZM1346 -25L467 700V0H313V1028L1221 285V1393H1374V-20Q1374 -48 1346 -25Z" />
<glyph unicode="O" glyph-name="O" horiz-adv-x="1601" d="M801 125Q963 125 1094 198T1301 403T1376 696Q1376 942 1212 1104T801 1266Q639 1266 507 1193T300 989T225 696Q225 575 269 469T389 287T573 169T801 125ZM1032 162T801 162T416 313T262 696T416 1078T801
1229T1185 1078T1339 696T1186 314ZM801 -18Q651 -18 515 35T276 180T114 407T53 696T113 984T276 1210T514 1356T801 1409Q950 1409 1086 1356T1325 1211T1487 984T1548 696T1488 408T1325 181T1087 35T801 -18ZM801 305Q971 305 1069 415T1167 696T1069 975T801
1085Q630 1085 532 976T434 696T532 416T801 305Z" />
<glyph unicode="P" glyph-name="P" horiz-adv-x="1286" d="M494 399V0H326V537H676Q861 537 964 634T1067 893Q1067 1055 964 1154T676 1253H289V0H121V1393H684Q814 1393 919 1355T1092 1250T1198 1092T1235 893Q1235 673 1089 536T684 399H494ZM676 573H326V1217H676Q843
1217 936 1128T1030 893Q1030 749 937 661T676 573ZM494 711H666Q760 711 810 758T860 893T810 1028T666 1077H494V711Z" />
<glyph unicode="Q" glyph-name="Q" horiz-adv-x="1601" d="M954 -4V-254H819V125Q1058 131 1217 293T1376 696Q1376 942 1212 1104T801 1266Q639 1266 507 1193T300 989T225 696Q225 537 297 408T497 204T782 125V-254H647V-4Q523 20 415 82T226 233T99 443T53
696Q53 850 113 984T276 1210T514 1356T801 1409Q950 1409 1086 1356T1325 1211T1487 984T1548 696Q1548 563 1502 443T1376 234T1187 82T954 -4ZM647 324V571H782V162Q557 168 410 318T262 696Q262 927 416 1078T801 1229T1185 1078T1339 696Q1339 470 1191 319T819
162V571H954V324Q1057 365 1112 462T1167 696Q1167 866 1069 975T801 1085Q630 1085 532 976T434 696Q434 560 489 463T647 324Z" />
<glyph unicode="R" glyph-name="R" horiz-adv-x="1325" d="M289 1253V0H121V1393H684Q943 1393 1089 1256T1235 899Q1235 760 1170 655T981 494L1270 0H1087L764 567Q910 589 988 676T1067 899Q1067 1060 965 1156T676 1253H289ZM676 598H326V1217H676Q844 1217
937 1131T1030 899Q1030 759 937 679T676 598ZM494 436V0H326V561H676Q702 561 725 563L1047 0H866L621 436H494ZM494 721H666Q761 721 810 766T860 899T811 1031T666 1077H494V721Z" />
<glyph unicode="S" glyph-name="S" horiz-adv-x="1163" d="M586 -20Q474 -20 377 3T210 67T92 148T8 238L129 328Q290 117 578 117Q761 117 854 195T948 410Q948 515 886 582T680 696L506 756Q404 792 351 847T297 999Q297 1111 378 1174T584 1237Q706 1237 785
1201T928 1098L834 999Q734 1102 594 1102Q529 1102 494 1076T459 1006Q459 967 481 944T557 903L741 842Q944 775 1029 674T1114 420Q1114 218 983 99T586 -20ZM578 154Q312 154 158 350L279 440Q336 369 404 329T569 289Q745 289 745 399Q745 442 713 467T608
518L444 573Q98 689 98 993Q98 1125 166 1221T340 1363T573 1409Q749 1409 858 1360T1047 1223L954 1126Q813 1274 584 1274Q444 1274 352 1201T260 999Q260 891 320 825T496 721L670 662Q795 617 852 560T909 410Q909 289 827 222T578 154Z" />
<glyph unicode="T" glyph-name="T" horiz-adv-x="1204" d="M788 0H621V1217H1157V1079H788V0ZM416 0V1079H47V1217H584V0H416ZM1157 1393V1253H47V1393H1157Z" />
<glyph unicode="U" glyph-name="U" horiz-adv-x="1421" d="M816 -20T711 -20T515 2T348 69T219 180T136 337T106 539V1393H274V541Q274 338 391 232T711 125Q914 125 1030 231T1147 541V1393H1315V539Q1315 429 1286 338T1203 180T1074 69T908 2ZM897 162T711
162T418 259T311 541V1393H479V543Q479 305 711 305Q942 305 942 543V1393H1110V541Q1110 356 1004 259Z" />
<glyph unicode="V" glyph-name="V" horiz-adv-x="1353" d="M1346 1393L688 -14Q684 -24 676 -24T664 -14L8 1393H186L684 307L1176 1393H1346ZM684 397L227 1393H406L690 743L967 1393H1135L684 397Z" />
<glyph unicode="W" glyph-name="W" horiz-adv-x="1916" d="M961 725L618 -16Q614 -27 606 -27T594 -16L8 1393H184L629 307L965 1047L1307 307L1743 1393H1909L1331 -16Q1328 -24 1324 -27T1316 -27T1307 -16L961 725ZM631 391L221 1393H393L649 739L958 1419Q965
1434 973 1424Q974 1422 975 1419L1298 739L1542 1393H1704L1307 391L965 1126L631 391Z" />
<glyph unicode="X" glyph-name="X" horiz-adv-x="1406" d="M1389 0H1204L729 758L1141 1393H1313L909 764L1389 0ZM500 748L94 1393H283L680 758L190 0H18L500 748ZM236 0L705 725L1157 0H973L692 473L406 0H236ZM705 788L328 1393H510L719 1040L926 1393H1094L705 788Z" />
<glyph unicode="Y" glyph-name="Y" horiz-adv-x="1363" d="M500 539L8 1393H190L668 549V0H500V539ZM872 0H705V547L1182 1393H1356L872 549V0ZM692 883L965 1393H1141L688 586L233 1393H418L692 883Z" />
<glyph unicode="Z" glyph-name="Z" horiz-adv-x="1255" d="M29 0Q9 0 23 20L643 1079H127V1219H899L272 139H1165V0H29ZM967 1255H127V1393H1210Q1220 1393 1222 1389T1217 1372L596 313H1165V176H340L967 1255Z" />
<glyph unicode="[" glyph-name="bracketleft" horiz-adv-x="733" d="M121 0V1393H664V1264H279V129H664V0H121ZM315 166V1227H664V1098H473V295H664V166H315Z" />
<glyph unicode="\" glyph-name="backslash" horiz-adv-x="1005" d="M778 0H627L39 1393H190L778 0ZM379 1393L967 0H817L229 1393H379Z" />
<glyph unicode="]" glyph-name="bracketright" horiz-adv-x="733" d="M612 1393V0H70V129H455V1264H70V1393H612ZM418 1227V166H70V295H260V1098H70V1227H418Z" />
<glyph unicode="^" glyph-name="asciicircum" horiz-adv-x="1040" d="M518 1157L180 621H25L510 1395Q514 1402 522 1402T535 1395L1016 621H854L518 1157ZM512 827L381 621H227L518 1085L809 621H645L512 827Z" />
<glyph unicode="_" glyph-name="underscore" horiz-adv-x="716" d="M721 -76V-209H-4V-76H721ZM-4 -377V-246H721V-377H-4Z" />
<glyph unicode="`" glyph-name="grave" horiz-adv-x="1024" d="M532 1479H416L221 1851H397L532 1479ZM606 1851L688 1479H569L434 1851H606Z" />
<glyph unicode="a" glyph-name="a" horiz-adv-x="1394" d="M690 1133L170 0H8L676 1413Q684 1429 699 1429T721 1413L1386 0H1214L690 1133ZM358 322L690 1044L1024 322H358ZM995 0L924 162H446L379 0H211L340 285H1042L1174 0H995ZM682 721L565 444H801L682 721Z" />
<glyph unicode="b" glyph-name="b" horiz-adv-x="1306" d="M283 1266V129H707Q888 129 979 206T1071 428Q1071 550 999 624T801 717Q909 745 962 817T1016 987Q1016 1124 935 1195T702 1266H283ZM707 166H319V696H705Q856 696 945 628T1034 428Q1034 301 952 234T707
166ZM676 733H319V1229H702Q836 1229 907 1168T979 987Q979 876 905 805T676 733ZM121 0V1393H725Q936 1393 1058 1299T1180 1032Q1180 822 1028 733Q1239 644 1239 403Q1239 212 1102 106T707 0H121ZM481 848H674Q815 848 815 973Q815 1035 783 1067T678 1100H481V848ZM481
293H705Q791 293 828 330T866 438T828 545T705 582H481V293Z" />
<glyph unicode="c" glyph-name="c" horiz-adv-x="1413" d="M1391 313Q1288 141 1140 62T778 -18Q633 -18 500 35T269 181T112 408T53 696Q53 900 151 1065T411 1319T758 1409Q1157 1409 1360 1110L1235 1024Q1075 1266 762 1266Q536 1266 381 1104T225 696Q225
534 297 403T496 199T778 125Q952 125 1067 192T1262 395L1391 313ZM762 1229Q1054 1229 1204 1006L1079 920Q971 1085 764 1085Q614 1085 524 975T434 696Q434 527 527 416T776 305Q902 305 978 355T1104 498L1231 416Q1159 288 1050 225T778 162Q633 162 515
230T330 421T262 696Q262 926 406 1077T762 1229Z" />
<glyph unicode="d" glyph-name="d" horiz-adv-x="1409" d="M289 1253V139H639Q885 139 1038 290T1192 696T1039 1102T639 1253H289ZM326 176V1217H639Q869 1217 1012 1076T1155 696Q1155 459 1012 318T639 176H326ZM121 0V1393H659Q809 1393 938 1345T1162 1207T1310
987T1364 696Q1364 485 1272 326T1020 83T659 0H121ZM494 315H618Q787 315 885 418T983 696Q983 871 885 974T618 1077H494V315Z" />
<glyph unicode="e" glyph-name="e" horiz-adv-x="1185" d="M121 0V1393H1098V1253H289V137H1126V0H121ZM1126 313V174H326V682H997V553H494V313H1126ZM997 850V719H326V1217H1098V1079H494V850H997Z" />
<glyph unicode="f" glyph-name="f" horiz-adv-x="1130" d="M121 0V1393H1067V1253H289V0H121ZM999 797V657H326V1217H1067V1079H494V797H999ZM494 0H326V621H999V483H494V0Z" />
<glyph unicode="g" glyph-name="g" horiz-adv-x="1474" d="M1262 651H801V780H1409V174Q1298 83 1158 33T803 -18Q599 -18 428 72T155 326T53 696Q53 850 112 984T273 1210T509 1356T795 1409Q976 1409 1119 1345T1354 1161L1237 1061Q1160 1158 1047 1212T791
1266Q631 1266 502 1193T299 990T225 696Q225 448 389 285T805 121Q962 121 1068 156T1262 254V651ZM1077 350V485H801V614H1225V270Q1063 158 805 158Q568 158 415 310T262 696Q262 928 412 1078T791 1229Q925 1229 1032 1178T1210 1036L1094 936Q978 1085 786
1085Q621 1085 528 976T434 696Q434 523 532 409T807 295Q961 295 1077 350Z" />
<glyph unicode="h" glyph-name="h" horiz-adv-x="1470" d="M494 0H326V682H1145V0H977V545H494V0ZM977 858V1393H1145V719H326V1393H494V858H977ZM121 0V1393H289V0H121ZM1350 0H1182V1393H1350V0Z" />
<glyph unicode="i" glyph-name="i" horiz-adv-x="630" d="M502 0H334V1393H502V0ZM129 0V1393H297V0H129Z" />
<glyph unicode="j" glyph-name="j" horiz-adv-x="995" d="M885 1393V391Q885 195 773 88T459 -20Q135 -20 12 211L141 293Q232 121 438 121Q571 121 644 194T717 406V1393H885ZM172 313L299 395Q333 337 352 321Q379 299 416 299Q512 299 512 418V1393H680V406Q680
286 617 222T438 158Q251 158 172 313Z" />
<glyph unicode="k" glyph-name="k" horiz-adv-x="1396" d="M1147 1393H1327L864 788L1382 0H1184L664 776L1147 1393ZM494 831L911 1393H1104L326 399V1393H494V831ZM121 0V1393H289V0H121ZM942 0L614 500L494 348V0H326V344L641 748L1143 0H942Z" />
<glyph unicode="l" glyph-name="l" horiz-adv-x="1136" d="M121 0V1393H289V137H1085V0H121ZM1085 313V174H326V1393H494V313H1085Z" />
<glyph unicode="m" glyph-name="m" horiz-adv-x="1693" d="M84 0L166 1407Q169 1428 184 1409L852 659L1509 1409Q1525 1427 1528 1407L1610 0H1446L1386 1051L854 440L307 1049L246 0H84ZM854 383L1354 956L1409 0H1249L1217 586L862 176Q853 167 844 176L475
588L442 0H283L340 958L854 383Z" />
<glyph unicode="n" glyph-name="n" horiz-adv-x="1495" d="M276 1106V0H121V1411Q121 1439 150 1415L1028 688V1393H1184V362L276 1106ZM1346 -25L467 700V0H313V1028L1221 285V1393H1374V-20Q1374 -48 1346 -25Z" />
<glyph unicode="o" glyph-name="o" horiz-adv-x="1601" d="M801 125Q963 125 1094 198T1301 403T1376 696Q1376 942 1212 1104T801 1266Q639 1266 507 1193T300 989T225 696Q225 575 269 469T389 287T573 169T801 125ZM1032 162T801 162T416 313T262 696T416 1078T801
1229T1185 1078T1339 696T1186 314ZM801 -18Q651 -18 515 35T276 180T114 407T53 696T113 984T276 1210T514 1356T801 1409Q950 1409 1086 1356T1325 1211T1487 984T1548 696T1488 408T1325 181T1087 35T801 -18ZM801 305Q971 305 1069 415T1167 696T1069 975T801
1085Q630 1085 532 976T434 696T532 416T801 305Z" />
<glyph unicode="p" glyph-name="p" horiz-adv-x="1286" d="M494 399V0H326V537H676Q861 537 964 634T1067 893Q1067 1055 964 1154T676 1253H289V0H121V1393H684Q814 1393 919 1355T1092 1250T1198 1092T1235 893Q1235 673 1089 536T684 399H494ZM676 573H326V1217H676Q843
1217 936 1128T1030 893Q1030 749 937 661T676 573ZM494 711H666Q760 711 810 758T860 893T810 1028T666 1077H494V711Z" />
<glyph unicode="q" glyph-name="q" horiz-adv-x="1601" d="M954 -4V-254H819V125Q1058 131 1217 293T1376 696Q1376 942 1212 1104T801 1266Q639 1266 507 1193T300 989T225 696Q225 537 297 408T497 204T782 125V-254H647V-4Q523 20 415 82T226 233T99 443T53
696Q53 850 113 984T276 1210T514 1356T801 1409Q950 1409 1086 1356T1325 1211T1487 984T1548 696Q1548 563 1502 443T1376 234T1187 82T954 -4ZM647 324V571H782V162Q557 168 410 318T262 696Q262 927 416 1078T801 1229T1185 1078T1339 696Q1339 470 1191 319T819
162V571H954V324Q1057 365 1112 462T1167 696Q1167 866 1069 975T801 1085Q630 1085 532 976T434 696Q434 560 489 463T647 324Z" />
<glyph unicode="r" glyph-name="r" horiz-adv-x="1325" d="M289 1253V0H121V1393H684Q943 1393 1089 1256T1235 899Q1235 760 1170 655T981 494L1270 0H1087L764 567Q910 589 988 676T1067 899Q1067 1060 965 1156T676 1253H289ZM676 598H326V1217H676Q844 1217
937 1131T1030 899Q1030 759 937 679T676 598ZM494 436V0H326V561H676Q702 561 725 563L1047 0H866L621 436H494ZM494 721H666Q761 721 810 766T860 899T811 1031T666 1077H494V721Z" />
<glyph unicode="s" glyph-name="s" horiz-adv-x="1163" d="M586 -20Q474 -20 377 3T210 67T92 148T8 238L129 328Q290 117 578 117Q761 117 854 195T948 410Q948 515 886 582T680 696L506 756Q404 792 351 847T297 999Q297 1111 378 1174T584 1237Q706 1237 785
1201T928 1098L834 999Q734 1102 594 1102Q529 1102 494 1076T459 1006Q459 967 481 944T557 903L741 842Q944 775 1029 674T1114 420Q1114 218 983 99T586 -20ZM578 154Q312 154 158 350L279 440Q336 369 404 329T569 289Q745 289 745 399Q745 442 713 467T608
518L444 573Q98 689 98 993Q98 1125 166 1221T340 1363T573 1409Q749 1409 858 1360T1047 1223L954 1126Q813 1274 584 1274Q444 1274 352 1201T260 999Q260 891 320 825T496 721L670 662Q795 617 852 560T909 410Q909 289 827 222T578 154Z" />
<glyph unicode="t" glyph-name="t" horiz-adv-x="1204" d="M788 0H621V1217H1157V1079H788V0ZM416 0V1079H47V1217H584V0H416ZM1157 1393V1253H47V1393H1157Z" />
<glyph unicode="u" glyph-name="u" horiz-adv-x="1421" d="M816 -20T711 -20T515 2T348 69T219 180T136 337T106 539V1393H274V541Q274 338 391 232T711 125Q914 125 1030 231T1147 541V1393H1315V539Q1315 429 1286 338T1203 180T1074 69T908 2ZM897 162T711
162T418 259T311 541V1393H479V543Q479 305 711 305Q942 305 942 543V1393H1110V541Q1110 356 1004 259Z" />
<glyph unicode="v" glyph-name="v" horiz-adv-x="1353" d="M1346 1393L688 -14Q684 -24 676 -24T664 -14L8 1393H186L684 307L1176 1393H1346ZM684 397L227 1393H406L690 743L967 1393H1135L684 397Z" />
<glyph unicode="w" glyph-name="w" horiz-adv-x="1916" d="M961 725L618 -16Q614 -27 606 -27T594 -16L8 1393H184L629 307L965 1047L1307 307L1743 1393H1909L1331 -16Q1328 -24 1324 -27T1316 -27T1307 -16L961 725ZM631 391L221 1393H393L649 739L958 1419Q965
1434 973 1424Q974 1422 975 1419L1298 739L1542 1393H1704L1307 391L965 1126L631 391Z" />
<glyph unicode="x" glyph-name="x" horiz-adv-x="1406" d="M1389 0H1204L729 758L1141 1393H1313L909 764L1389 0ZM500 748L94 1393H283L680 758L190 0H18L500 748ZM236 0L705 725L1157 0H973L692 473L406 0H236ZM705 788L328 1393H510L719 1040L926 1393H1094L705 788Z" />
<glyph unicode="y" glyph-name="y" horiz-adv-x="1363" d="M500 539L8 1393H190L668 549V0H500V539ZM872 0H705V547L1182 1393H1356L872 549V0ZM692 883L965 1393H1141L688 586L233 1393H418L692 883Z" />
<glyph unicode="z" glyph-name="z" horiz-adv-x="1255" d="M29 0Q9 0 23 20L643 1079H127V1219H899L272 139H1165V0H29ZM967 1255H127V1393H1210Q1220 1393 1222 1389T1217 1372L596 313H1165V176H340L967 1255Z" />
<glyph unicode="{" glyph-name="braceleft" horiz-adv-x="847" d="M430 1075Q430 1154 475 1190T590 1227H778V1098H649Q618 1098 603 1084T588 1032V870Q588 723 449 696Q588 671 588 522V360Q588 323 603 309T649 295H778V166H590Q521 166 476 202T430 317V481Q430
657 250 696Q430 734 430 911V1075ZM530 0Q473 0 423 15T329 61T261 146T236 274V440Q236 549 137 549H55V678H137Q393 678 393 481V317Q393 218 448 174T590 129H778V0H530ZM137 715H55V844H137Q236 844 236 952V1118Q236 1191 261 1246T329 1332T422 1378T530
1393H778V1264H590Q504 1264 449 1219T393 1075V911Q393 715 137 715Z" />
<glyph unicode="|" glyph-name="bar" horiz-adv-x="520" d="M418 -143H279V1536H418V-143ZM102 -143V1536H242V-143H102Z" />
<glyph unicode="}" glyph-name="braceright" horiz-adv-x="847" d="M418 1075V911Q418 733 598 696Q418 657 418 481V317Q418 239 373 203T258 166H70V295H199Q230 295 245 309T260 360V522Q260 671 399 696Q260 723 260 870V1032Q260 1069 245 1083T199 1098H70V1227H258Q327
1227 372 1191T418 1075ZM317 0H70V129H258Q344 129 399 174T455 317V481Q455 678 711 678H793V549H711Q612 549 612 440V274Q612 201 587 147T519 61T426 15T317 0ZM793 715H711Q455 715 455 911V1075Q455 1174 400 1219T258 1264H70V1393H317Q375 1393 425 1378T519
1332T587 1246T612 1118V952Q612 844 711 844H793V715Z" />
<glyph unicode="~" glyph-name="asciitilde" horiz-adv-x="991" d="M365 641Q290 641 233 580T160 408L45 424Q68 587 154 684T348 782Q406 782 459 762T550 721T610 700Q659 700 678 774L795 758Q778 663 733 611T627 559Q580 559 504 598Q412 641 365 641ZM643
381Q585 381 532 401T441 442T381 463Q354 463 339 445T313 389L197 403Q212 499 258 551T365 604Q409 604 487 565Q571 522 627 522Q701 522 756 583T831 754L946 739Q923 576 837 479T643 381Z" />
</font>
</defs>
</svg>
