<?xml version="1.0" standalone="no"?> <!DOCTYPE svg PUBLIC "-//W3C//DTD SVG 1.0//EN" "http://www.w3.org/TR/2001/REC-SVG-20010904/DTD/svg10.dtd" > <svg xmlns="http://www.w3.org/2000/svg" width="100%" height="100%">
<defs >
<font id="neutra2displaymedium" horiz-adv-x="916" ><font-face
    font-family="Neutraface 2 Display Medium"
    units-per-em="2048"
    panose-1="2 0 6 3 4 0 0 2 0 4"
    ascent="1598"
    descent="-451"
    alphabetic="0" />
<missing-glyph horiz-adv-x="1024" />
<glyph unicode=" " glyph-name="space" horiz-adv-x="372" />
<glyph unicode="!" glyph-name="exclam" horiz-adv-x="438" d="M164 373L150 1393H291L276 373H164ZM219 -12Q181 -12 152 16T123 84T152 152T219 180Q258 180 286 153T315 84T287 16T219 -12Z" />
<glyph unicode="&quot;" glyph-name="quotedbl" horiz-adv-x="536" d="M338 1042L319 1393H461L444 1042H338ZM92 1042L76 1393H215L199 1042H92Z" />
<glyph unicode="#" glyph-name="numbersign" horiz-adv-x="890" d="M205 508L260 727H113V831H287L342 1051H453L397 831H600L655 1051H766L711 831H850V727H684L629 508H782L780 403H602L549 195H438L492 403H289L238 195H127L180 403H41V508H205ZM573 727H371L315
508H518L573 727Z" />
<glyph unicode="$" glyph-name="dollar" horiz-adv-x="868" d="M379 -14Q253 -2 165 59T35 215L139 276Q211 117 379 96V500L373 502Q226 548 159 616T92 803Q92 915 171 986T379 1065V1251H479V1063Q659 1040 741 893L647 831Q615 885 578 914T479 954V598L502
592Q657 543 729 469T801 276Q801 148 716 73T479 -14V-238H379V-14ZM379 956Q303 950 259 913T215 809Q215 737 251 698T379 629V956ZM479 469V96Q575 106 626 151T678 272Q678 352 635 393T479 469Z" />
<glyph unicode="%" glyph-name="percent" horiz-adv-x="1265" d="M250 0L883 1051H1010L377 0H250ZM315 553Q208 553 131 627T53 811T130 993T315 1067T498 994T575 811T498 628T315 553ZM315 657Q377 657 419 700T461 811Q461 877 419 920T315 963Q252 963 209
920T166 811Q166 744 208 701T315 657ZM944 -16Q837 -16 760 58T682 240Q682 350 759 425T944 500Q1050 500 1128 425T1206 240Q1206 132 1128 58T944 -16ZM944 88Q1008 88 1051 131T1094 240Q1094 308 1051 350T944 393Q881 393 839 351T797 240Q797 175 839 132T944
88Z" />
<glyph unicode="&amp;" glyph-name="ampersand" horiz-adv-x="1308" d="M621 803L942 406Q999 554 999 758H1122Q1122 494 1028 301L1272 0H1108L956 186Q878 88 768 36T528 -16Q328 -16 202 90T76 371Q76 438 96 496T145 597T226 684T322 756T436 825L412 856Q301
992 301 1128Q301 1248 382 1328T594 1409Q721 1409 796 1331T872 1133Q872 1037 807 958T621 803ZM549 889Q647 947 696 1002T745 1133Q745 1203 704 1248T594 1294Q520 1294 475 1248T430 1128Q430 1036 512 934L549 889ZM879 283L508 737Q434 695 387 663T297
586T233 489T213 371Q213 248 301 174T528 100Q753 100 879 283Z" />
<glyph unicode="&apos;" glyph-name="quotesingle" horiz-adv-x="290" d="M92 1042L76 1393H215L199 1042H92Z" />
<glyph unicode="(" glyph-name="parenleft" horiz-adv-x="565" d="M432 -279Q86 85 86 596Q86 1108 432 1470L514 1403Q221 1066 221 596T514 -211L432 -279Z" />
<glyph unicode=")" glyph-name="parenright" horiz-adv-x="565" d="M131 -279L51 -211Q344 130 344 596T51 1403L131 1470Q479 1110 479 596Q479 83 131 -279Z" />
<glyph unicode="*" glyph-name="asterisk" horiz-adv-x="733" d="M313 881L330 1073L176 965L123 1057L297 1137L123 1214L176 1309L330 1200L313 1393H422L406 1200L557 1309L610 1214L436 1137L610 1057L557 965L406 1073L422 881H313Z" />
<glyph unicode="+" glyph-name="plus" horiz-adv-x="679" d="M399 455V231H281V455H76V569H281V793H399V569H604V455H399Z" />
<glyph unicode="," glyph-name="comma" horiz-adv-x="358" d="M80 -168L143 -4Q119 6 103 29T86 84Q86 125 114 152T182 180Q220 180 249 152T279 84Q279 55 250 6L152 -168H80Z" />
<glyph unicode="-" glyph-name="hyphen" horiz-adv-x="479" d="M74 332V444H406V332H74Z" />
<glyph unicode="." glyph-name="period" horiz-adv-x="352" d="M176 -12Q137 -12 109 15T80 84T108 152T176 180Q214 180 243 152T272 84T243 16T176 -12Z" />
<glyph unicode="/" glyph-name="slash" horiz-adv-x="833" d="M12 -262L625 1454H756L143 -262H12Z" />
<glyph unicode="0" glyph-name="zero" horiz-adv-x="1034" d="M516 -16Q321 -16 197 135T72 526Q72 767 196 917T516 1067Q713 1067 838 917T963 526Q963 287 838 136T516 -16ZM516 98Q661 98 744 216T827 526T744 835T516 952Q372 952 290 835T207 526T290 216T516 98Z" />
<glyph unicode="1" glyph-name="one" horiz-adv-x="546" d="M244 0V940H68V1051H375V0H244Z" />
<glyph unicode="2" glyph-name="two" horiz-adv-x="866" d="M25 0V8L395 385Q440 431 456 448T510 506T562 570T599 629T629 697T637 762Q637 857 582 904T440 952Q356 952 293 899T203 756L88 799Q127 926 221 996T440 1067Q583 1067 676 987T770 762Q770 708
748 651T682 535T597 430T496 326L279 111H793V0H25Z" />
<glyph unicode="3" glyph-name="three" horiz-adv-x="892" d="M426 -16Q288 -16 182 53T31 227L141 283Q231 96 426 96Q544 96 614 159T684 336T610 510T412 571Q332 571 254 543L246 559L565 940H109V1051H782V1042L467 664Q619 662 719 573T819 334Q819 176
713 80T426 -16Z" />
<glyph unicode="4" glyph-name="four" horiz-adv-x="937" d="M737 330H879V227H737V0H610V227H27V252L715 1073H737V330ZM610 330V797L223 330H610Z" />
<glyph unicode="5" glyph-name="five" horiz-adv-x="878" d="M420 -16Q289 -16 191 42T49 184L158 246Q236 96 420 96Q533 96 601 162T670 338Q670 450 600 512T399 575Q250 575 139 487L131 492V1051H725V940H246V649Q315 688 426 688Q594 688 699 590T805 336Q805
179 701 82T420 -16Z" />
<glyph unicode="6" glyph-name="six" horiz-adv-x="897" d="M612 -16T451 -16T181 83T72 340Q72 475 193 641L489 1051H631L350 664Q403 696 477 696Q627 696 728 596T829 342Q829 185 721 85ZM451 96Q561 96 628 165T696 342Q696 452 629 522T453 592Q341 592
273 520T205 342Q205 235 272 166T451 96Z" />
<glyph unicode="7" glyph-name="seven" horiz-adv-x="870" d="M172 0L643 940H63V1051H829V1042L311 0H172Z" />
<glyph unicode="8" glyph-name="eight" horiz-adv-x="878" d="M438 -16Q277 -16 173 75T68 303Q68 403 124 477T276 586Q213 617 174 672T135 803Q135 912 220 989T438 1067Q573 1067 658 990T743 803Q743 728 704 673T600 586Q696 551 753 477T811 303Q811 166
707 75T438 -16ZM438 94Q544 94 611 155T678 313T613 469T438 530Q330 530 266 470T201 313T267 156T438 94ZM438 635Q514 635 563 681T612 799Q612 868 563 913T438 958Q364 958 315 913T266 799Q266 729 315 682T438 635Z" />
<glyph unicode="9" glyph-name="nine" horiz-adv-x="897" d="M446 1069Q607 1069 717 969T827 711Q827 580 707 410L410 0H266L549 391Q494 354 422 354Q272 354 171 455T70 709Q70 866 178 967T446 1069ZM446 954Q337 954 270 886T203 709Q203 599 269 530T446
461Q558 461 626 532T694 709Q694 818 627 886T446 954Z" />
<glyph unicode=":" glyph-name="colon" horiz-adv-x="368" d="M222 430T184 430T117 458T88 526Q88 567 117 595T184 623T251 595T281 526Q281 486 252 458ZM222 -12T184 -12T117 16T88 84T117 152T184 180T251 152T281 84T252 16Z" />
<glyph unicode=";" glyph-name="semicolon" horiz-adv-x="374" d="M228 430T190 430T123 458T94 526Q94 567 123 595T190 623Q229 623 258 595T287 526Q287 486 258 458ZM88 -168L152 -4Q127 6 111 29T94 84Q94 124 123 152T190 180T257 152T287 84Q287 58 260
6L160 -168H88Z" />
<glyph unicode="&lt;" glyph-name="less" horiz-adv-x="649" d="M573 217L59 496V504L573 778V662L264 498L573 334V217Z" />
<glyph unicode="=" glyph-name="equal" horiz-adv-x="679" d="M76 571V686H604V571H76ZM76 334V449H604V334H76Z" />
<glyph unicode="&gt;" glyph-name="greater" horiz-adv-x="649" d="M76 217V334L385 498L76 662V778L590 500V492L76 217Z" />
<glyph unicode="?" glyph-name="question" horiz-adv-x="907" d="M342 367V760H401Q535 760 610 837T686 1030Q686 1151 616 1222T428 1294Q331 1294 266 1248T152 1114L49 1174Q102 1280 199 1344T428 1409Q607 1409 713 1303T819 1030Q819 874 723 771T463 651V367H342ZM439
-12T401 -12T334 16T305 84T334 152T401 180T468 152T498 84T469 16Z" />
<glyph unicode="@" glyph-name="at" horiz-adv-x="1511" d="M774 -367Q624 -367 493 -315T269 -170T122 51T68 328Q68 522 161 681T413 931T762 1022Q910 1022 1037 971T1254 833T1393 625T1444 367Q1444 178 1368 77T1174 -25Q1090 -25 1037 15T963 127Q886 -16
717 -16Q589 -16 500 79T410 315Q410 458 499 555T717 653Q871 653 938 526V637H1065V217Q1065 78 1176 78Q1241 78 1285 152T1329 365Q1329 609 1174 763T760 918Q594 918 464 841T262 629T190 328Q190 160 262 26T467 -185T772 -262Q936 -262 1059 -193L1110
-285Q970 -367 774 -367ZM739 92Q827 92 883 155T940 315Q940 413 884 479T739 545Q652 545 598 479T543 315Q543 218 597 155T739 92Z" />
<glyph unicode="A" glyph-name="A" horiz-adv-x="1306" d="M1104 0L965 344H334L197 0H61L647 1425H657L1245 0H1104ZM649 1124L383 463H915L649 1124Z" />
<glyph unicode="B" glyph-name="B" horiz-adv-x="1204" d="M178 0V1393H647Q839 1393 941 1293T1044 1036Q1044 924 993 843T838 729Q1114 660 1114 383Q1114 212 1000 106T676 0H178ZM311 778H659Q787 778 850 846T913 1028Q913 1140 844 1208T635 1276H311V778ZM311
117H664Q821 117 900 190T979 391Q979 519 897 593T659 668H311V117Z" />
<glyph unicode="C" glyph-name="C" horiz-adv-x="1449" d="M795 -16Q597 -16 435 75T179 329T86 696Q86 899 179 1063T434 1318T791 1409Q964 1409 1103 1342T1337 1149L1235 1075Q1069 1288 788 1288Q629 1288 500 1211T298 999T225 696Q225 570 268 460T388
271T570 149T799 104Q1098 104 1272 336L1376 262Q1164 -16 795 -16Z" />
<glyph unicode="D" glyph-name="D" horiz-adv-x="1353" d="M178 0V1393H526Q867 1393 1064 1201T1262 696T1065 192T526 0H178ZM311 121H514Q813 121 967 277T1122 696T968 1115T514 1272H311V121Z" />
<glyph unicode="E" glyph-name="E" horiz-adv-x="1150" d="M178 0V1393H1018V1274H311V760H942V643H311V119H1047V0H178Z" />
<glyph unicode="F" glyph-name="F" horiz-adv-x="1103" d="M178 0V1393H1010V1274H311V719H946V600H311V0H178Z" />
<glyph unicode="G" glyph-name="G" horiz-adv-x="1478" d="M813 -16Q610 -16 444 75T182 329T86 696Q86 847 141 980T292 1207T517 1355T793 1409Q1120 1409 1317 1192L1223 1104Q1142 1193 1041 1240T788 1288Q629 1288 500 1211T298 999T225 696T299 394T509
181T813 104Q1076 104 1237 240V559H817V678H1364V178Q1259 85 1128 35T813 -16Z" />
<glyph unicode="H" glyph-name="H" horiz-adv-x="1382" d="M1071 750V1393H1204V0H1071V631H311V0H178V1393H311V750H1071Z" />
<glyph unicode="I" glyph-name="I" horiz-adv-x="507" d="M186 0V1393H322V0H186Z" />
<glyph unicode="J" glyph-name="J" horiz-adv-x="942" d="M412 -16Q168 -16 55 188L164 256Q246 104 408 104Q515 104 577 169T639 367V1393H774V362Q774 180 674 82T412 -16Z" />
<glyph unicode="K" glyph-name="K" horiz-adv-x="1210" d="M997 0L502 680L311 459V0H178V1393H311V627L950 1393H1102L588 780L1161 0H997Z" />
<glyph unicode="L" glyph-name="L" horiz-adv-x="1028" d="M178 0V1393H311V119H958V0H178Z" />
<glyph unicode="M" glyph-name="M" horiz-adv-x="1681" d="M178 0V1421H186L842 610L1493 1421H1503V0H1376V1094L842 422H834L305 1094V0H178Z" />
<glyph unicode="N" glyph-name="N" horiz-adv-x="1431" d="M1241 -29L303 1096V0H178V1421H190L1128 297V1393H1253V-29H1241Z" />
<glyph unicode="O" glyph-name="O" horiz-adv-x="1601" d="M997 -16T801 -16T442 75T182 331T86 696Q86 898 182 1062T441 1317T801 1409T1160 1318T1420 1062T1516 696Q1516 495 1420 331T1161 76ZM553 104T801 104T1212 273T1376 696T1213 1119T801 1288T389
1119T225 696T389 273Z" />
<glyph unicode="P" glyph-name="P" horiz-adv-x="1134" d="M311 555V0H178V1393H588Q808 1393 930 1276T1053 973Q1053 786 931 671T588 555H311ZM311 674H580Q746 674 829 753T913 973Q913 1114 829 1194T580 1274H311V674Z" />
<glyph unicode="Q" glyph-name="Q" horiz-adv-x="1601" d="M864 -14V-254H737V-14Q602 -3 482 55T275 206T137 425T86 696Q86 898 182 1062T441 1317T801 1409T1160 1318T1420 1062T1516 696Q1516 553 1465 426T1327 206T1120 56T864 -14ZM737 106V360H864V106Q1089
128 1232 292T1376 696Q1376 863 1302 998T1097 1209T801 1286Q678 1286 571 1241T388 1118T269 931T225 696Q225 457 368 293T737 106Z" />
<glyph unicode="R" glyph-name="R" horiz-adv-x="1185" d="M311 569V0H178V1393H594Q813 1393 936 1277T1059 977Q1059 834 981 731T758 590L1124 0H975L623 569H590H311ZM311 686H586Q752 686 836 763T920 977Q920 1116 836 1195T586 1274H311V686Z" />
<glyph unicode="S" glyph-name="S" horiz-adv-x="1071" d="M61 264L174 324Q230 218 323 161T539 104Q680 104 761 169T842 344Q842 401 826 444T773 523T693 584T580 643L467 696Q385 735 331 769T231 848T164 950T143 1077Q143 1225 246 1317T508 1409Q642 1409
735 1359T893 1204L791 1139Q700 1292 510 1292Q405 1292 340 1233T274 1081Q274 987 327 935T520 817L631 764Q720 722 779 684T885 596T953 486T975 348Q975 178 857 81T541 -16Q375 -16 254 58T61 264Z" />
<glyph unicode="T" glyph-name="T" horiz-adv-x="1097" d="M483 0V1274H51V1393H1047V1274H616V0H483Z" />
<glyph unicode="U" glyph-name="U" horiz-adv-x="1318" d="M659 -16Q517 -16 408 38T233 204T168 473V1393H301V483Q301 298 396 201T659 104Q828 104 923 201T1018 483V1393H1151V473Q1151 316 1086 204T912 38T659 -16Z" />
<glyph unicode="V" glyph-name="V" horiz-adv-x="1306" d="M649 -29L61 1393H205L655 272L1108 1393H1245L657 -29H649Z" />
<glyph unicode="W" glyph-name="W" horiz-adv-x="1916" d="M520 -27L57 1393H197L537 309L956 1425H967L1389 309L1726 1393H1858L1399 -27H1389L963 1106L528 -27H520Z" />
<glyph unicode="X" glyph-name="X" horiz-adv-x="1273" d="M561 754L152 1393H303L637 872L971 1393H1114L709 762L1198 0H1047L633 643L219 0H76L561 754Z" />
<glyph unicode="Y" glyph-name="Y" horiz-adv-x="1198" d="M535 557L47 1393H197L602 692L1008 1393H1151L670 559V0H535V557Z" />
<glyph unicode="Z" glyph-name="Z" horiz-adv-x="1175" d="M66 0V8L877 1274H166V1393H1094V1384L283 119H1098V0H66Z" />
<glyph unicode="[" glyph-name="bracketleft" horiz-adv-x="577" d="M162 -262V1454H504V1343H291V-152H504V-262H162Z" />
<glyph unicode="\" glyph-name="backslash" horiz-adv-x="833" d="M690 -262L78 1454H207L821 -262H690Z" />
<glyph unicode="]" glyph-name="bracketright" horiz-adv-x="579" d="M74 -262V-152H289V1343H74V1454H418V-262H74Z" />
<glyph unicode="^" glyph-name="asciicircum" horiz-adv-x="761" d="M381 1233L164 891H37L377 1421H387L725 891H598L381 1233Z" />
<glyph unicode="_" glyph-name="underscore" horiz-adv-x="518" d="M-4 -262V-150H522V-262H-4Z" />
<glyph unicode="`" glyph-name="grave" horiz-adv-x="1019" d="M465 811L309 1100H451L565 811H465Z" />
<glyph unicode="a" glyph-name="a" horiz-adv-x="755" d="M530 408V414Q530 584 373 584Q253 584 182 487L102 557Q202 690 377 690Q509 690 582 621T655 414V0H530V76Q459 -16 319 -16Q207 -16 135 39T63 201Q63 300 138 354T328 408H530ZM530 307H336Q270 307
229 281T188 201Q188 145 228 116T340 86Q419 86 474 125T530 233V307Z" />
<glyph unicode="b" glyph-name="b" horiz-adv-x="868" d="M475 -16Q306 -16 231 115V0H106V1454H231V559Q306 690 475 690Q617 690 712 589T807 336Q807 185 712 85T475 -16ZM451 94Q552 94 615 162T678 336Q678 444 615 512T451 580Q351 580 289 512T227 336Q227
230 289 162T451 94Z" />
<glyph unicode="c" glyph-name="c" horiz-adv-x="739" d="M410 -16Q262 -16 162 85T61 336Q61 488 161 589T410 690Q576 690 676 582L592 506Q522 582 410 582Q313 582 253 512T193 336Q193 231 253 162T410 92Q531 92 608 176L692 102Q593 -16 410 -16Z" />
<glyph unicode="d" glyph-name="d" horiz-adv-x="872" d="M395 -16Q254 -16 158 85T61 336Q61 488 157 589T395 690Q563 690 639 559V1454H764V0H639V115Q563 -16 395 -16ZM317 94T418 94T581 162T643 336Q643 444 581 512T418 580T255 512T193 336Q193 230 255 162Z" />
<glyph unicode="e" glyph-name="e" horiz-adv-x="819" d="M193 291Q207 197 268 144T428 90Q561 90 639 178L717 102Q617 -16 430 -16Q267 -16 164 84T61 336Q61 487 164 588T416 690Q575 690 668 579T758 291H193ZM197 395H627Q613 480 560 532T416 584Q329 584
271 533T197 395Z" />
<glyph unicode="f" glyph-name="f" horiz-adv-x="491" d="M266 567V0H141V567H53V674H141V1251Q141 1359 193 1414T336 1470Q442 1470 500 1399L426 1319Q395 1360 344 1360Q266 1360 266 1249V674H436V567H266Z" />
<glyph unicode="g" glyph-name="g" horiz-adv-x="872" d="M424 -455Q305 -455 218 -402T82 -252L186 -199Q220 -269 280 -306T420 -344Q523 -344 581 -283T639 -109V115Q563 -16 395 -16Q254 -16 158 85T61 336Q61 488 157 589T395 690Q563 690 639 559V674H764V-111Q764
-271 674 -363T424 -455ZM317 94T418 94T581 162T643 336Q643 444 581 512T418 580T255 512T193 336Q193 230 255 162Z" />
<glyph unicode="h" glyph-name="h" horiz-adv-x="813" d="M104 0V1454H229V565Q305 690 461 690Q576 690 647 618T719 414V0H594V401Q594 578 430 578Q338 578 284 524T229 373V0H104Z" />
<glyph unicode="i" glyph-name="i" horiz-adv-x="344" d="M206 858T172 858T112 883T86 944T112 1005T172 1030T232 1005T258 944T232 883ZM109 0V674H236V0H109Z" />
<glyph unicode="j" glyph-name="j" horiz-adv-x="344" d="M206 858T172 858T112 883T86 944T112 1005T172 1030T232 1005T258 944T232 883ZM51 -453Q-31 -453 -88 -399L-25 -317Q3 -342 37 -342Q109 -342 109 -250V674H236V-250Q236 -347 187 -400T51 -453Z" />
<glyph unicode="k" glyph-name="k" horiz-adv-x="729" d="M229 180V0H104V1454H229V342L516 674H664L410 385L707 0H551L328 291L229 180Z" />
<glyph unicode="l" glyph-name="l" horiz-adv-x="348" d="M111 0V1454H238V0H111Z" />
<glyph unicode="m" glyph-name="m" horiz-adv-x="1208" d="M104 0V674H229V582Q287 690 430 690Q572 690 633 565Q712 690 870 690Q979 690 1046 621T1114 430V0H989V416Q989 578 846 578Q762 578 717 530T672 391V0H547V414Q547 578 403 578Q320 578 275 529T229
387V0H104Z" />
<glyph unicode="n" glyph-name="n" horiz-adv-x="813" d="M104 0V674H229V565Q261 626 322 658T461 690Q576 690 647 618T719 414V0H594V401Q594 578 430 578Q338 578 284 524T229 373V0H104Z" />
<glyph unicode="o" glyph-name="o" horiz-adv-x="837" d="M420 -16Q269 -16 165 85T61 336Q61 487 164 588T420 690Q570 690 673 589T776 336Q776 186 673 85T420 -16ZM320 90T420 90T583 160T647 336Q647 443 584 513T420 584T257 514T193 336Q193 230 256 160Z" />
<glyph unicode="p" glyph-name="p" horiz-adv-x="868" d="M106 -434V674H231V559Q306 690 475 690Q617 690 712 589T807 336Q807 185 712 85T475 -16Q306 -16 231 115V-434H106ZM451 94Q552 94 615 162T678 336Q678 444 615 512T451 580Q351 580 289 512T227 336Q227
230 289 162T451 94Z" />
<glyph unicode="q" glyph-name="q" horiz-adv-x="872" d="M639 -434V115Q563 -16 395 -16Q254 -16 158 85T61 336Q61 488 157 589T395 690Q563 690 639 559V674H764V-434H639ZM317 94T418 94T581 162T643 336Q643 444 581 512T418 580T255 512T193 336Q193 230 255 162Z" />
<glyph unicode="r" glyph-name="r" horiz-adv-x="557" d="M104 0V674H229V561Q260 625 312 657T426 690Q489 690 532 664L489 557Q456 575 406 575Q328 575 279 516T229 356V0H104Z" />
<glyph unicode="s" glyph-name="s" horiz-adv-x="651" d="M334 -16Q237 -16 163 22T41 131L135 199Q201 90 334 90Q398 90 433 113T469 180Q469 224 435 246T305 295Q194 326 142 372T90 504Q90 587 152 638T315 690Q469 690 553 582L465 508Q410 584 315 584Q264
584 236 562T207 508Q207 467 238 448T356 406Q477 373 533 325T590 188Q590 93 522 39T334 -16Z" />
<glyph unicode="t" glyph-name="t" horiz-adv-x="503" d="M139 567H51V674H139V934H264V674H432V567H264V188Q264 92 336 92Q373 92 410 121L463 33Q411 -16 322 -16Q236 -16 188 33T139 182V567Z" />
<glyph unicode="u" glyph-name="u" horiz-adv-x="813" d="M352 -16Q234 -16 164 55T94 260V674H219V272Q219 96 383 96Q475 96 529 149T584 299V674H709V0H584V109Q515 -16 352 -16Z" />
<glyph unicode="v" glyph-name="v" horiz-adv-x="720" d="M362 -23L20 674H160L371 221L571 674H700L371 -23H362Z" />
<glyph unicode="w" glyph-name="w" horiz-adv-x="1083" d="M309 -23L20 674H160L330 240L541 694H547L764 240L936 674H1063L772 -23H764L543 453L317 -23H309Z" />
<glyph unicode="x" glyph-name="x" horiz-adv-x="747" d="M303 360L78 674H223L377 459L535 674H670L442 367L707 0H561L371 266L176 0H41L303 360Z" />
<glyph unicode="y" glyph-name="y" horiz-adv-x="714" d="M303 55L20 674H162L367 203L565 674H694L225 -434H96L303 55Z" />
<glyph unicode="z" glyph-name="z" horiz-adv-x="673" d="M45 0V6L424 567H92V674H623V666L244 106H612V0H45Z" />
<glyph unicode="{" glyph-name="braceleft" horiz-adv-x="665" d="M520 -262Q466 -262 424 -250T342 -208T280 -119T258 27V393Q258 471 229 501T141 532H47V643H141Q200 643 229 674T258 782V1165Q258 1251 280 1310T341 1400T423 1442T520 1454H594V1343H524Q457
1343 423 1304T389 1167V764Q389 615 268 590Q389 563 389 414V25Q389 -73 423 -112T524 -152H594V-262H520Z" />
<glyph unicode="|" glyph-name="bar" horiz-adv-x="464" d="M168 -262V1454H297V-262H168Z" />
<glyph unicode="}" glyph-name="braceright" horiz-adv-x="665" d="M72 -262V-152H141Q209 -152 244 -113T279 25V414Q279 562 397 588Q279 613 279 764V1167Q279 1265 244 1304T141 1343H72V1454H145Q408 1454 408 1165V784Q408 707 437 675T524 643H618V532H524Q466
532 437 502T408 393V27Q408 -262 145 -262H72Z" />
<glyph unicode="~" glyph-name="asciitilde" horiz-adv-x="698" d="M459 455Q420 455 380 474T307 513T250 532Q199 532 180 459L78 473Q92 556 136 603T244 651Q282 651 321 632T394 594T453 575Q501 575 522 647L621 633Q608 551 565 503T459 455Z" />
</font>
</defs>
</svg>
